<?xml version="1.0" encoding="UTF-8" standalone="no"?>
<svg
   xmlns:dc="http://purl.org/dc/elements/1.1/"
   xmlns:cc="http://creativecommons.org/ns#"
   xmlns:rdf="http://www.w3.org/1999/02/22-rdf-syntax-ns#"
   xmlns:svg="http://www.w3.org/2000/svg"
   xmlns="http://www.w3.org/2000/svg"
   version="1.1"
   x="0px"
   y="0px"
   viewBox="0 0 256 256"
   enable-background="new 0 0 256 256"
   xml:space="preserve"
   id="svg2"><g
     id="clap"><g
       id="g303"><path
         fill="#FFFFFF"
         d="M184.1,190.2c0,0,3.4,0.2,5.4-1.9c3.4-3.7,1.5-7.5,7.8-7.6h-26.3c6.3,0.1,4.4,4,7.8,7.6    C180.8,190.5,184.1,190.2,184.1,190.2L184.1,190.2z"
         id="path305" /><g
         opacity="8.000000e-02"
         id="g307"><path
           d="M79,182.7c-4.7,0-9.4-0.4-10.5-0.8s-1.9-6.7-1.9-11.4v-31.6c0-4.7,0.4-9.4,0.8-10.4s6.8-1.8,11.5-1.8h119.1     c4.7,0,9.4,0.4,10.5,0.8s1.9,6.6,1.9,11.4v31.6c0,4.7-0.4,9.4-0.8,10.4s-6.8,1.8-11.5,1.8H79z"
           id="path309" /></g><g
         id="g311"><path
           fill="#FFFFFF"
           d="M206.7,181.7H70.4c-1.5,0-2.7-1.2-2.7-2.6v-48.8c0-1.4,1.2-2.6,2.7-2.6h136.4c1.5,0,2.7,1.2,2.7,2.6v48.8     C209.5,180.5,208.3,181.7,206.7,181.7z"
           id="path313" /></g><circle
         opacity="8.000000e-02"
         cx="106.1"
         cy="162.6"
         r="32.6"
         id="circle315" /><circle
         fill="#FFFFFF"
         stroke="#000000"
         stroke-width="6.2508"
         stroke-miterlimit="10"
         cx="106.1"
         cy="162.6"
         r="28.4"
         id="circle317" /><rect
         x="182.9"
         y="145.4"
         width="11.3"
         height="5.1"
         id="rect319" /><rect
         x="203.8"
         y="145.4"
         width="5.6"
         height="5.1"
         id="rect321" /></g><path
       opacity="8.000000e-02"
       d="M84.4,163c-7.9,0-15.4-2.5-21.7-7.4l-0.4-0.3l-0.1-0.1C56.9,150.9,53,145,51,138.4   c-4.3-4.1-7.5-9.1-9.3-14.7l-0.1-0.2l-9.6-30.5c-0.3-1.1-0.2-2.2,0.3-3.2c0.5-1,1.4-1.7,2.4-2c0.5-0.2,0.8-0.3,0.8-0.3   c0,0,0.3-0.1,2.5-0.8c1.2-0.4,2.5-0.6,3.8-0.6c3.6,0,6.9,1.5,9.2,3.9v-26c0-3,1.2-5.8,3.3-7.8c1.9-1.8,4.6-2.8,7.2-2.8   c0.8,0,1.7,0.1,2.5,0.3c0.4-2.1,1.5-4.1,3.1-5.6c1.9-1.8,4.6-2.8,7.2-2.8c3.2,0,6.9,1.5,9,4.9c1.2-0.5,2.5-0.7,3.8-0.7   c5.2,0,10.6,3.9,10.6,10.5v3.5c0.7-0.2,1.5-0.2,2.2-0.2c4.9,0,10,3.5,10.5,9.4c0.4,0.4,0.8,0.8,1.1,1.2c1.7-1.4,3.7-2.3,5.9-2.5   c0.3,0,0.6,0,0.9,0c2.3,0,4.6,0.8,6.5,2.2l0.3,0.2l0,0c2.4,2,4.2,5.4,3.8,9.2c1.2,0.4,2.4,1,3.4,1.8l0.1,0.1   c4.1,3.1,5.9,9.5,1.9,14.7l-2.1,2.8c0.6,0.3,1.1,0.6,1.7,1l0,0l0.2,0.1c4.2,3.2,6,9.6,2,14.9l-23.2,30.3l-0.2,0.3   C106,157.9,95.6,163,84.4,163z"
       id="path323" /><g
       id="g325"><line
         fill="none"
         stroke="#FFFFFF"
         stroke-width="5.1657"
         stroke-linecap="round"
         stroke-linejoin="round"
         stroke-miterlimit="10"
         x1="104.4"
         y1="51.5"
         x2="105.2"
         y2="25.3"
         id="line327" /><line
         fill="none"
         stroke="#FFFFFF"
         stroke-width="5.1657"
         stroke-linecap="round"
         stroke-linejoin="round"
         stroke-miterlimit="10"
         x1="120.6"
         y1="54.7"
         x2="133.7"
         y2="25.9"
         id="line329" /><line
         fill="none"
         stroke="#FFFFFF"
         stroke-width="5.1657"
         stroke-linecap="round"
         stroke-linejoin="round"
         stroke-miterlimit="10"
         x1="136"
         y1="64.4"
         x2="156.3"
         y2="44.4"
         id="line331" /><line
         fill="none"
         stroke="#FFFFFF"
         stroke-width="5.1657"
         stroke-linecap="round"
         stroke-linejoin="round"
         stroke-miterlimit="10"
         x1="145.3"
         y1="78.9"
         x2="172.7"
         y2="71.3"
         id="line333" /></g><g
       id="g335"><g
         id="g337"><path
           fill="#FFFFFF"
           stroke="#000000"
           stroke-width="3.5369"
           stroke-linecap="round"
           stroke-linejoin="round"
           stroke-miterlimit="10"
           d="     M107.6,112.4V74c0-4.7-3.9-7.6-7.6-7.6h0c-1.9,0-3.8,0.7-5.2,2c0,0,0,0-0.1,0.1v-8.3c0-4.7-3.9-7.6-7.6-7.6c0,0,0,0,0,0     c-1.9,0-3.8,0.7-5.2,2c-0.1,0-0.1,0.1-0.1,0.1c-0.6-4-4.1-6.4-7.5-6.4c0,0,0,0,0,0c-1.9,0-3.8,0.7-5.2,2     c-1.5,1.4-2.4,3.4-2.4,5.6v2.6c-1.4-1.4-3.4-2.1-5.3-2.1h0c-1.9,0-3.8,0.7-5.2,2c-1.5,1.4-2.4,3.4-2.4,5.6v41.4l-3.1-9.8     c-1.8-5.7-7.5-7.6-12-6.2c-2.3,0.7-2.4,0.8-2.5,0.8c0,0,0,0-0.8,0.3c-0.3,0.1-0.5,0.3-0.7,0.6c-0.1,0.3-0.2,0.6-0.1,0.9l9.6,30.4     c0,0,0,0,0,0c4.3,13.3,16.4,22.5,30.3,22.8c0,0,0,0,0.1,0C92.9,145.4,107.6,130.6,107.6,112.4     C107.6,112.5,107.6,112.4,107.6,112.4z"
           id="path339" /><path
           d="M107.6,112.4V74c0-4.7-3.9-7.6-7.6-7.6h0c-1.9,0-3.8,0.7-5.2,2c0,0,0,0-0.1,0.1v-8.3c0-4.7-3.9-7.6-7.6-7.6h0     c-1.9,0-3.8,0.7-5.2,2c-0.1,0-0.1,0.1-0.1,0.1c-0.6-4-4.1-6.4-7.5-6.4c0,0,0,0,0,0c-1.9,0-3.8,0.7-5.2,2     c-1.5,1.4-2.4,3.4-2.4,5.6v2.6c-1.4-1.4-3.4-2.1-5.3-2.1h0c-1.9,0-3.8,0.7-5.2,2c-1.5,1.4-2.4,3.4-2.4,5.6v41.4l-3.1-9.8     c-1.8-5.7-7.5-7.6-12-6.2c-2.3,0.7-2.4,0.8-2.5,0.8c0,0,0,0-0.8,0.3c-0.3,0.1-0.5,0.3-0.7,0.6c-0.1,0.3-0.2,0.6-0.1,0.9l9.6,30.4     c0,0,0,0,0,0c4.3,13.3,16.4,22.5,30.3,22.8c0,0,0,0,0.1,0C92.9,145.4,107.6,130.6,107.6,112.4     C107.6,112.5,107.6,112.4,107.6,112.4z M74.8,143C74.8,143,74.8,143,74.8,143c-13-0.4-24.3-9-28.3-21.4c0,0,0,0,0,0l-9.2-29.2     c0.3-0.1,0.9-0.3,2.2-0.7c3.4-1.1,7.7,0.2,9.1,4.7l5.3,16.9c0,0,0,0,0,0.1c0,0.1,0,0.1,0.1,0.1c0,0.1,0.1,0.1,0.1,0.2     c0,0,0.1,0.1,0.1,0.1c0.1,0,0.1,0.1,0.2,0.1c0.1,0,0.1,0.1,0.2,0.1c0.1,0,0.1,0,0.2,0c0,0,0.1,0,0.1,0c0,0,0,0,0,0c0,0,0,0,0,0     c3-0.2,13.5-0.2,20.5,8.5c0.4,0.5,1.1,0.6,1.6,0.2c0.5-0.4,0.6-1.1,0.2-1.6c-6.9-8.6-16.9-9.5-21.2-9.4V64.1c0-2,0.9-3.2,1.6-3.9     c1-0.9,2.3-1.4,3.6-1.4h0c2.5,0,5.2,1.8,5.3,5.2v37.9c0,0.6,0.5,1.2,1.2,1.2c0.6,0,1.2-0.5,1.2-1.2V64c0,0,0,0,0,0v-8     c0-2,0.9-3.2,1.6-3.9c1-0.9,2.3-1.4,3.6-1.4c2.6-0.1,5.3,1.8,5.3,5.2v4.3v41.3c0,0.6,0.5,1.2,1.2,1.2c0.6,0,1.2-0.5,1.2-1.2V60.2     c0-2,0.9-3.2,1.6-3.9c1-0.9,2.3-1.4,3.6-1.4h0c2.5,0,5.3,1.8,5.3,5.2V74c0,0,0,0,0,0l0,27.9c0,0.6,0.5,1.2,1.2,1.2     c0.6,0,1.2-0.5,1.2-1.2V74c0-1.9,0.9-3.2,1.6-3.8c1-0.9,2.3-1.4,3.6-1.4h0c2.5,0,5.3,1.8,5.3,5.2v38.5c0,0,0,0,0,0.1     C105.2,129.4,91.6,143,74.8,143z"
           id="path341" /></g><g
         id="g343"><path
           fill="#FFFFFF"
           stroke="#000000"
           stroke-width="3.5369"
           stroke-linecap="round"
           stroke-linejoin="round"
           stroke-miterlimit="10"
           d="     M110.5,147.1l23.4-30.5c2.9-3.8,1.5-8.3-1.4-10.6c0,0,0,0,0,0c-1.5-1.2-3.5-1.7-5.3-1.6c0,0-0.1,0-0.1,0l5.1-6.6     c2.9-3.8,1.5-8.3-1.4-10.6c0,0,0,0,0,0c-1.5-1.2-3.5-1.7-5.3-1.6c-0.1,0-0.1,0-0.2,0c2-3.6,0.7-7.6-2-9.6c0,0,0,0,0,0     c-1.5-1.2-3.5-1.7-5.3-1.5c-2.1,0.2-3.9,1.2-5.3,3l-1.6,2.1c-0.3-1.9-1.4-3.7-2.9-4.9c0,0,0,0,0,0c-1.5-1.2-3.5-1.7-5.3-1.6     c-2.1,0.2-3.9,1.2-5.3,3L72.2,109l3.5-9.6c2-5.6-1.3-10.6-5.7-12.2c-2.3-0.8-2.4-0.9-2.4-0.9c0,0,0,0-0.8-0.3     c-0.3-0.1-0.6-0.1-0.9,0c-0.3,0.1-0.5,0.4-0.6,0.7l-10.9,30c0,0,0,0,0,0c-4.7,13.1-0.6,27.8,10.1,36.5c0,0,0,0,0,0.1     C78.8,164.3,99.5,161.6,110.5,147.1C110.5,147.1,110.5,147.1,110.5,147.1z"
           id="path345" /><path
           d="M110.5,147.1l23.4-30.5c2.9-3.8,1.5-8.3-1.4-10.6c0,0,0,0,0,0c-1.5-1.2-3.5-1.7-5.3-1.6c0,0-0.1,0-0.1,0l5.1-6.6     c2.9-3.8,1.5-8.3-1.4-10.6c0,0,0,0,0,0c-1.5-1.2-3.5-1.7-5.3-1.6c-0.1,0-0.1,0-0.2,0c2-3.6,0.7-7.6-2-9.6c0,0,0,0,0,0     c-1.5-1.2-3.5-1.7-5.3-1.5c-2.1,0.2-3.9,1.2-5.3,3l-1.6,2.1c-0.3-1.9-1.4-3.7-2.9-4.9c0,0,0,0,0,0c-1.5-1.2-3.5-1.7-5.3-1.6     c-2.1,0.2-3.9,1.2-5.3,3L72.2,109l3.5-9.6c2-5.6-1.3-10.6-5.7-12.2c-2.3-0.8-2.4-0.9-2.4-0.9c0,0,0,0-0.8-0.3     c-0.3-0.1-0.6-0.1-0.9,0c-0.3,0.1-0.5,0.4-0.6,0.7l-10.9,30c0,0,0,0,0,0c-4.7,13.1-0.6,27.8,10.1,36.5c0,0,0,0,0,0.1     C78.8,164.3,99.5,161.6,110.5,147.1C110.5,147.1,110.5,147.1,110.5,147.1z M70.2,115.4l29-37.9c1.2-1.6,2.6-2,3.6-2.1     c1.3-0.1,2.7,0.3,3.7,1.1c0,0,0,0,0,0c2,1.5,3,4.6,1,7.3l-23,30.1c-0.4,0.5-0.3,1.2,0.2,1.6c0.5,0.4,1.2,0.3,1.6-0.2l23-30.1     c0,0,0,0,0,0l4.9-6.4c1.2-1.6,2.6-2,3.6-2.1c1.3-0.1,2.7,0.3,3.7,1.1c2.1,1.5,3.1,4.7,1,7.4l-2.6,3.4l-25.1,32.8     c-0.4,0.5-0.3,1.2,0.2,1.6c0.5,0.4,1.2,0.3,1.6-0.2l25.1-32.8c1.2-1.6,2.6-2,3.6-2.1c1.3-0.1,2.7,0.3,3.7,1.1c0,0,0,0,0,0     c2,1.5,3,4.6,1,7.4l-8.4,10.9c0,0,0,0,0,0l-17,22.2c-0.4,0.5-0.3,1.2,0.2,1.6c0.5,0.4,1.2,0.3,1.6-0.2l17-22.2     c1.2-1.5,2.6-2,3.6-2.1c1.3-0.1,2.7,0.3,3.7,1.1c0,0,0,0,0,0c2,1.5,3.1,4.7,1,7.4l-23.4,30.6c0,0,0,0,0,0.1     c-10.2,13.3-29.4,15.9-42.7,5.7c0,0,0,0,0,0c-10.1-8.2-13.8-21.9-9.4-34.1c0,0,0,0,0,0L67,88.5c0.3,0.1,0.9,0.3,2.2,0.8     c3.3,1.2,6,4.9,4.4,9.3l-6.1,16.7c0,0,0,0,0,0.1c0,0-0.2,1.3,1,1.4C69.6,116.9,70.2,115.4,70.2,115.4z"
           id="path347" /></g></g></g></svg>