<?xml version="1.0" encoding="UTF-8" standalone="no"?>
<!-- Generator: Adobe Illustrator 19.2.1, SVG Export Plug-In . SVG Version: 6.00 Build 0)  -->

<svg
   xmlns:dc="http://purl.org/dc/elements/1.1/"
   xmlns:cc="http://creativecommons.org/ns#"
   xmlns:rdf="http://www.w3.org/1999/02/22-rdf-syntax-ns#"
   xmlns:svg="http://www.w3.org/2000/svg"
   xmlns="http://www.w3.org/2000/svg"
   xmlns:sodipodi="http://sodipodi.sourceforge.net/DTD/sodipodi-0.dtd"
   xmlns:inkscape="http://www.inkscape.org/namespaces/inkscape"
   version="1.1"
   id="Layer_1"
   x="0px"
   y="0px"
   viewBox="0 0 80 80"
   style="enable-background:new 0 0 80 80;"
   xml:space="preserve"
   inkscape:version="0.91 r13725"
   sodipodi:docname="mini.svg"><metadata
     id="metadata4191"><rdf:RDF><cc:Work
         rdf:about=""><dc:format>image/svg+xml</dc:format><dc:type
           rdf:resource="http://purl.org/dc/dcmitype/StillImage" /></cc:Work></rdf:RDF></metadata><defs
     id="defs4189" /><sodipodi:namedview
     pagecolor="#ffffff"
     bordercolor="#666666"
     borderopacity="1"
     objecttolerance="10"
     gridtolerance="10"
     guidetolerance="10"
     inkscape:pageopacity="0"
     inkscape:pageshadow="2"
     inkscape:window-width="2560"
     inkscape:window-height="1335"
     id="namedview4187"
     showgrid="false"
     inkscape:zoom="8"
     inkscape:cx="40"
     inkscape:cy="40"
     inkscape:window-x="0"
     inkscape:window-y="56"
     inkscape:window-maximized="1"
     inkscape:current-layer="Layer_1" /><style
     type="text/css"
     id="style4137">
	.st0{fill:#FFFFFF;}
	.st1{fill:none;stroke:#646565;stroke-miterlimit:10;}
	.st2{fill:none;stroke:#646565;stroke-miterlimit:10;stroke-dasharray:1.173,1.173;}
</style><g
     id="g4139"
     transform="matrix(1.2,0,0,1.2,-8.01,-8)"><path
       class="st0"
       d="m 40,33.8 c -2.4,0 -4.6,1 -6.2,2.5 0,0 -0.1,0.1 -0.1,0.1 l 0,9.6 c 0,0.1 0.1,0.2 0.2,0.2 l 12.1,0 c 0.1,0 0.2,-0.1 0.2,-0.2 l 0,-9.6 c 0,-0.1 0,-0.1 -0.1,-0.1 -1.5,-1.6 -3.7,-2.5 -6.1,-2.5 z"
       id="path4141"
       inkscape:connector-curvature="0"
       style="fill:#ffffff" /><g
       id="g4143"><g
         id="g4145"><line
           class="st1"
           x1="33.799999"
           y1="40.599998"
           x2="34.299999"
           y2="40.599998"
           id="line4147"
           style="fill:none;stroke:#646565;stroke-miterlimit:10" /><polyline
           class="st1"
           points="34.8,40.6 35.3,40.6 35.3,41.1    "
           id="polyline4149"
           style="fill:none;stroke:#646565;stroke-miterlimit:10" /><line
           class="st2"
           x1="35.299999"
           y1="42.200001"
           x2="35.299999"
           y2="44"
           id="line4151"
           style="fill:none;stroke:#646565;stroke-miterlimit:10;stroke-dasharray:1.173, 1.173" /><polyline
           class="st1"
           points="35.3,44.6 35.3,45.1 34.8,45.1    "
           id="polyline4153"
           style="fill:none;stroke:#646565;stroke-miterlimit:10" /><line
           class="st1"
           x1="34.299999"
           y1="45.099998"
           x2="33.799999"
           y2="45.099998"
           id="line4155"
           style="fill:none;stroke:#646565;stroke-miterlimit:10" /></g></g><g
       id="g4157"><g
         id="g4159"><line
           class="st1"
           x1="46.299999"
           y1="45.099998"
           x2="45.799999"
           y2="45.099998"
           id="line4161"
           style="fill:none;stroke:#646565;stroke-miterlimit:10" /><polyline
           class="st1"
           points="45.3,45.1 44.8,45.1 44.8,44.6    "
           id="polyline4163"
           style="fill:none;stroke:#646565;stroke-miterlimit:10" /><line
           class="st2"
           x1="44.799999"
           y1="43.400002"
           x2="44.799999"
           y2="41.599998"
           id="line4165"
           style="fill:none;stroke:#646565;stroke-miterlimit:10;stroke-dasharray:1.173, 1.173" /><polyline
           class="st1"
           points="44.8,41.1 44.8,40.6 45.3,40.6    "
           id="polyline4167"
           style="fill:none;stroke:#646565;stroke-miterlimit:10" /><line
           class="st1"
           x1="45.799999"
           y1="40.599998"
           x2="46.299999"
           y2="40.599998"
           id="line4169"
           style="fill:none;stroke:#646565;stroke-miterlimit:10" /></g></g></g><polygon
     class="st0"
     points="40,16.5 37.6,20.7 39,20.7 39,27.3 41.1,27.3 41.1,20.7 42.5,20.7 "
     id="polygon4171"
     transform="matrix(1.2,0,0,1.2,-8.01,-8)"
     style="fill:#ffffff" /><polygon
     class="st0"
     points="41.1,52.7 39,52.7 39,59.3 37.6,59.3 40,63.5 42.5,59.3 41.1,59.3 "
     id="polygon4173"
     transform="matrix(1.2,0,0,1.2,-8.01,-8)"
     style="fill:#ffffff" /><path
     class="st0"
     d="m 69.51,40.12 c 0,-3.72 -3.12,-6.84 -6.84,-6.84 -3.72,0 -6.84,3.12 -6.84,6.84 l 2.4,0 c 0,-2.4 2.04,-4.44 4.44,-4.44 2.4,0 4.44,2.04 4.44,4.44 0,2.16 -1.56,3.96 -3.6,4.32 l 0,-1.68 -5.04,2.88 5.04,2.88 0,-1.8 c 3.36,-0.24 6,-3.12 6,-6.6 z"
     id="path4175"
     inkscape:connector-curvature="0"
     style="fill:#ffffff" /><path
     class="st0"
     d="m 17.43,36.16 c 2.4,0 4.44,2.04 4.44,4.44 l 2.4,0 c 0,-3.72 -3.12,-6.84 -6.84,-6.84 -3.72,0 -6.84,3.12 -6.84,6.84 0,3.48 2.64,6.36 6,6.72 l 0,1.8 5.04,-2.88 -5.04,-2.88 0,1.68 c -2.04,-0.36 -3.6,-2.16 -3.6,-4.32 0.12,-2.52 2.04,-4.56 4.44,-4.56 z"
     id="path4177"
     inkscape:connector-curvature="0"
     style="fill:#ffffff" /><path
     class="st0"
     d="m 58.47,19.96 -5.64,1.56 1.2,1.2 -0.48,0.48 c -1.8,1.8 -2.88,4.32 -2.88,6.84 l 0,2.4 2.4,0 0,-2.4 c 0,-1.92 0.72,-3.84 2.16,-5.16 l 0.6,-0.6 1.2,1.2 1.44,-5.52 z"
     id="path4179"
     inkscape:connector-curvature="0"
     style="fill:#ffffff" /><path
     class="st0"
     d="m 26.67,23.08 -0.6,-0.6 1.2,-1.2 -5.64,-1.56 1.56,5.64 1.2,-1.2 0.6,0.6 c 1.32,1.32 2.16,3.24 2.16,5.16 l 0,2.4 2.4,0 0,-2.4 c 0,-2.52 -1.08,-5.04 -2.88,-6.84 z"
     id="path4181"
     inkscape:connector-curvature="0"
     style="fill:#ffffff" /><path
     class="st0"
     d="m 30.39,51.04 0,-2.4 -2.4,0 0,2.4 c 0,1.92 -0.72,3.84 -2.16,5.16 l -0.6,0.6 -1.2,-1.2 -1.56,5.64 5.64,-1.56 -1.2,-1.2 0.6,-0.6 c 1.8,-1.8 2.88,-4.2 2.88,-6.84 z"
     id="path4183"
     inkscape:connector-curvature="0"
     style="fill:#ffffff" /><path
     class="st0"
     d="m 57.75,61 -1.56,-5.64 -1.2,1.2 -0.6,-0.48 c -1.32,-1.32 -2.16,-3.24 -2.16,-5.16 l 0,-2.4 -2.4,0 0,2.4 c 0,2.64 0.96,5.04 2.88,6.84 l 0.6,0.6 -1.2,1.2 5.64,1.44 z"
     id="path4185"
     inkscape:connector-curvature="0"
     style="fill:#ffffff" /></svg>