<?xml version="1.0" encoding="utf-8"?>
<!-- Generator: Adobe Illustrator 23.0.1, SVG Export Plug-In . SVG Version: 6.00 Build 0)  -->
<svg version="1.1" id="Calque_1" xmlns="http://www.w3.org/2000/svg" xmlns:xlink="http://www.w3.org/1999/xlink" x="0px" y="0px"
	 viewBox="0 0 1024 1024" style="enable-background:new 0 0 1024 1024;" xml:space="preserve">
<style type="text/css">
	.st0{fill:#FFFFFF;}
	.st1{fill:url(#ID0.35181407257914543_2_);}
</style>
<g>
	<path class="st0" d="M834.7,462.7c0.1-0.4,0.1-0.8,0.2-1.3c2.1-17.2,8.2-183.9,9.1-209.5l0,0l0.1-5C844.7,116.5,739.1,9.3,609,7.8
		l-2.8,0c-41.7,0-82,10.7-117.4,30.9c-2.3,0-4.5-0.1-6.8-0.1c0,0,0,0,0,0c-113.9,0-209.2,56.8-261.6,155.8
		c-31.3,59.2-38.7,119.2-42.8,152l-1,7.9c-5.4,42.3-5.5,82.5-0.4,120.1C159,507.3,149.6,544,149.2,582c-0.1,7.9-1,57.2-2.5,84.3
		c-3.2,57.4-1.1,108.3-0.1,127.5l0.3,4.4c8.7,124.2,113,221.5,237.4,221.5c5.2,0,10.5-0.2,15.3-0.5c48.6-3.1,95-21.4,132.6-51.2
		c81.9-2.5,161.1-33.2,223.9-87c77.9-66.7,122-161.3,121-259.7C876.5,563.7,862,509.9,834.7,462.7z"/>
	<g>
		<path id="ID0.35181407257914543_3_" class="st0" d="M485.2,485.7c-33.9-5.3-51.9-27.9-42.9-98.1l1.1-8.5
			c7.5-61.1,14-74.4,43.1-72.9c8.7,0.5,18.6,5.9,28.6,14.1c9,10.6,29.5,24.3,40.8,51.6c8.3,19.9,11.1,32.9,12.1,46.8
			c0.1,0.5,2,17.2,2,17.2l0,0c2.3,11.7,11.4,21.3,23.8,23.5c16,2.9,31.4-7.8,34.3-23.8c0.2-1.8,7.6-186.6,7.6-189.7
			c0.1-16.3-13-29.5-29.3-29.7c-16.4,0-29.7,13.1-29.8,29.5c0,0.3-0.2,25.7-0.6,51.5c-23.2-25.3-53.1-48-86.3-49.9
			c-89.5-4.9-99.2,77.3-105,124.7l-1,8.3c-11.9,93.4,19.3,152.5,92.5,163.9c79.7,12.6,132.9,30.9,133.4,79.9
			c0.2,18.9-9.7,38.5-27.4,53.6c-21,18-49.3,26-75.8,21.6c-8.2-1.3-16-3.4-23.3-6c-10.6-5.8-36.8-21.7-50.2-40.2
			c-11.3-15.6-15.1-40.1-16.4-55.6c0.2-6.9,0.2-11.5,0.3-12.1c0.2-16.2-12.8-29.6-29.1-29.9c-16.3-0.3-29.8,12.7-30,29.1
			c0,0.6-0.9,58.4-2.8,93.3c-3.1,56.1-0.1,103.7,0,105.7c1.1,16.3,15.1,28.7,31.4,27.6c16.4-1,28.7-15.1,27.7-31.4
			c0-0.4-1.5-23.3-1.3-55.3c21.6,13.9,49.9,27.4,84.1,33.2c44.1,7.4,89.2-5.3,123.9-35c30.9-26.5,48.5-62.6,48.1-99.1
			C667.5,514.3,544.5,495.1,485.2,485.7z"/>
		
			<linearGradient id="ID0.35181407257914543_2_" gradientUnits="userSpaceOnUse" x1="511.0614" y1="124.6899" x2="511.0614" y2="902.7957">
			<stop  offset="0.4359" style="stop-color:#F8AE44"/>
			<stop  offset="1" style="stop-color:#F7A134"/>
		</linearGradient>
		<path id="ID0.35181407257914543_1_" class="st1" d="M606.3,216.2C606.3,216.2,606.3,216.2,606.3,216.2
			c16.3,0.2,29.5,13.4,29.4,29.7c0,3.1-7.4,187.9-7.6,189.7c-2.6,14.3-15.1,24.3-29.1,24.3c-1.7,0-3.5-0.2-5.2-0.5
			c-12.4-2.2-21.5-11.8-23.8-23.5c0,0-1.9-16.7-2-17.2c-1-14-3.9-26.9-12.1-46.8c-11.3-27.3-31.9-41-40.8-51.6
			c-10-8.1-19.9-13.5-28.6-14.1c-1.4-0.1-2.7-0.1-4-0.1c-25.7,0-31.9,14.9-39.1,73l-1.1,8.5c-8.9,70.2,9,92.8,42.9,98.1
			c59.3,9.4,182.3,28.6,183.5,137.8c0.4,36.5-17.2,72.6-48.1,99.1c-28.2,24.2-63.4,37.1-99.2,37.1c-8.2,0-16.5-0.7-24.7-2
			c-34.2-5.8-62.5-19.3-84.1-33.2c-0.2,32,1.3,54.9,1.3,55.3c1,16.3-11.3,30.3-27.7,31.4c-0.7,0-1.3,0.1-2,0.1
			c-15.5,0-28.4-12-29.5-27.7c-0.1-2-3.1-49.6,0-105.7c1.9-34.9,2.8-92.7,2.8-93.3c0.2-16.2,13.4-29.2,29.5-29.2c0.2,0,0.4,0,0.6,0
			c16.3,0.3,29.3,13.7,29.2,29.9c0,0.6-0.1,5.2-0.3,12.1c1.3,15.5,5.1,40,16.4,55.6c13.3,18.5,39.6,34.4,50.2,40.2
			c7.3,2.6,15.1,4.7,23.3,6c4.8,0.8,9.6,1.2,14.5,1.2c22,0,44.1-8,61.3-22.8c17.6-15.1,27.5-34.6,27.4-53.6
			c-0.5-49.1-53.7-67.4-133.4-79.9c-73.2-11.5-104.4-70.5-92.5-163.9l1-8.3c5.7-46,15-124.9,97.5-124.9c2.4,0,5,0.1,7.5,0.2
			c33.2,1.9,63.2,24.6,86.3,49.9c0.5-25.7,0.6-51.1,0.6-51.5C576.7,229.3,589.9,216.2,606.3,216.2 M606.3,124.7L606.3,124.7
			c-33.1,0-63.1,13.3-85,34.8c-9.6-2.1-18.5-3.2-26.5-3.6c-4.3-0.2-8.6-0.4-12.7-0.4c0,0,0,0,0,0c-70.1,0-126.3,33.2-158.2,93.5
			c-21.3,40.2-26.5,82.8-30,111l-0.1,0.7l-1,8.3c-6.6,51.8-2.7,95.1,8.6,130.7c-21.5,21.6-34.9,51.2-35.3,83.8c0,0,0,0,0,0l0,0
			c-0.1,8.8-1,59.5-2.7,89.2c-2.9,51.8-1,97.5-0.1,114.8l0,0.4c0,0.7,0.1,1.4,0.1,2.1c4.4,63.2,57.5,112.8,120.8,112.8
			c2.6,0,5.3-0.1,8-0.3c39.1-2.5,72.8-23.5,93-54c12,1.8,24.1,2.7,36.1,2.7c57.9,0,114.3-21,158.8-59.1
			c51.5-44.1,80.7-105.9,80.1-169.6c-0.6-53.4-19.1-100.3-53.3-137.3c5.2-10.3,9.1-21.5,11.2-33.4c0.3-1.6,0.5-3.3,0.8-5
			c1.3-10.3,8.3-198.4,8.3-199.9c0-0.2,0-0.5,0-0.7c0.3-66.3-53.4-120.9-119.8-121.6C607.1,124.7,606.7,124.7,606.3,124.7
			L606.3,124.7z"/>
	</g>
</g>
</svg>
