<?xml version="1.0" encoding="UTF-8" standalone="no"?>
<!-- Generator: Adobe Illustrator 19.2.1, SVG Export Plug-In . SVG Version: 6.00 Build 0)  -->

<svg
   xmlns:dc="http://purl.org/dc/elements/1.1/"
   xmlns:cc="http://creativecommons.org/ns#"
   xmlns:rdf="http://www.w3.org/1999/02/22-rdf-syntax-ns#"
   xmlns:svg="http://www.w3.org/2000/svg"
   xmlns="http://www.w3.org/2000/svg"
   xmlns:sodipodi="http://sodipodi.sourceforge.net/DTD/sodipodi-0.dtd"
   xmlns:inkscape="http://www.inkscape.org/namespaces/inkscape"
   version="1.1"
   id="Layer_1"
   x="0px"
   y="0px"
   viewBox="82.2 81.2 91.6 91.5"
   style="enable-background:new 0 0 256 256;"
   xml:space="preserve"
   inkscape:version="0.91 r13725"
   sodipodi:docname="edit-stop-off.svg"><metadata
     id="metadata53"><rdf:RDF><cc:Work
         rdf:about=""><dc:format>image/svg+xml</dc:format><dc:type
           rdf:resource="http://purl.org/dc/dcmitype/StillImage" /><dc:title></dc:title></cc:Work></rdf:RDF></metadata><defs
     id="defs51" /><sodipodi:namedview
     pagecolor="#ffffff"
     bordercolor="#666666"
     borderopacity="1"
     objecttolerance="10"
     gridtolerance="10"
     guidetolerance="10"
     inkscape:pageopacity="0"
     inkscape:pageshadow="2"
     inkscape:window-width="2454"
     inkscape:window-height="1308"
     id="namedview49"
     showgrid="false"
     inkscape:zoom="2.579235"
     inkscape:cx="-41.241314"
     inkscape:cy="45.75"
     inkscape:window-x="0"
     inkscape:window-y="56"
     inkscape:window-maximized="0"
     inkscape:current-layer="Layer_1" /><style
     type="text/css"
     id="style3">
	.st0{opacity:0.8;}
	.st1{fill:#FFFFFF;}
	.st2{fill:none;stroke:#646665;stroke-width:2;stroke-miterlimit:10;}
	.st3{fill:none;stroke:#646665;stroke-width:2;stroke-miterlimit:10;stroke-dasharray:1.7096,1.7096;}
	.st4{fill:none;stroke:#646665;stroke-width:2;stroke-miterlimit:10;stroke-dasharray:2.0355,2.0355;}
	.st5{fill:#EA2127;}
</style><g
     class="st0"
     id="g5"><path
       class="st1"
       d="M128,82.2c-17.3,0-32.9,6.9-44.4,18.1c-0.3,0.3-0.4,0.6-0.4,1v69c0,0.8,0.6,1.4,1.4,1.4h86.8   c0.8,0,1.4-0.6,1.4-1.4v-69c0-0.4-0.2-0.7-0.4-1C160.9,89.1,145.3,82.2,128,82.2z"
       id="path7" /><g
       id="g9"><g
         id="g11"><line
           class="st2"
           x1="83.2"
           y1="131"
           x2="84.2"
           y2="131"
           id="line13" /><line
           class="st3"
           x1="85.9"
           y1="131"
           x2="91.9"
           y2="131"
           id="line15" /><polyline
           class="st2"
           points="92.7,131 93.7,131 93.7,132    "
           id="polyline17" /><line
           class="st4"
           x1="93.7"
           y1="134.1"
           x2="93.7"
           y2="161.5"
           id="line19" /><polyline
           class="st2"
           points="93.7,162.6 93.7,163.6 92.7,163.6    "
           id="polyline21" /><line
           class="st3"
           x1="91"
           y1="163.6"
           x2="85.1"
           y2="163.6"
           id="line23" /><line
           class="st2"
           x1="84.2"
           y1="163.6"
           x2="83.2"
           y2="163.6"
           id="line25" /></g></g><g
       id="g27"><g
         id="g29"><line
           class="st2"
           x1="172.8"
           y1="163.6"
           x2="171.8"
           y2="163.6"
           id="line31" /><line
           class="st3"
           x1="170.1"
           y1="163.6"
           x2="164.1"
           y2="163.6"
           id="line33" /><polyline
           class="st2"
           points="163.2,163.6 162.2,163.6 162.2,162.6    "
           id="polyline35" /><line
           class="st4"
           x1="162.2"
           y1="160.5"
           x2="162.2"
           y2="133.1"
           id="line37" /><polyline
           class="st2"
           points="162.2,132 162.2,131 163.2,131    "
           id="polyline39" /><line
           class="st3"
           x1="164.9"
           y1="131"
           x2="170.9"
           y2="131"
           id="line41" /><line
           class="st2"
           x1="171.8"
           y1="131"
           x2="172.8"
           y2="131"
           id="line43" /></g></g></g><circle
     class="st1"
     cx="128"
     cy="126.8"
     r="20"
     id="circle45"
     style="opacity:0.3" /><rect
     x="119.9"
     y="118.7"
     class="st5"
     width="16.1"
     height="16.1"
     id="rect47"
     style="opacity:0.3" /></svg>