<?xml version="1.0" encoding="UTF-8" standalone="no"?>
<!-- Generator: Adobe Illustrator 19.2.1, SVG Export Plug-In . SVG Version: 6.00 Build 0)  -->

<svg
   xmlns:dc="http://purl.org/dc/elements/1.1/"
   xmlns:cc="http://creativecommons.org/ns#"
   xmlns:rdf="http://www.w3.org/1999/02/22-rdf-syntax-ns#"
   xmlns:svg="http://www.w3.org/2000/svg"
   xmlns="http://www.w3.org/2000/svg"
   xmlns:sodipodi="http://sodipodi.sourceforge.net/DTD/sodipodi-0.dtd"
   xmlns:inkscape="http://www.inkscape.org/namespaces/inkscape"
   version="1.1"
   id="Layer_1"
   x="0px"
   y="0px"
   viewBox="0 0 80 80"
   style="enable-background:new 0 0 80 80;"
   xml:space="preserve"
   inkscape:version="0.91 r13725"
   sodipodi:docname="mini-frontRight.svg"><metadata
     id="metadata5574"><rdf:RDF><cc:Work
         rdf:about=""><dc:format>image/svg+xml</dc:format><dc:type
           rdf:resource="http://purl.org/dc/dcmitype/StillImage" /></cc:Work></rdf:RDF></metadata><defs
     id="defs5572" /><sodipodi:namedview
     pagecolor="#ffffff"
     bordercolor="#666666"
     borderopacity="1"
     objecttolerance="10"
     gridtolerance="10"
     guidetolerance="10"
     inkscape:pageopacity="0"
     inkscape:pageshadow="2"
     inkscape:window-width="2560"
     inkscape:window-height="1335"
     id="namedview5570"
     showgrid="false"
     inkscape:zoom="14.0125"
     inkscape:cx="40"
     inkscape:cy="40"
     inkscape:window-x="0"
     inkscape:window-y="56"
     inkscape:window-maximized="1"
     inkscape:current-layer="Layer_1" /><style
     type="text/css"
     id="style5534">
	.st0{fill:#FFFFFF;}
	.st1{fill:none;stroke:#646565;stroke-miterlimit:10;}
	.st2{fill:none;stroke:#646565;stroke-miterlimit:10;stroke-dasharray:1.173,1.173;}
</style><g
     id="g5536"
     transform="matrix(1.2,0,0,1.2,-7.67,-8.29)"><path
       class="st0"
       d="m 28.9,44.1 c 2.4,0 4.6,1 6.2,2.5 0,0 0.1,0.1 0.1,0.1 l 0,9.6 c 0,0.1 -0.1,0.2 -0.2,0.2 l -12.1,0 c -0.1,0 -0.2,-0.1 -0.2,-0.2 l 0,-9.6 c 0,-0.1 0,-0.1 0.1,-0.1 1.6,-1.5 3.7,-2.5 6.1,-2.5 z"
       id="path5538"
       inkscape:connector-curvature="0"
       style="fill:#ffffff" /><g
       id="g5540"><g
         id="g5542"><line
           class="st1"
           x1="35.200001"
           y1="50.900002"
           x2="34.700001"
           y2="50.900002"
           id="line5544"
           style="fill:none;stroke:#646565;stroke-miterlimit:10" /><polyline
           class="st1"
           points="34.2,50.9 33.7,50.9 33.7,51.4    "
           id="polyline5546"
           style="fill:none;stroke:#646565;stroke-miterlimit:10" /><line
           class="st2"
           x1="33.700001"
           y1="52.5"
           x2="33.700001"
           y2="54.299999"
           id="line5548"
           style="fill:none;stroke:#646565;stroke-miterlimit:10;stroke-dasharray:1.173, 1.173" /><polyline
           class="st1"
           points="33.7,54.9 33.7,55.4 34.2,55.4    "
           id="polyline5550"
           style="fill:none;stroke:#646565;stroke-miterlimit:10" /><line
           class="st1"
           x1="34.700001"
           y1="55.400002"
           x2="35.200001"
           y2="55.400002"
           id="line5552"
           style="fill:none;stroke:#646565;stroke-miterlimit:10" /></g></g><g
       id="g5554"><g
         id="g5556"><line
           class="st1"
           x1="22.700001"
           y1="55.400002"
           x2="23.200001"
           y2="55.400002"
           id="line5558"
           style="fill:none;stroke:#646565;stroke-miterlimit:10" /><polyline
           class="st1"
           points="23.7,55.4 24.2,55.4 24.2,54.9    "
           id="polyline5560"
           style="fill:none;stroke:#646565;stroke-miterlimit:10" /><line
           class="st2"
           x1="24.200001"
           y1="53.700001"
           x2="24.200001"
           y2="52"
           id="line5562"
           style="fill:none;stroke:#646565;stroke-miterlimit:10;stroke-dasharray:1.173, 1.173" /><polyline
           class="st1"
           points="24.2,51.4 24.2,50.9 23.7,50.9    "
           id="polyline5564"
           style="fill:none;stroke:#646565;stroke-miterlimit:10" /><line
           class="st1"
           x1="23.200001"
           y1="50.900002"
           x2="22.700001"
           y2="50.900002"
           id="line5566"
           style="fill:none;stroke:#646565;stroke-miterlimit:10" /></g></g></g><path
     class="st0"
     d="m 45.97,31.31 1.32,-1.32 -3.12,-3.12 12.96,-3.48 -3.6,12.96 -3.12,-3.12 -1.32,1.32 c -3.24,3.24 -5.04,7.56 -5.04,12.24 l 0,5.4 -4.44,0 0,-5.4 c 0,-5.88 2.28,-11.4 6.36,-15.48 z"
     id="path5568"
     inkscape:connector-curvature="0"
     style="fill:#ffffff" /></svg>