<?xml version="1.0" encoding="utf-8"?>
<!-- Generator: Adobe Illustrator 22.1.0, SVG Export Plug-In . SVG Version: 6.00 Build 0)  -->
<svg version="1.1" id="Layer_1" xmlns="http://www.w3.org/2000/svg" xmlns:xlink="http://www.w3.org/1999/xlink" x="0px" y="0px"
	 viewBox="0 0 148.3 148.3" style="enable-background:new 0 0 148.3 148.3;" xml:space="preserve">
<style type="text/css">
	.st0{fill:#2292D1;}
	.st1{fill:#FFFFFF;}
</style>
<path class="st0" d="M147.3,148.3H1c-0.6,0-1-0.4-1-1V1c0-0.6,0.4-1,1-1h146.3c0.6,0,1,0.4,1,1v146.3
	C148.3,147.8,147.8,148.3,147.3,148.3z"/>
<path class="st1" d="M72.1,33.6H59.9c0,0-4.4-5.4-16.4-5.4s-17.3,5.4-17.3,5.4v9.9c0,0.1,0.1,0.2,0.2,0.2h6.7v0.6
	c0,0.5,0.4,0.9,0.9,0.9h2.5c0.5,0,0.9-0.4,0.9-0.9v-0.6h34.6c0.1,0,0.2-0.1,0.2-0.2v-9.7C72.3,33.8,72.2,33.6,72.1,33.6z"/>
<path class="st1" d="M26.3,46.5v64.1c0,0,0,0.1,0.1,0.1h34.3c0,0,0.1,0,0.1-0.1v-6.9c0,0,0-0.1-0.1-0.1h-28c0,0-0.1,0-0.1-0.1V55.4
	c0,0,0-0.1,0.1-0.1h28c0,0,0.1,0,0.1-0.1v-8.7c0,0,0-0.1-0.1-0.1h-23c-0.1,0-0.2,0.1-0.2,0.2V47c0,0.5-0.4,0.9-0.9,0.9h-2.5
	c-0.5,0-0.9-0.4-0.9-0.9v-0.4c0-0.1-0.1-0.2-0.2-0.2h-6.5C26.4,46.4,26.3,46.4,26.3,46.5z"/>
<g>
	<circle class="st1" cx="60.9" cy="85" r="15.2"/>
	<path class="st1" d="M120.5,60.6H39.8c-1.1,0-2,0.9-2,2v27.6c0,1.1,0.9,2,2,2h3.8v-7.9c0-9.7,7.8-17.5,17.5-17.5
		s17.5,7.8,17.5,17.5v7.9h41.8c1.1,0,2-0.9,2-2V62.6C122.5,61.5,121.6,60.6,120.5,60.6z"/>
</g>
</svg>
