<?xml version="1.0" encoding="UTF-8" standalone="no"?>
<svg
   xmlns:dc="http://purl.org/dc/elements/1.1/"
   xmlns:cc="http://creativecommons.org/ns#"
   xmlns:rdf="http://www.w3.org/1999/02/22-rdf-syntax-ns#"
   xmlns:svg="http://www.w3.org/2000/svg"
   xmlns="http://www.w3.org/2000/svg"
   xmlns:sodipodi="http://sodipodi.sourceforge.net/DTD/sodipodi-0.dtd"
   xmlns:inkscape="http://www.inkscape.org/namespaces/inkscape"
   version="1.1"
   id="Calque_1"
   x="0px"
   y="0px"
   viewBox="0 0 1024 1024"
   style="enable-background:new 0 0 1024 1024;"
   xml:space="preserve"
   sodipodi:docname="launcher-icon-other.svg"
   inkscape:version="1.0.1 (3bc2e813f5, 2020-09-07)"><metadata
   id="metadata17"><rdf:RDF><cc:Work
       rdf:about=""><dc:format>image/svg+xml</dc:format><dc:type
         rdf:resource="http://purl.org/dc/dcmitype/StillImage" /><dc:title /></cc:Work></rdf:RDF></metadata><defs
   id="defs15"><rect
     x="40.889074"
     y="347.55712"
     width="625.26208"
     height="221.48248"
     id="rect844" /></defs><sodipodi:namedview
   pagecolor="#ffffff"
   bordercolor="#666666"
   borderopacity="1"
   objecttolerance="10"
   gridtolerance="10"
   guidetolerance="10"
   inkscape:pageopacity="0"
   inkscape:pageshadow="2"
   inkscape:window-width="1680"
   inkscape:window-height="987"
   id="namedview13"
   showgrid="false"
   inkscape:zoom="0.58695387"
   inkscape:cx="770.11228"
   inkscape:cy="512"
   inkscape:window-x="1912"
   inkscape:window-y="-8"
   inkscape:window-maximized="1"
   inkscape:current-layer="Calque_1"
   inkscape:document-rotation="0"
   inkscape:snap-grids="false" />
<style
   type="text/css"
   id="style2">
	.st0{fill:#2292D1;}
	.st1{fill:#FFFFFF;}
</style>
<path
   class="st0"
   d="M1023.52,1024.25H1.27c-0.55,0-1-0.45-1-1V1c0-0.55,0.45-1,1-1h1022.25c0.55,0,1,0.45,1,1v1022.25  C1024.52,1023.8,1024.08,1024.25,1023.52,1024.25z"
   id="path4" />

<g
   aria-label="OTHER"
   transform="matrix(1.3488001,0,0,1.3488001,43.436701,-93.731241)"
   id="text842"
   style="font-style:normal;font-variant:normal;font-weight:normal;font-stretch:normal;font-size:192px;line-height:1.25;font-family:'DejaVu Sans';-inkscape-font-specification:'DejaVu Sans';letter-spacing:0px;word-spacing:0px;white-space:pre;shape-inside:url(#rect844);fill:#ffffff;fill-opacity:1;stroke:none"><path
     d="m 165.20117,452.27539 q 0,20.15625 -7.125,35.34375 -7.125,15.1875 -20.4375,23.4375 -13.21875,8.25 -30.375,8.25 -16.968748,0 -30.281248,-8.15625 -13.3125,-8.15625 -20.625,-23.25 -7.3125,-15.1875 -7.40625,-34.875 v -6.75 q 0,-20.15625 7.21875,-35.4375 7.3125,-15.375 20.53125,-23.53125 13.3125,-8.25 30.374998,-8.25 17.0625,0 30.28125,8.25 13.3125,8.15625 20.53125,23.53125 7.3125,15.28125 7.3125,35.34375 z m -28.5,-6.1875 q 0,-21.46875 -7.6875,-32.625 -7.6875,-11.15625 -21.9375,-11.15625 -14.156248,0 -21.843748,11.0625 -7.6875,10.96875 -7.78125,32.25 v 6.65625 q 0,20.90625 7.6875,32.4375 7.6875,11.53125 22.124998,11.53125 14.15625,0 21.75,-11.0625 7.59375,-11.15625 7.6875,-32.4375 z"
     style="font-style:normal;font-variant:normal;font-weight:bold;font-stretch:normal;font-size:192px;font-family:Roboto;-inkscape-font-specification:'Roboto Bold';fill:#ffffff"
     id="path14" /><path
     d="m 280.41992,403.71289 h -41.8125 v 113.71875 h -28.125 V 403.71289 h -41.25 v -22.78125 h 111.1875 z"
     style="font-style:normal;font-variant:normal;font-weight:bold;font-stretch:normal;font-size:192px;font-family:Roboto;-inkscape-font-specification:'Roboto Bold';fill:#ffffff"
     id="path16" /><path
     d="m 407.54492,517.43164 h -28.125 v -58.5 h -54.84375 v 58.5 h -28.125 v -136.5 h 28.125 v 55.3125 h 54.84375 v -55.3125 h 28.125 z"
     style="font-style:normal;font-variant:normal;font-weight:bold;font-stretch:normal;font-size:192px;font-family:Roboto;-inkscape-font-specification:'Roboto Bold';fill:#ffffff"
     id="path18" /><path
     d="m 514.23242,458.27539 h -54 v 36.5625 h 63.375 v 22.59375 h -91.5 v -136.5 h 91.3125 v 22.78125 h -63.1875 v 32.53125 h 54 z"
     style="font-style:normal;font-variant:normal;font-weight:bold;font-stretch:normal;font-size:192px;font-family:Roboto;-inkscape-font-specification:'Roboto Bold';fill:#ffffff"
     id="path20" /><path
     d="m 590.63867,467.46289 h -22.40625 v 49.96875 h -28.125 v -136.5 h 50.71875 q 24.1875,0 37.3125,10.78125 13.125,10.78125 13.125,30.46875 0,13.96875 -6.09375,23.34375 -6,9.28125 -18.28125,14.8125 l 29.53125,55.78125 v 1.3125 h -30.1875 z m -22.40625,-22.78125 h 22.6875 q 10.59375,0 16.40625,-5.34375 5.8125,-5.4375 5.8125,-14.90625 0,-9.65625 -5.53125,-15.1875 -5.4375,-5.53125 -16.78125,-5.53125 h -22.59375 z"
     style="font-style:normal;font-variant:normal;font-weight:bold;font-stretch:normal;font-size:192px;font-family:Roboto;-inkscape-font-specification:'Roboto Bold';fill:#ffffff"
     id="path22" /></g></svg>
