<svg id="Layer_1" data-name="Layer 1" xmlns="http://www.w3.org/2000/svg" xmlns:xlink="http://www.w3.org/1999/xlink" viewBox="0 0 1024 1024"><defs><style>.cls-1{fill:#bfbebe;}.cls-2{fill:url(#foo);}.cls-3{fill:url(#bar);}</style><linearGradient id="foo" x1="8" y1="481.13" x2="1017.41" y2="481.13" gradientUnits="userSpaceOnUse"><stop offset="0" stop-color="#e9e9e9"/><stop offset="0.18" stop-color="#e3e3e3"/><stop offset="0.52" stop-color="#dbdbdb"/><stop offset="0.86" stop-color="#e4e4e4"/><stop offset="1" stop-color="#e9e9e9"/></linearGradient><linearGradient id="bar" x1="97.14" y1="548.18" x2="492.23" y2="548.18" xlink:href="#foo"/></defs><title>Artboard 1</title><ellipse class="cls-1" cx="858.41" cy="694.33" rx="77.89" ry="70.67"/><rect class="cls-2" x="8" y="270.33" width="1009.41" height="421.59" rx="18.85" ry="18.85"/><circle class="cls-3" cx="294.68" cy="548.18" r="197.55"/><path d="M294.68,765C175.13,765,77.86,667.73,77.86,548.18s97.27-216.82,216.82-216.82S511.5,428.63,511.5,548.18,414.24,765,294.68,765Zm0-395.09c-98.3,0-178.27,80-178.27,178.27s80,178.27,178.27,178.27S473,646.48,473,548.18,393,369.91,294.68,369.91Z"/><rect x="731.94" y="438.97" width="108.41" height="53" rx="5.62" ry="5.62"/><path d="M1017.41,439H970a6.84,6.84,0,0,0-6.83,6.82v39.35A6.85,6.85,0,0,0,970,492h47.37Z"/></svg>