<?xml version="1.0" encoding="utf-8"?>
<!-- Generator: Adobe Illustrator 23.0.1, SVG Export Plug-In . SVG Version: 6.00 Build 0)  -->
<svg version="1.1" id="Calque_1" xmlns="http://www.w3.org/2000/svg" xmlns:xlink="http://www.w3.org/1999/xlink" x="0px" y="0px"
	 viewBox="0 0 1024 1024" style="enable-background:new 0 0 1024 1024;" xml:space="preserve">
<style type="text/css">
	.st0{fill:#2292D1;}
	.st1{fill:#FFFFFF;}
</style>
<path class="st0" d="M1023.52,1024.25H1.27c-0.55,0-1-0.45-1-1V1c0-0.55,0.45-1,1-1h1022.25c0.55,0,1,0.45,1,1v1022.25
	C1024.52,1023.8,1024.08,1024.25,1023.52,1024.25z"/>
<g>
	<circle class="st1" cx="369.95" cy="539.08" r="112.15"/>
	<path class="st1" d="M811.17,358.48H213.63c-8.01,0-14.57,6.56-14.57,14.57v204.42c0,8.01,6.56,14.57,14.57,14.57h28.44v-58.51
		c0-71.65,58.08-129.73,129.73-129.73s129.73,58.08,129.73,129.73v58.51h309.64c8.01,0,14.57-6.56,14.57-14.57V373.04
		C825.74,365.03,819.18,358.48,811.17,358.48z"/>
</g>
</svg>
