<?xml version="1.0" encoding="utf-8"?>
<!-- Generator: Adobe Illustrator 19.2.1, SVG Export Plug-In . SVG Version: 6.00 Build 0)  -->
<svg version="1.1" id="Layer_1" xmlns="http://www.w3.org/2000/svg" xmlns:xlink="http://www.w3.org/1999/xlink" x="0px" y="0px"
	 viewBox="0 0 80 80" style="enable-background:new 0 0 80 80;" xml:space="preserve">
<style type="text/css">
	.st0{fill:#FFFFFF;}
	.st1{fill:none;stroke:#646565;stroke-miterlimit:10;}
	.st2{fill:none;stroke:#646565;stroke-miterlimit:10;stroke-dasharray:1.173,1.173;}
</style>
<g>
	<path class="st0" d="M40,46.7c-2.4,0-4.6,1-6.2,2.5c0,0-0.1,0.1-0.1,0.1v9.6c0,0.1,0.1,0.2,0.2,0.2h12.1c0.1,0,0.2-0.1,0.2-0.2
		v-9.6c0-0.1,0-0.1-0.1-0.1C44.6,47.7,42.4,46.7,40,46.7z"/>
	<g>
		<g>
			<line class="st1" x1="33.8" y1="53.5" x2="34.3" y2="53.5"/>
			<polyline class="st1" points="34.8,53.5 35.3,53.5 35.3,54 			"/>
			<line class="st2" x1="35.3" y1="55.1" x2="35.3" y2="56.9"/>
			<polyline class="st1" points="35.3,57.5 35.3,58 34.8,58 			"/>
			<line class="st1" x1="34.3" y1="58" x2="33.8" y2="58"/>
		</g>
	</g>
	<g>
		<g>
			<line class="st1" x1="46.3" y1="58" x2="45.8" y2="58"/>
			<polyline class="st1" points="45.3,58 44.8,58 44.8,57.5 			"/>
			<line class="st2" x1="44.8" y1="56.3" x2="44.8" y2="54.6"/>
			<polyline class="st1" points="44.8,54 44.8,53.5 45.3,53.5 			"/>
			<line class="st1" x1="45.8" y1="53.5" x2="46.3" y2="53.5"/>
		</g>
	</g>
</g>
<polygon class="st0" points="44.6,29.5 40,21.7 35.5,29.5 38.2,29.5 38.2,41.8 41.9,41.8 41.9,29.5 "/>
</svg>
