<?xml version="1.0" encoding="UTF-8" standalone="no"?>
<!-- Generator: Adobe Illustrator 19.2.1, SVG Export Plug-In . SVG Version: 6.00 Build 0)  -->

<svg
   xmlns:dc="http://purl.org/dc/elements/1.1/"
   xmlns:cc="http://creativecommons.org/ns#"
   xmlns:rdf="http://www.w3.org/1999/02/22-rdf-syntax-ns#"
   xmlns:svg="http://www.w3.org/2000/svg"
   xmlns="http://www.w3.org/2000/svg"
   xmlns:sodipodi="http://sodipodi.sourceforge.net/DTD/sodipodi-0.dtd"
   xmlns:inkscape="http://www.inkscape.org/namespaces/inkscape"
   version="1.1"
   id="Layer_1"
   x="0px"
   y="0px"
   viewBox="0 0 80 80"
   style="enable-background:new 0 0 80 80;"
   xml:space="preserve"
   inkscape:version="0.91 r13725"
   sodipodi:docname="mini-front.svg"><metadata
     id="metadata5322"><rdf:RDF><cc:Work
         rdf:about=""><dc:format>image/svg+xml</dc:format><dc:type
           rdf:resource="http://purl.org/dc/dcmitype/StillImage" /></cc:Work></rdf:RDF></metadata><defs
     id="defs5320" /><sodipodi:namedview
     pagecolor="#ffffff"
     bordercolor="#666666"
     borderopacity="1"
     objecttolerance="10"
     gridtolerance="10"
     guidetolerance="10"
     inkscape:pageopacity="0"
     inkscape:pageshadow="2"
     inkscape:window-width="2560"
     inkscape:window-height="1335"
     id="namedview5318"
     showgrid="false"
     inkscape:zoom="14.0125"
     inkscape:cx="40"
     inkscape:cy="40"
     inkscape:window-x="0"
     inkscape:window-y="56"
     inkscape:window-maximized="1"
     inkscape:current-layer="Layer_1" /><style
     type="text/css"
     id="style5282">
	.st0{fill:#FFFFFF;}
	.st1{fill:none;stroke:#646565;stroke-miterlimit:10;}
	.st2{fill:none;stroke:#646565;stroke-miterlimit:10;stroke-dasharray:1.173,1.173;}
</style><g
     id="g5284"
     transform="matrix(1.2,0,0,1.2,-7.9999999,-8.08)"><path
       class="st0"
       d="m 40,46.7 c -2.4,0 -4.6,1 -6.2,2.5 0,0 -0.1,0.1 -0.1,0.1 l 0,9.6 c 0,0.1 0.1,0.2 0.2,0.2 l 12.1,0 c 0.1,0 0.2,-0.1 0.2,-0.2 l 0,-9.6 c 0,-0.1 0,-0.1 -0.1,-0.1 -1.5,-1.5 -3.7,-2.5 -6.1,-2.5 z"
       id="path5286"
       inkscape:connector-curvature="0"
       style="fill:#ffffff" /><g
       id="g5288"><g
         id="g5290"><line
           class="st1"
           x1="33.799999"
           y1="53.5"
           x2="34.299999"
           y2="53.5"
           id="line5292"
           style="fill:none;stroke:#646565;stroke-miterlimit:10" /><polyline
           class="st1"
           points="34.8,53.5 35.3,53.5 35.3,54    "
           id="polyline5294"
           style="fill:none;stroke:#646565;stroke-miterlimit:10" /><line
           class="st2"
           x1="35.299999"
           y1="55.099998"
           x2="35.299999"
           y2="56.900002"
           id="line5296"
           style="fill:none;stroke:#646565;stroke-miterlimit:10;stroke-dasharray:1.173, 1.173" /><polyline
           class="st1"
           points="35.3,57.5 35.3,58 34.8,58    "
           id="polyline5298"
           style="fill:none;stroke:#646565;stroke-miterlimit:10" /><line
           class="st1"
           x1="34.299999"
           y1="58"
           x2="33.799999"
           y2="58"
           id="line5300"
           style="fill:none;stroke:#646565;stroke-miterlimit:10" /></g></g><g
       id="g5302"><g
         id="g5304"><line
           class="st1"
           x1="46.299999"
           y1="58"
           x2="45.799999"
           y2="58"
           id="line5306"
           style="fill:none;stroke:#646565;stroke-miterlimit:10" /><polyline
           class="st1"
           points="45.3,58 44.8,58 44.8,57.5    "
           id="polyline5308"
           style="fill:none;stroke:#646565;stroke-miterlimit:10" /><line
           class="st2"
           x1="44.799999"
           y1="56.299999"
           x2="44.799999"
           y2="54.599998"
           id="line5310"
           style="fill:none;stroke:#646565;stroke-miterlimit:10;stroke-dasharray:1.173, 1.173" /><polyline
           class="st1"
           points="44.8,54 44.8,53.5 45.3,53.5    "
           id="polyline5312"
           style="fill:none;stroke:#646565;stroke-miterlimit:10" /><line
           class="st1"
           x1="45.799999"
           y1="53.5"
           x2="46.299999"
           y2="53.5"
           id="line5314"
           style="fill:none;stroke:#646565;stroke-miterlimit:10" /></g></g></g><polygon
     class="st0"
     points="40,21.7 35.5,29.5 38.2,29.5 38.2,41.8 41.9,41.8 41.9,29.5 44.6,29.5 "
     id="polygon5316"
     transform="matrix(1.2,0,0,1.2,-7.9999999,-8.08)"
     style="fill:#ffffff" /></svg>