<?xml version="1.0" encoding="utf-8"?>
<!-- Generator: Adobe Illustrator 19.2.1, SVG Export Plug-In . SVG Version: 6.00 Build 0)  -->
<svg version="1.1" id="Layer_1" xmlns="http://www.w3.org/2000/svg" xmlns:xlink="http://www.w3.org/1999/xlink" x="0px" y="0px"
	 viewBox="0 0 80 80" style="enable-background:new 0 0 80 80;" xml:space="preserve">
<style type="text/css">
	.st0{fill:#FFFFFF;}
	.st1{fill:none;stroke:#646565;stroke-miterlimit:10;}
	.st2{fill:none;stroke:#646565;stroke-miterlimit:10;stroke-dasharray:1.173,1.173;}
</style>
<g>
	<path class="st0" d="M48.2,44.1c-2.4,0-4.6,1-6.2,2.5c0,0-0.1,0.1-0.1,0.1v9.6c0,0.1,0.1,0.2,0.2,0.2h12.1c0.1,0,0.2-0.1,0.2-0.2
		v-9.6c0-0.1,0-0.1-0.1-0.1C52.8,45.1,50.6,44.1,48.2,44.1z"/>
	<g>
		<g>
			<line class="st1" x1="42" y1="50.9" x2="42.5" y2="50.9"/>
			<polyline class="st1" points="42.9,50.9 43.4,50.9 43.4,51.4 			"/>
			<line class="st2" x1="43.4" y1="52.5" x2="43.4" y2="54.3"/>
			<polyline class="st1" points="43.4,54.9 43.4,55.4 42.9,55.4 			"/>
			<line class="st1" x1="42.5" y1="55.4" x2="42" y2="55.4"/>
		</g>
	</g>
	<g>
		<g>
			<line class="st1" x1="54.4" y1="55.4" x2="53.9" y2="55.4"/>
			<polyline class="st1" points="53.5,55.4 53,55.4 53,54.9 			"/>
			<line class="st2" x1="53" y1="53.7" x2="53" y2="52"/>
			<polyline class="st1" points="53,51.4 53,50.9 53.5,50.9 			"/>
			<line class="st1" x1="53.9" y1="50.9" x2="54.4" y2="50.9"/>
		</g>
	</g>
</g>
<path class="st0" d="M33,33L31.9,32l2.6-2.6l-10.8-2.9l2.9,10.8l2.6-2.6l1.1,1.1c2.7,2.7,4.2,6.3,4.2,10.2v4.5h3.7v-4.5
	C38.3,41,36.4,36.4,33,33z"/>
</svg>
