<?xml version="1.0" encoding="utf-8"?>
<!-- Generator: Adobe Illustrator 19.2.1, SVG Export Plug-In . SVG Version: 6.00 Build 0)  -->
<svg version="1.1" id="Layer_1" xmlns="http://www.w3.org/2000/svg" xmlns:xlink="http://www.w3.org/1999/xlink" x="0px" y="0px"
	 viewBox="0 0 80 80" style="enable-background:new 0 0 80 80;" xml:space="preserve">
<style type="text/css">
	.st0{fill:#FFFFFF;}
	.st1{fill:none;stroke:#646565;stroke-miterlimit:10;}
	.st2{fill:none;stroke:#646565;stroke-miterlimit:10;stroke-dasharray:1.173,1.173;}
</style>
<g>
	<path class="st0" d="M28.9,44.1c2.4,0,4.6,1,6.2,2.5c0,0,0.1,0.1,0.1,0.1v9.6c0,0.1-0.1,0.2-0.2,0.2H22.9c-0.1,0-0.2-0.1-0.2-0.2
		v-9.6c0-0.1,0-0.1,0.1-0.1C24.4,45.1,26.5,44.1,28.9,44.1z"/>
	<g>
		<g>
			<line class="st1" x1="35.2" y1="50.9" x2="34.7" y2="50.9"/>
			<polyline class="st1" points="34.2,50.9 33.7,50.9 33.7,51.4 			"/>
			<line class="st2" x1="33.7" y1="52.5" x2="33.7" y2="54.3"/>
			<polyline class="st1" points="33.7,54.9 33.7,55.4 34.2,55.4 			"/>
			<line class="st1" x1="34.7" y1="55.4" x2="35.2" y2="55.4"/>
		</g>
	</g>
	<g>
		<g>
			<line class="st1" x1="22.7" y1="55.4" x2="23.2" y2="55.4"/>
			<polyline class="st1" points="23.7,55.4 24.2,55.4 24.2,54.9 			"/>
			<line class="st2" x1="24.2" y1="53.7" x2="24.2" y2="52"/>
			<polyline class="st1" points="24.2,51.4 24.2,50.9 23.7,50.9 			"/>
			<line class="st1" x1="23.2" y1="50.9" x2="22.7" y2="50.9"/>
		</g>
	</g>
</g>
<path class="st0" d="M44.7,33l1.1-1.1l-2.6-2.6l10.8-2.9L51,37.2l-2.6-2.6l-1.1,1.1c-2.7,2.7-4.2,6.3-4.2,10.2v4.5h-3.7v-4.5
	C39.4,41,41.3,36.4,44.7,33z"/>
</svg>
