<?xml version="1.0" encoding="utf-8"?>
<!-- Generator: Adobe Illustrator 19.2.1, SVG Export Plug-In . SVG Version: 6.00 Build 0)  -->
<svg version="1.1" id="Layer_1" xmlns="http://www.w3.org/2000/svg" xmlns:xlink="http://www.w3.org/1999/xlink" x="0px" y="0px"
	 viewBox="0 0 80 80" style="enable-background:new 0 0 80 80;" xml:space="preserve">
<style type="text/css">
	.st0{fill:#FFFFFF;}
	.st1{fill:none;stroke:#646565;stroke-miterlimit:10;}
	.st2{fill:none;stroke:#646565;stroke-miterlimit:10;stroke-dasharray:1.173,1.173;}
</style>
<g>
	<path class="st0" d="M27,33c-2.4,0-4.6,1-6.2,2.5c0,0-0.1,0.1-0.1,0.1v9.6c0,0.1,0.1,0.2,0.2,0.2H33c0.1,0,0.2-0.1,0.2-0.2v-9.6
		c0-0.1,0-0.1-0.1-0.1C31.6,34,29.4,33,27,33z"/>
	<g>
		<g>
			<line class="st1" x1="20.8" y1="39.8" x2="21.3" y2="39.8"/>
			<polyline class="st1" points="21.7,39.8 22.2,39.8 22.2,40.3 			"/>
			<line class="st2" x1="22.2" y1="41.5" x2="22.2" y2="43.2"/>
			<polyline class="st1" points="22.2,43.8 22.2,44.3 21.7,44.3 			"/>
			<line class="st1" x1="21.3" y1="44.3" x2="20.8" y2="44.3"/>
		</g>
	</g>
	<g>
		<g>
			<line class="st1" x1="33.2" y1="44.3" x2="32.7" y2="44.3"/>
			<polyline class="st1" points="32.2,44.3 31.7,44.3 31.7,43.8 			"/>
			<line class="st2" x1="31.7" y1="42.6" x2="31.7" y2="40.9"/>
			<polyline class="st1" points="31.7,40.3 31.7,39.8 32.2,39.8 			"/>
			<line class="st1" x1="32.7" y1="39.8" x2="33.2" y2="39.8"/>
		</g>
	</g>
</g>
<path class="st0" d="M60.5,40.4c0-5.8-4.7-10.6-10.6-10.6s-10.6,4.7-10.6,10.6h3.7c0-3.8,3.1-6.8,6.8-6.8s6.8,3.1,6.8,6.8
	c0,3.3-2.4,6.1-5.5,6.7v-2.5l-7.8,4.5l7.8,4.5v-2.7C56.5,50.2,60.5,45.8,60.5,40.4z"/>
</svg>
