<?xml version="1.0" encoding="utf-8"?>
<!-- Generator: Adobe Illustrator 19.2.1, SVG Export Plug-In . SVG Version: 6.00 Build 0)  -->
<svg version="1.1" id="Layer_1" xmlns="http://www.w3.org/2000/svg" xmlns:xlink="http://www.w3.org/1999/xlink" x="0px" y="0px"
	 viewBox="0 0 80 80" style="enable-background:new 0 0 80 80;" xml:space="preserve">
<style type="text/css">
	.st0{fill:#FFFFFF;}
	.st1{fill:none;stroke:#646565;stroke-miterlimit:10;}
	.st2{fill:none;stroke:#646565;stroke-miterlimit:10;stroke-dasharray:1.173,1.173;}
</style>
<g>
	<path class="st0" d="M40,21.7c-2.4,0-4.6,1-6.2,2.5c0,0-0.1,0.1-0.1,0.1v9.6c0,0.1,0.1,0.2,0.2,0.2h12.1c0.1,0,0.2-0.1,0.2-0.2
		v-9.6c0-0.1,0-0.1-0.1-0.1C44.6,22.6,42.4,21.7,40,21.7z"/>
	<g>
		<g>
			<line class="st1" x1="33.8" y1="28.5" x2="34.3" y2="28.5"/>
			<polyline class="st1" points="34.8,28.5 35.3,28.5 35.3,29 			"/>
			<line class="st2" x1="35.3" y1="30.1" x2="35.3" y2="31.9"/>
			<polyline class="st1" points="35.3,32.5 35.3,33 34.8,33 			"/>
			<line class="st1" x1="34.3" y1="33" x2="33.8" y2="33"/>
		</g>
	</g>
	<g>
		<g>
			<line class="st1" x1="46.3" y1="33" x2="45.8" y2="33"/>
			<polyline class="st1" points="45.3,33 44.8,33 44.8,32.5 			"/>
			<line class="st2" x1="44.8" y1="31.3" x2="44.8" y2="29.5"/>
			<polyline class="st1" points="44.8,29 44.8,28.5 45.3,28.5 			"/>
			<line class="st1" x1="45.8" y1="28.5" x2="46.3" y2="28.5"/>
		</g>
	</g>
</g>
<polygon class="st0" points="35.5,51.3 40,59.1 44.6,51.3 41.9,51.3 41.9,39 38.2,39 38.2,51.3 "/>
</svg>
