<?xml version="1.0" encoding="utf-8"?>
<!-- Generator: Adobe Illustrator 19.2.1, SVG Export Plug-In . SVG Version: 6.00 Build 0)  -->
<svg version="1.1" id="Layer_1" xmlns="http://www.w3.org/2000/svg" xmlns:xlink="http://www.w3.org/1999/xlink" x="0px" y="0px"
	 viewBox="0 0 80 80" style="enable-background:new 0 0 80 80;" xml:space="preserve">
<style type="text/css">
	.st0{fill:#FFFFFF;}
	.st1{fill:none;stroke:#646565;stroke-miterlimit:10;stroke-dasharray:1;}
	.st2{fill:none;stroke:#C7C7C7;stroke-miterlimit:10;}
	.st3{fill:#EA2127;}
</style>
<g>
	<path class="st0" d="M40,25.1c-5.8,0-11,2.3-14.8,6c-0.1,0.1-0.1,0.2-0.1,0.3v23c0,0.3,0.2,0.5,0.5,0.5h28.9c0.3,0,0.5-0.2,0.5-0.5
		v-23c0-0.1-0.1-0.2-0.1-0.3C51,27.4,45.8,25.1,40,25.1z"/>
	<polyline class="st1" points="25.1,41.4 28.6,41.4 28.6,52.2 25.1,52.2 	"/>
	<polyline class="st1" points="55,52.2 51.5,52.2 51.5,41.4 55,41.4 	"/>
</g>
<circle class="st2" cx="40" cy="40" r="6.2"/>
<rect x="37.6" y="37.5" class="st3" width="5" height="5"/>
</svg>
