<?xml version="1.0" encoding="utf-8"?>
<!-- Generator: Adobe Illustrator 19.2.1, SVG Export Plug-In . SVG Version: 6.00 Build 0)  -->
<svg version="1.1" id="Layer_1" xmlns="http://www.w3.org/2000/svg" xmlns:xlink="http://www.w3.org/1999/xlink" x="0px" y="0px"
	 viewBox="0 0 80 80" style="enable-background:new 0 0 80 80;" xml:space="preserve">
<style type="text/css">
	.st0{fill:#FFFFFF;}
	.st1{fill:none;stroke:#646565;stroke-miterlimit:10;}
	.st2{fill:none;stroke:#646565;stroke-miterlimit:10;stroke-dasharray:1.173,1.173;}
</style>
<path class="st0" d="M44.7,46.4l1.1,1.1l-2.6,2.6L53.9,53L51,42.2l-2.6,2.6l-1.1-1.1c-2.7-2.7-4.2-6.3-4.2-10.2v-4.5h-3.7v4.5
	C39.4,38.4,41.3,43,44.7,46.4z"/>
<g>
	<path class="st0" d="M29.5,21.7c2.4,0,4.6,1,6.2,2.5c0,0,0.1,0.1,0.1,0.1v9.6c0,0.1-0.1,0.2-0.2,0.2H23.5c-0.1,0-0.2-0.1-0.2-0.2
		v-9.6c0-0.1,0-0.1,0.1-0.1C24.9,22.6,27.1,21.7,29.5,21.7z"/>
	<g>
		<g>
			<line class="st1" x1="35.7" y1="28.5" x2="35.2" y2="28.5"/>
			<polyline class="st1" points="34.7,28.5 34.2,28.5 34.2,29 			"/>
			<line class="st2" x1="34.2" y1="30.1" x2="34.2" y2="31.9"/>
			<polyline class="st1" points="34.2,32.5 34.2,33 34.7,33 			"/>
			<line class="st1" x1="35.2" y1="33" x2="35.7" y2="33"/>
		</g>
	</g>
	<g>
		<g>
			<line class="st1" x1="23.3" y1="33" x2="23.8" y2="33"/>
			<polyline class="st1" points="24.2,33 24.7,33 24.7,32.5 			"/>
			<line class="st2" x1="24.7" y1="31.3" x2="24.7" y2="29.5"/>
			<polyline class="st1" points="24.7,29 24.7,28.5 24.2,28.5 			"/>
			<line class="st1" x1="23.8" y1="28.5" x2="23.3" y2="28.5"/>
		</g>
	</g>
</g>
</svg>
