<?xml version="1.0" encoding="utf-8"?>
<!-- Generator: Adobe Illustrator 19.2.1, SVG Export Plug-In . SVG Version: 6.00 Build 0)  -->
<svg version="1.1" id="Layer_1" xmlns="http://www.w3.org/2000/svg" xmlns:xlink="http://www.w3.org/1999/xlink" x="0px" y="0px"
	 viewBox="0 0 80 80" style="enable-background:new 0 0 80 80;" xml:space="preserve">
<style type="text/css">
	.st0{fill:#FFFFFF;}
	.st1{fill:none;stroke:#646565;stroke-miterlimit:10;}
	.st2{fill:none;stroke:#646565;stroke-miterlimit:10;stroke-dasharray:1.173,1.173;}
</style>
<path class="st0" d="M33,46.4L32,47.5l2.6,2.6L23.8,53l2.9-10.8l2.6,2.6l1.1-1.1c2.7-2.7,4.2-6.3,4.2-10.2v-4.5h3.7v4.5
	C38.3,38.4,36.4,43,33,46.4z"/>
<g>
	<path class="st0" d="M48.3,21.7c-2.4,0-4.6,1-6.2,2.5c0,0-0.1,0.1-0.1,0.1v9.6c0,0.1,0.1,0.2,0.2,0.2h12.1c0.1,0,0.2-0.1,0.2-0.2
		v-9.6c0-0.1,0-0.1-0.1-0.1C52.8,22.6,50.7,21.7,48.3,21.7z"/>
	<g>
		<g>
			<line class="st1" x1="42" y1="28.5" x2="42.5" y2="28.5"/>
			<polyline class="st1" points="43,28.5 43.5,28.5 43.5,29 			"/>
			<line class="st2" x1="43.5" y1="30.1" x2="43.5" y2="31.9"/>
			<polyline class="st1" points="43.5,32.5 43.5,33 43,33 			"/>
			<line class="st1" x1="42.5" y1="33" x2="42" y2="33"/>
		</g>
	</g>
	<g>
		<g>
			<line class="st1" x1="54.5" y1="33" x2="54" y2="33"/>
			<polyline class="st1" points="53.5,33 53,33 53,32.5 			"/>
			<line class="st2" x1="53" y1="31.3" x2="53" y2="29.5"/>
			<polyline class="st1" points="53,29 53,28.5 53.5,28.5 			"/>
			<line class="st1" x1="54" y1="28.5" x2="54.5" y2="28.5"/>
		</g>
	</g>
</g>
</svg>
