<?xml version="1.0" encoding="utf-8"?>
<!-- Generator: Adobe Illustrator 19.2.1, SVG Export Plug-In . SVG Version: 6.00 Build 0)  -->
<svg version="1.1" id="Layer_1" xmlns="http://www.w3.org/2000/svg" xmlns:xlink="http://www.w3.org/1999/xlink" x="0px" y="0px"
	 viewBox="0 0 80 80" style="enable-background:new 0 0 80 80;" xml:space="preserve">
<style type="text/css">
	.st0{fill:#FFFFFF;}
	.st1{fill:none;stroke:#646565;stroke-miterlimit:10;}
	.st2{fill:none;stroke:#646565;stroke-miterlimit:10;stroke-dasharray:1.173,1.173;}
</style>
<g>
	<path class="st0" d="M40,33.8c-2.4,0-4.6,1-6.2,2.5c0,0-0.1,0.1-0.1,0.1V46c0,0.1,0.1,0.2,0.2,0.2h12.1c0.1,0,0.2-0.1,0.2-0.2v-9.6
		c0-0.1,0-0.1-0.1-0.1C44.6,34.7,42.4,33.8,40,33.8z"/>
	<g>
		<g>
			<line class="st1" x1="33.8" y1="40.6" x2="34.3" y2="40.6"/>
			<polyline class="st1" points="34.8,40.6 35.3,40.6 35.3,41.1 			"/>
			<line class="st2" x1="35.3" y1="42.2" x2="35.3" y2="44"/>
			<polyline class="st1" points="35.3,44.6 35.3,45.1 34.8,45.1 			"/>
			<line class="st1" x1="34.3" y1="45.1" x2="33.8" y2="45.1"/>
		</g>
	</g>
	<g>
		<g>
			<line class="st1" x1="46.3" y1="45.1" x2="45.8" y2="45.1"/>
			<polyline class="st1" points="45.3,45.1 44.8,45.1 44.8,44.6 			"/>
			<line class="st2" x1="44.8" y1="43.4" x2="44.8" y2="41.6"/>
			<polyline class="st1" points="44.8,41.1 44.8,40.6 45.3,40.6 			"/>
			<line class="st1" x1="45.8" y1="40.6" x2="46.3" y2="40.6"/>
		</g>
	</g>
</g>
<polygon class="st0" points="42.5,20.7 40,16.5 37.6,20.7 39,20.7 39,27.3 41.1,27.3 41.1,20.7 "/>
<polygon class="st0" points="41.1,59.3 41.1,52.7 39,52.7 39,59.3 37.6,59.3 40,63.5 42.5,59.3 "/>
<path class="st0" d="M64.6,40.1c0-3.1-2.6-5.7-5.7-5.7s-5.7,2.6-5.7,5.7h2c0-2,1.7-3.7,3.7-3.7s3.7,1.7,3.7,3.7c0,1.8-1.3,3.3-3,3.6
	v-1.4l-4.2,2.4l4.2,2.4v-1.5C62.4,45.4,64.6,43,64.6,40.1z"/>
<path class="st0" d="M21.2,36.8c2,0,3.7,1.7,3.7,3.7h2c0-3.1-2.6-5.7-5.7-5.7s-5.7,2.6-5.7,5.7c0,2.9,2.2,5.3,5,5.6v1.5l4.2-2.4
	l-4.2-2.4v1.4c-1.7-0.3-3-1.8-3-3.6C17.6,38.5,19.2,36.8,21.2,36.8z"/>
<path class="st0" d="M55.4,23.3l-4.7,1.3l1,1L51.3,26c-1.5,1.5-2.4,3.6-2.4,5.7v2h2v-2c0-1.6,0.6-3.2,1.8-4.3l0.5-0.5l1,1L55.4,23.3
	z"/>
<path class="st0" d="M28.9,25.9l-0.5-0.5l1-1l-4.7-1.3l1.3,4.7l1-1l0.5,0.5c1.1,1.1,1.8,2.7,1.8,4.3v2h2v-2
	C31.3,29.5,30.4,27.4,28.9,25.9z"/>
<path class="st0" d="M32,49.2v-2h-2v2c0,1.6-0.6,3.2-1.8,4.3L27.7,54l-1-1l-1.3,4.7l4.7-1.3l-1-1l0.5-0.5C31.1,53.4,32,51.4,32,49.2
	z"/>
<path class="st0" d="M54.8,57.5l-1.3-4.7l-1,1L52,53.4c-1.1-1.1-1.8-2.7-1.8-4.3v-2h-2v2c0,2.2,0.8,4.2,2.4,5.7l0.5,0.5l-1,1
	L54.8,57.5z"/>
</svg>
