<?xml version="1.0" encoding="utf-8"?>
<!-- Generator: Adobe Illustrator 19.2.1, SVG Export Plug-In . SVG Version: 6.00 Build 0)  -->
<svg version="1.1" id="Layer_1" xmlns="http://www.w3.org/2000/svg" xmlns:xlink="http://www.w3.org/1999/xlink" x="0px" y="0px"
	 viewBox="0 0 80 80" style="enable-background:new 0 0 80 80;" xml:space="preserve">
<style type="text/css">
	.st0{fill:#FFFFFF;}
	.st1{fill:none;stroke:#646565;stroke-miterlimit:10;}
	.st2{fill:none;stroke:#646565;stroke-miterlimit:10;stroke-dasharray:1.173,1.173;}
</style>
<g>
	<path class="st0" d="M54.3,33c-2.4,0-4.6,1-6.2,2.5c0,0-0.1,0.1-0.1,0.1v9.6c0,0.1,0.1,0.2,0.2,0.2h12.1c0.1,0,0.2-0.1,0.2-0.2
		v-9.6c0-0.1,0-0.1-0.1-0.1C58.8,34,56.7,33,54.3,33z"/>
	<g>
		<g>
			<line class="st1" x1="48" y1="39.8" x2="48.5" y2="39.8"/>
			<polyline class="st1" points="49,39.8 49.5,39.8 49.5,40.3 			"/>
			<line class="st2" x1="49.5" y1="41.5" x2="49.5" y2="43.2"/>
			<polyline class="st1" points="49.5,43.8 49.5,44.3 49,44.3 			"/>
			<line class="st1" x1="48.5" y1="44.3" x2="48" y2="44.3"/>
		</g>
	</g>
	<g>
		<g>
			<line class="st1" x1="60.5" y1="44.3" x2="60" y2="44.3"/>
			<polyline class="st1" points="59.5,44.3 59,44.3 59,43.8 			"/>
			<line class="st2" x1="59" y1="42.6" x2="59" y2="40.9"/>
			<polyline class="st1" points="59,40.3 59,39.8 59.5,39.8 			"/>
			<line class="st1" x1="60" y1="39.8" x2="60.5" y2="39.8"/>
		</g>
	</g>
</g>
<path class="st0" d="M20.8,40.4c0-5.8,4.7-10.6,10.6-10.6s10.6,4.7,10.6,10.6h-3.7c0-3.8-3.1-6.8-6.8-6.8s-6.8,3.1-6.8,6.8
	c0,3.3,2.4,6.1,5.5,6.7v-2.5l7.8,4.5L30,53.6v-2.7C24.8,50.2,20.8,45.8,20.8,40.4z"/>
</svg>
