<?xml version="1.0" encoding="UTF-8" standalone="no"?>
<!-- Generator: Adobe Illustrator 19.2.1, SVG Export Plug-In . SVG Version: 6.00 Build 0)  -->

<svg
   xmlns:dc="http://purl.org/dc/elements/1.1/"
   xmlns:cc="http://creativecommons.org/ns#"
   xmlns:rdf="http://www.w3.org/1999/02/22-rdf-syntax-ns#"
   xmlns:svg="http://www.w3.org/2000/svg"
   xmlns="http://www.w3.org/2000/svg"
   xmlns:sodipodi="http://sodipodi.sourceforge.net/DTD/sodipodi-0.dtd"
   xmlns:inkscape="http://www.inkscape.org/namespaces/inkscape"
   version="1.1"
   id="Layer_1"
   x="0px"
   y="0px"
   viewBox="0 0 80 80"
   style="enable-background:new 0 0 80 80;"
   xml:space="preserve"
   inkscape:version="0.91 r13725"
   sodipodi:docname="mini-left.svg"><metadata
     id="metadata4271"><rdf:RDF><cc:Work
         rdf:about=""><dc:format>image/svg+xml</dc:format><dc:type
           rdf:resource="http://purl.org/dc/dcmitype/StillImage" /></cc:Work></rdf:RDF></metadata><defs
     id="defs4269" /><sodipodi:namedview
     pagecolor="#ffffff"
     bordercolor="#666666"
     borderopacity="1"
     objecttolerance="10"
     gridtolerance="10"
     guidetolerance="10"
     inkscape:pageopacity="0"
     inkscape:pageshadow="2"
     inkscape:window-width="2560"
     inkscape:window-height="1335"
     id="namedview4267"
     showgrid="false"
     inkscape:zoom="14.0125"
     inkscape:cx="40"
     inkscape:cy="40"
     inkscape:window-x="0"
     inkscape:window-y="56"
     inkscape:window-maximized="1"
     inkscape:current-layer="Layer_1" /><style
     type="text/css"
     id="style4231">
	.st0{fill:#FFFFFF;}
	.st1{fill:none;stroke:#646565;stroke-miterlimit:10;}
	.st2{fill:none;stroke:#646565;stroke-miterlimit:10;stroke-dasharray:1.173,1.173;}
</style><g
     id="g4233"
     transform="matrix(1.2,0,0,1.2,-8.13,-8.34)"><path
       class="st0"
       d="m 54.3,33 c -2.4,0 -4.6,1 -6.2,2.5 0,0 -0.1,0.1 -0.1,0.1 l 0,9.6 c 0,0.1 0.1,0.2 0.2,0.2 l 12.1,0 c 0.1,0 0.2,-0.1 0.2,-0.2 l 0,-9.6 c 0,-0.1 0,-0.1 -0.1,-0.1 C 58.8,34 56.7,33 54.3,33 Z"
       id="path4235"
       inkscape:connector-curvature="0"
       style="fill:#ffffff" /><g
       id="g4237"><g
         id="g4239"><line
           class="st1"
           x1="48"
           y1="39.799999"
           x2="48.5"
           y2="39.799999"
           id="line4241"
           style="fill:none;stroke:#646565;stroke-miterlimit:10" /><polyline
           class="st1"
           points="49,39.8 49.5,39.8 49.5,40.3    "
           id="polyline4243"
           style="fill:none;stroke:#646565;stroke-miterlimit:10" /><line
           class="st2"
           x1="49.5"
           y1="41.5"
           x2="49.5"
           y2="43.200001"
           id="line4245"
           style="fill:none;stroke:#646565;stroke-miterlimit:10;stroke-dasharray:1.173, 1.173" /><polyline
           class="st1"
           points="49.5,43.8 49.5,44.3 49,44.3    "
           id="polyline4247"
           style="fill:none;stroke:#646565;stroke-miterlimit:10" /><line
           class="st1"
           x1="48.5"
           y1="44.299999"
           x2="48"
           y2="44.299999"
           id="line4249"
           style="fill:none;stroke:#646565;stroke-miterlimit:10" /></g></g><g
       id="g4251"><g
         id="g4253"><line
           class="st1"
           x1="60.5"
           y1="44.299999"
           x2="60"
           y2="44.299999"
           id="line4255"
           style="fill:none;stroke:#646565;stroke-miterlimit:10" /><polyline
           class="st1"
           points="59.5,44.3 59,44.3 59,43.8    "
           id="polyline4257"
           style="fill:none;stroke:#646565;stroke-miterlimit:10" /><line
           class="st2"
           x1="59"
           y1="42.599998"
           x2="59"
           y2="40.900002"
           id="line4259"
           style="fill:none;stroke:#646565;stroke-miterlimit:10;stroke-dasharray:1.173, 1.173" /><polyline
           class="st1"
           points="59,40.3 59,39.8 59.5,39.8    "
           id="polyline4261"
           style="fill:none;stroke:#646565;stroke-miterlimit:10" /><line
           class="st1"
           x1="60"
           y1="39.799999"
           x2="60.5"
           y2="39.799999"
           id="line4263"
           style="fill:none;stroke:#646565;stroke-miterlimit:10" /></g></g></g><path
     class="st0"
     d="m 16.83,40.14 c 0,-6.96 5.64,-12.72 12.72,-12.72 7.08,0 12.72,5.64 12.72,12.72 l -4.44,0 c 0,-4.56 -3.72,-8.16 -8.16,-8.16 -4.44,0 -8.16,3.72 -8.16,8.16 0,3.96 2.88,7.32 6.6,8.04 l 0,-3 9.36,5.4 -9.6,5.4 0,-3.24 C 21.63,51.9 16.83,46.62 16.83,40.14 Z"
     id="path4265"
     inkscape:connector-curvature="0"
     style="fill:#ffffff" /></svg>