<?xml version="1.0" encoding="UTF-8" standalone="no"?>
<svg
   xmlns:dc="http://purl.org/dc/elements/1.1/"
   xmlns:cc="http://creativecommons.org/ns#"
   xmlns:rdf="http://www.w3.org/1999/02/22-rdf-syntax-ns#"
   xmlns:svg="http://www.w3.org/2000/svg"
   xmlns="http://www.w3.org/2000/svg"
   id="svg2"
   xml:space="preserve"
   enable-background="new 0 0 256 256"
   viewBox="0 0 256 256"
   y="0px"
   x="0px"
   version="1.1"><metadata
     id="metadata528"><rdf:RDF><cc:Work
         rdf:about=""><dc:format>image/svg+xml</dc:format><dc:type
           rdf:resource="http://purl.org/dc/dcmitype/StillImage" /><dc:title></dc:title></cc:Work></rdf:RDF></metadata><defs
     id="defs526"><radialGradient
       id="SVGID_17_"
       cx="237.1715"
       cy="175.0634"
       r="132.2637"
       gradientTransform="matrix(1.0705,0,0,2.0436,-125.9022,-218.2464)"
       gradientUnits="userSpaceOnUse"><stop
         offset="0"
         style="stop-color:#E8639A"
         id="stop512" /><stop
         offset="0.1514"
         style="stop-color:#EB74A5;stop-opacity:0.8486"
         id="stop514" /><stop
         offset="0.4514"
         style="stop-color:#F1A0C2;stop-opacity:0.5486"
         id="stop516" /><stop
         offset="0.8678"
         style="stop-color:#FBE7F0;stop-opacity:0.1322"
         id="stop518" /><stop
         offset="1"
         style="stop-color:#FFFFFF;stop-opacity:0"
         id="stop520" /></radialGradient></defs><g
     id="g485"><path
       d="m 128,166.3 c 0,0 4.3,0.3 6.8,-2.4 4.3,-4.6 2,-9.5 10,-9.7 l -33.5,0 c 8,0.2 5.6,5.1 10,9.7 2.6,2.8 6.7,2.4 6.7,2.4 l 0,0 z"
       id="path487"
       style="fill:#c8c8c8" /><path
       style="fill:#221f1f"
       id="path491"
       d="m 59.7,167.7 -18.4,0 c -1.9,0 -3.5,-1.6 -3.5,-3.5 l 0,-20 c 0,-1.9 1.6,-3.5 3.5,-3.5 l 18.4,0 c 1.9,0 3.5,1.6 3.5,3.5 l 0,20 c 0,2 -1.6,3.5 -3.5,3.5 z" /><path
       style="fill:#221f1f"
       id="path493"
       d="m 215.1,167.7 -18.4,0 c -1.9,0 -3.5,-1.6 -3.5,-3.5 l 0,-20 c 0,-1.9 1.6,-3.5 3.5,-3.5 l 18.4,0 c 1.9,0 3.5,1.6 3.5,3.5 l 0,20 c 0,2 -1.6,3.5 -3.5,3.5 z" /><path
       style="opacity:0.07999998"
       id="path495"
       d="m 35.8,157.9 c -2.6,0 -4.8,-2.1 -4.8,-4.8 l 0,-66.5 c 0,-2.6 2.1,-4.8 4.8,-4.8 l 184.5,0 c 2.6,0 4.8,2.1 4.8,4.8 l 0,66.5 c 0,2.6 -2.1,4.8 -4.8,4.8 l -184.5,0 z" /><path
       style="fill:#c8c8c8"
       id="path497"
       d="m 220.2,155.9 -184.4,0 c -1.5,0 -2.8,-1.2 -2.8,-2.8 l 0,-66.5 c 0,-1.5 1.2,-2.8 2.8,-2.8 l 184.5,0 c 1.5,0 2.8,1.2 2.8,2.8 l 0,66.5 c -0.1,1.5 -1.3,2.8 -2.9,2.8 z" /><g
       style="opacity:1;fill:#101010;fill-opacity:1"
       id="g499"><rect
         style="opacity:1;fill:#101010;fill-opacity:1"
         id="rect501"
         height="8.8000002"
         width="21.799999"
         y="114.3"
         x="117.1" /><rect
         style="opacity:1;fill:#101010;fill-opacity:1"
         id="rect503"
         height="8.8000002"
         width="18.299999"
         y="114.3"
         x="75.5" /><rect
         style="opacity:1;fill:#101010;fill-opacity:1"
         id="rect505"
         height="8.8000002"
         width="14.6"
         y="114.3"
         x="39.5" /><rect
         style="opacity:1;fill:#101010;fill-opacity:1"
         id="rect507"
         height="8.8000002"
         width="18.299999"
         y="114.3"
         x="162.60001" /><rect
         style="opacity:1;fill:#101010;fill-opacity:1"
         id="rect509"
         height="8.8000002"
         width="14.6"
         y="114.3"
         x="202.3" /></g></g></svg>
