<?xml version="1.0" encoding="UTF-8" standalone="no"?>
<svg
   xmlns:dc="http://purl.org/dc/elements/1.1/"
   xmlns:cc="http://creativecommons.org/ns#"
   xmlns:rdf="http://www.w3.org/1999/02/22-rdf-syntax-ns#"
   xmlns:svg="http://www.w3.org/2000/svg"
   xmlns="http://www.w3.org/2000/svg"
   xmlns:sodipodi="http://sodipodi.sourceforge.net/DTD/sodipodi-0.dtd"
   xmlns:inkscape="http://www.inkscape.org/namespaces/inkscape"
   xml:space="preserve"
   viewBox="0 0 180.81362 86.699998"
   y="0px"
   x="0px"
   id="Instructions"
   version="1.1"
   inkscape:version="0.92.0 r"
   sodipodi:docname="logoETHGTC.svg"
   width="180.81361"
   height="86.699997"><sodipodi:namedview
     pagecolor="#ffffff"
     bordercolor="#666666"
     borderopacity="1"
     objecttolerance="10"
     gridtolerance="10"
     guidetolerance="10"
     inkscape:pageopacity="0"
     inkscape:pageshadow="2"
     inkscape:window-width="2560"
     inkscape:window-height="1308"
     id="namedview205"
     showgrid="false"
     inkscape:zoom="6.7915232"
     inkscape:cx="107.37733"
     inkscape:cy="58.568457"
     inkscape:window-x="0"
     inkscape:window-y="23"
     inkscape:window-maximized="0"
     inkscape:current-layer="Instructions"
     fit-margin-top="0"
     fit-margin-left="0"
     fit-margin-right="0"
     fit-margin-bottom="0" /><metadata
     id="metadata424"><rdf:RDF><cc:Work
         rdf:about=""><dc:format>image/svg+xml</dc:format><dc:type
           rdf:resource="http://purl.org/dc/dcmitype/StillImage" /><dc:title></dc:title></cc:Work></rdf:RDF></metadata><defs
     id="defs422" /><style
     id="style3"
     type="text/css">
	.st0{fill:#036AB4;}
	.st1{fill:#F38183;}
	.st2{fill:#FFFFFF;}
	.st3{fill:#F6E220;}
	.st4{fill:#E62F2F;}
	.st5{fill:#4856A4;}
	.st6{fill:#85C671;}
	.st7{fill:#8C8B8B;}
	.st8{fill:#D55F66;}
	.st9{opacity:0.2;}
	.st10{fill:#FACBCF;}
	.st11{fill:#F2F2F3;}
	.st12{fill:url(#SVGID_1_);}
	.st13{fill:url(#SVGID_2_);}
	.st14{fill:url(#SVGID_3_);}
	.st15{fill:none;stroke:#231F20;stroke-width:0.3161;stroke-miterlimit:10;}
</style><rect
     style="fill:#024b7f;fill-opacity:1;stroke-width:1.17829311"
     y="0.15080637"
     x="0"
     id="rect4328"
     height="30.231899"
     width="180.81363"
     class="st0" /><rect
     class="st0"
     width="180.81363"
     height="56.317299"
     id="rect10"
     x="0"
     y="30.382706"
     style="fill:#036ab4;stroke-width:1.07676959" /><g
     id="g18"
     transform="matrix(2.0556083,0,0,2.0556083,-177.9199,2.0140341)"><g
       id="g20"><g
         id="g22"><path
           id="path24"
           d="m 124.2,36.7 c -1,0 -1.8,-0.1 -2,-0.1 -1,-0.1 -2.5,-0.4 -3.5,-0.6 -0.6,-0.1 -1.1,-0.2 -1.5,-0.3 l -0.6,-0.1 c -0.1,0 -0.1,0 -0.1,-0.1 v 0 l -0.1,-0.1 -0.1,-0.1 -0.1,-0.1 h -0.1 -0.2 c -0.2,0.1 -0.5,0.2 -0.8,0.2 -0.1,0 -0.2,0 -0.3,0 -0.4,-0.1 -0.7,-0.3 -0.8,-0.8 l -0.1,-0.4 h -0.2 -0.2 c -0.3,0.1 -0.6,0.1 -0.9,0.2 -0.4,0.1 -0.7,0.2 -1,0.2 -0.5,0.1 -0.9,0.1 -1.3,0.1 -0.7,0 -1.4,-0.1 -1.9,-0.4 -0.9,-0.5 -1.8,-1.3 -2.4,-2.3 -0.1,-0.1 -0.1,-0.2 -0.2,-0.3 0,-0.1 -0.1,-0.2 -0.1,-0.2 -0.1,-0.2 -0.1,-0.3 -0.1,-0.3 l -0.1,-0.3 -0.3,0.2 -0.4,0.3 c -0.5,0.4 -1.1,0.8 -1.7,1.1 0,0 -0.1,0 -0.2,0.1 -0.4,0.1 -0.8,0.2 -1.1,0.2 -0.2,0 -0.3,0 -0.5,-0.1 -0.1,0 -0.1,0 -0.2,0 -0.4,-0.1 -1,-0.5 -0.9,-1 0,-0.5 0.4,-0.7 0.7,-0.9 l 0.1,-0.1 c 0.3,-0.1 0.5,-0.3 0.6,-0.5 0.2,-0.3 0.1,-0.8 0.1,-1.2 v -0.3 c 0,-0.1 0,-0.2 0,-0.3 0,-0.4 0,-0.7 0,-0.9 0,-0.1 0,-0.3 0.1,-0.4 0,-0.1 0,-0.2 0.1,-0.2 0.1,-0.2 0.1,-0.3 0.2,-0.4 0.1,-0.2 0.2,-0.3 0.3,-0.4 0.1,-0.1 0.1,-0.1 0.2,-0.2 0.4,-0.4 0.9,-0.7 1.3,-0.9 l 0.3,-0.2 -0.2,-0.2 c -0.1,-0.1 -0.2,-0.2 -0.3,-0.3 -0.2,-0.2 -0.3,-0.3 -0.4,-0.5 l -0.1,-0.3 -0.3,0.1 c -1.1,1.1 -2.4,2.2 -4.2,2.3 h -0.2 c -2,0 -4.1,-1.2 -5.6,-3.1 C 92,21.6 91.3,20.2 91.1,18.7 90.8,17 91,15.3 91.7,13.6 93.1,10 96.5,7 100.4,5.8 c 0.1,0 0.5,-0.1 0.5,-0.1 0.4,-0.1 0.9,-0.2 1.3,-0.2 0.1,0 0.2,0 0.3,0 0.1,0 0.2,0 0.3,0 0.1,0 0.2,0 0.3,0 h 0.1 c 0.1,0 0.2,0 0.3,0 0.1,0 0.2,0 0.4,0 0.7,0 1.3,0.1 2,0.2 1.5,0.3 2.7,0.8 4.1,1.4 l 0.2,0.1 0.2,-0.2 c 0,0 0.1,-0.1 0.1,-0.1 0.1,-0.1 0.1,-0.1 0.2,-0.2 0.1,-0.1 0.1,-0.1 0.2,-0.2 0.5,-0.4 1,-0.6 1.5,-0.6 0.5,0 1,0.2 1.4,0.6 0.9,1 0.9,2.5 1,3.7 l 0.1,1.9 c 0,0.2 0,0.5 0,0.7 v 0.6 0.7 l 0.6,-0.9 c 0.3,-0.4 0.7,-0.8 1,-1.2 l 0.2,-0.2 c 0.2,-0.2 0.5,-0.4 0.7,-0.6 l 0.1,-0.1 0.1,-0.1 c 0.5,-0.4 1,-0.7 1.5,-0.7 0.1,0 0.1,0 0.2,0 0.5,0.1 1,0.5 1.3,0.7 l 0.1,0.1 c 0.5,0.4 1,0.9 1.4,1.2 0.1,0.1 0.5,0.5 0.5,0.5 0.1,0.1 0.2,0.2 0.3,0.2 l 0.1,0.1 h 0.1 c 0.1,0 0.1,-0.1 0.2,-0.1 l 0.1,-0.1 c 0.3,-0.1 0.6,-0.3 0.9,-0.3 0,0 0.1,0 0.1,0 0.4,0.1 0.7,0.4 0.7,0.9 0,0.1 0,0.1 0,0.2 0,0.1 -0.1,0.4 -0.1,0.4 h 0.3 c 0.2,0 0.4,0 0.6,0 0.2,0 0.3,0 0.4,0 h 0.3 c 0.4,0 0.7,0.1 1,0.2 h 0.2 c 0.2,0 0.3,0.1 0.5,0.1 l 0.2,0.1 0.2,0.1 c 0,0 0.1,0 0.1,0 h 0.1 c 0.4,0.2 0.6,0.4 0.9,0.6 l 0.1,0.1 c 0,0.1 0.1,0.1 0.1,0.2 0,0.1 0.1,0.1 0.1,0.2 0,0.1 0.1,0.1 0.1,0.2 0,0 0,0.1 0,0.1 v 0.1 c 0,0.1 0,0.1 0,0.1 0,0.2 0,0.3 0,0.4 0,0.1 0,0.2 0,0.3 l -0.1,0.2 c 0,0.1 -0.1,0.2 -0.1,0.3 l -0.1,0.2 c -0.4,0.8 -1,1.4 -1.5,2 -0.4,0.4 -0.7,0.8 -1.1,1.2 -0.2,0.2 -0.5,0.5 -0.7,0.7 -0.1,0.1 -0.3,0.3 -0.4,0.4 -0.1,0.2 -0.3,0.3 -0.4,0.5 l -0.2,0.3 0.3,0.1 c 0.3,0.1 0.5,0.2 0.8,0.3 0.2,0.1 0.3,0.1 0.4,0.2 0.1,0.1 0.3,0.2 0.4,0.3 0.3,0.2 0.5,0.5 0.6,0.8 0.3,1.1 -0.3,2.3 -1.3,2.7 -0.1,0 -0.2,0.1 -0.3,0.1 -0.1,0 -0.3,0 -0.4,-0.1 h -0.1 -0.2 l -0.1,0.2 c -0.1,0.3 -0.2,0.5 -0.3,0.8 0,0.1 -0.1,0.2 -0.1,0.3 v 0.1 l 0.1,0.1 c 0.3,0.3 0.6,0.7 1,1.1 l 0.7,0.7 1.1,1.1 c 0.5,0.6 1,1.2 1.4,1.9 0.4,0.7 0.4,1.3 0.2,1.8 0,0.1 -0.1,0.1 -0.1,0.2 0,0 -0.1,0.1 -0.1,0.1 0,0 -0.1,0.2 -0.3,0.3 -0.1,0.1 -0.2,0.2 -0.2,0.2 -0.1,0 -0.2,0.1 -0.2,0.1 -0.1,0.1 -0.2,0.1 -0.3,0.1 -0.1,0 -0.2,0.1 -0.3,0.1 -0.1,0 -0.2,0.1 -0.3,0.1 -0.1,0 -0.2,0.1 -0.3,0.1 -0.1,0 -0.2,0.1 -0.3,0.1 -0.1,0 -0.2,0 -0.3,0.1 -0.4,0.1 -0.9,0.1 -1.4,0.2 h -0.8 z"
           inkscape:connector-curvature="0" /></g><path
         style="fill:#f38183"
         id="path26"
         d="m 124.2,36.4 c -1,0 -1.7,-0.1 -2,-0.1 -1,-0.1 -2.4,-0.4 -3.5,-0.6 -1.2,-0.2 -1.8,-0.4 -2,-0.4 v 0 c 0,0 0,-0.1 -0.1,-0.1 l -0.1,-0.1 h -0.2 c -0.1,0 -0.1,0 -0.2,-0.1 h -0.2 l -0.1,0.1 c -0.2,0.1 -0.4,0.2 -0.7,0.2 -0.1,0 -0.2,0 -0.3,0 -0.3,-0.1 -0.4,-0.2 -0.5,-0.5 0,-0.1 0,-0.1 0,-0.2 v 0 c 0,-0.1 0,-0.2 -0.1,-0.3 L 114.1,34 h -0.3 c -0.1,0 -0.1,0 -0.2,0 -0.1,0 -0.2,0 -0.3,0 -0.3,0.1 -0.6,0.1 -0.9,0.2 -0.4,0.1 -0.7,0.2 -1,0.2 -0.5,0.1 -0.9,0.1 -1.2,0.1 -0.7,0 -1.3,-0.1 -1.8,-0.4 -0.9,-0.5 -1.7,-1.3 -2.3,-2.2 -0.1,-0.1 -0.1,-0.2 -0.2,-0.3 0,-0.1 -0.1,-0.2 -0.1,-0.2 v -0.1 c -0.1,-0.1 -0.1,-0.2 -0.1,-0.3 v 0 c 0,-0.1 0,-0.1 -0.1,-0.2 l -0.1,-0.5 -0.7,0.5 c -0.1,0.1 -0.2,0.2 -0.4,0.3 -0.5,0.4 -1,0.8 -1.7,1 0,0 -0.1,0 -0.1,0.1 -0.4,0.1 -0.7,0.2 -1,0.2 -0.2,0 -0.3,0 -0.4,0 0,0 -0.1,0 -0.1,0 -0.3,-0.1 -0.7,-0.3 -0.7,-0.7 0,-0.3 0.3,-0.5 0.6,-0.7 l 0.1,-0.1 c 0.3,-0.2 0.6,-0.3 0.8,-0.7 0.2,-0.4 0.1,-0.9 0.1,-1.4 v -0.3 c 0,-0.1 0,-0.2 0,-0.3 0,-0.3 0,-0.6 0,-0.9 0,-0.1 0,-0.2 0.1,-0.4 0,-0.1 0,-0.1 0.1,-0.2 0.1,-0.1 0.1,-0.3 0.2,-0.4 v 0 c 0.1,-0.2 0.2,-0.3 0.2,-0.3 l 0.3,-0.2 v 0 c 0.4,-0.4 1,-0.7 1.4,-0.9 l 0.4,-0.3 -0.4,-0.3 c -0.1,0 -0.1,-0.1 -0.2,-0.1 -0.1,-0.1 -0.3,-0.2 -0.4,-0.4 -0.1,-0.2 -0.3,-0.3 -0.4,-0.5 v 0 0 c 0,0 0,0 0,-0.1 v 0 0 c 0,0 0,-0.1 0,-0.1 v 0 c 0,0 0,-0.1 0,-0.1 l -0.2,-0.5 -0.4,0.4 c -0.1,0.1 -0.1,0.1 -0.2,0.2 -1,1.1 -2.3,2.2 -4,2.2 -0.1,0 -0.1,0 -0.2,0 -1.9,0 -3.9,-1.1 -5.4,-3 C 92,21.2 91.4,19.8 91.1,18.4 90.8,16.8 91,15.1 91.6,13.5 93,10 96.3,7.1 100.1,5.9 c 0.1,0 0.3,-0.1 0.4,-0.1 h 0.1 v 0 c 0.4,-0.1 0.8,-0.2 1.2,-0.2 0.1,0 0.2,0 0.3,0 v 0 c 0.1,0 0.1,0 0.2,0 0.1,0 0.2,0 0.3,0 v 0 0 0 c 0,0 0,0 0.1,0 0.1,0 0.2,0 0.3,0 0.1,0 0.2,0 0.3,0 0.7,0 1.3,0.1 1.9,0.2 1.6,0.3 2.9,0.9 4.2,1.4 l 0.2,0.1 0.2,-0.2 c 0,0 0,0 0.1,-0.1 v 0 c 0,0 0.1,-0.1 0.1,-0.1 v 0 0 c 0,0 0,-0.1 0.1,-0.1 v 0 0 c 0,0 0.1,-0.1 0.1,-0.1 v 0 c 0,0 0.1,-0.1 0.2,-0.1 0.4,-0.3 0.9,-0.5 1.3,-0.5 0.4,0 0.8,0.2 1.1,0.5 0.8,0.9 0.8,2.3 0.9,3.5 v 1.1 c 0,0.2 0,0.5 0,0.7 0,0.3 0,0.6 0,0.9 0,0.1 0,0.2 0,0.3 0,0.3 0,0.6 0.1,0.9 l 0.1,1 0.5,-0.8 c 0.2,-0.3 0.4,-0.6 0.6,-0.8 0.3,-0.4 0.6,-0.8 1,-1.2 0.1,-0.1 0.1,-0.1 0.2,-0.2 0.2,-0.2 0.5,-0.4 0.7,-0.6 0,0 0.1,-0.1 0.1,-0.1 0.1,0 0.1,-0.1 0.1,-0.1 0.4,-0.3 0.9,-0.6 1.3,-0.6 0.1,0 0.1,0 0.2,0 0.4,0.1 0.8,0.4 1.2,0.7 l 0.1,0.1 c 0.5,0.4 1,0.8 1.4,1.2 0.1,0.1 0.2,0.2 0.3,0.3 0.1,0.1 0.1,0.1 0.2,0.2 v 0 c 0.1,0.1 0.2,0.2 0.3,0.3 0.1,0 0.1,0 0.2,0 0.2,0 0.3,-0.1 0.5,-0.2 h 0.1 c 0.2,-0.1 0.5,-0.3 0.8,-0.3 0,0 0.1,0 0.1,0 0.1,0 0.4,0.1 0.4,0.6 0,0 0,0.1 0,0.1 0,0.1 0,0.1 0,0.1 0,0 0,0.1 0,0.1 0,0 0,0.1 0,0.1 l -0.1,0.4 h 0.6 c 0.1,0 0.1,0 0.2,0 0.2,0 0.3,0 0.5,0 0.1,0 0.3,0 0.4,0 0.1,0 0.2,0 0.3,0 v 0 c 0.4,0 0.7,0.1 1,0.2 0.1,0 0.1,0 0.2,0 0.2,0 0.4,0.1 0.5,0.1 0.1,0 0.1,0 0.1,0 0,0 0.1,0 0.1,0 h 0.1 c 0,0 0.1,0 0.1,0 v 0 0 c 0,0 0,0 0,0 v 0 0 c 0.3,0.1 0.6,0.3 0.8,0.5 0,0 0.1,0.1 0.1,0.1 0,0 0.1,0.1 0.1,0.1 v 0 c 0,0 0,0.1 0.1,0.1 0,0 0,0.1 0.1,0.1 0,0 0,0.1 0,0.1 0,0 0,0.1 0,0.1 0,0 0,0.1 0,0.1 v 0 0 c 0,0.1 0,0.2 0,0.4 v 0 c 0,0 0,0.1 0,0.2 0,0.1 0,0.1 0,0.2 0,0.1 -0.1,0.2 -0.1,0.3 0,0 0,0.1 -0.1,0.1 -0.4,0.7 -0.9,1.4 -1.4,1.9 -0.4,0.4 -0.7,0.8 -1.1,1.2 -0.2,0.2 -0.5,0.5 -0.7,0.7 -0.1,0.1 -0.3,0.3 -0.4,0.4 -0.2,0.2 -0.4,0.5 -0.7,0.8 l -0.3,0.4 0.5,0.1 h 0.1 0.1 c 0.3,0.1 0.6,0.2 1,0.3 0.1,0.1 0.3,0.1 0.4,0.2 0.1,0.1 0.2,0.2 0.4,0.2 0.2,0.2 0.4,0.4 0.5,0.7 0.3,0.9 -0.2,2 -1.1,2.4 -0.1,0 -0.1,0 -0.2,0 -0.1,0 -0.2,0 -0.3,0 -0.1,0 -0.2,-0.1 -0.3,-0.1 -0.1,0 -0.1,0 -0.2,0 h -0.2 l -0.1,0.2 c -0.1,0.3 -0.2,0.6 -0.3,0.9 0,0.1 -0.1,0.2 -0.1,0.3 0,0 0,0.1 0,0.1 l -0.1,0.2 0.1,0.1 c 0.3,0.4 0.6,0.7 1.1,1.2 l 0.4,0.5 0.2,0.2 c 0.2,0.2 0.4,0.4 0.7,0.7 0.1,0.2 0.3,0.3 0.4,0.5 0.5,0.5 1,1.1 1.4,1.8 0.3,0.6 0.4,1.1 0.2,1.6 v 0 0 c 0,0 0,0.1 -0.1,0.1 0,0 0,0.1 -0.1,0.1 0,0.1 -0.2,0.2 -0.2,0.2 v 0 c 0,0 -0.1,0.1 -0.2,0.1 -0.1,0 -0.1,0.1 -0.2,0.1 -0.1,0 -0.2,0.1 -0.2,0.1 -0.1,0 -0.2,0.1 -0.3,0.1 v 0 c -0.1,0 -0.1,0 -0.2,0.1 v 0 c -0.1,0 -0.2,0.1 -0.3,0.1 -0.1,0 -0.2,0.1 -0.3,0.1 -0.1,0 -0.2,0 -0.3,0.1 -0.4,0.1 -0.9,0.1 -1.4,0.2 -0.1,0 -0.2,0 -0.3,0 0,0 -0.1,0 -0.1,0 -0.1,0 -0.2,0 -0.3,0 v 0 c -0.2,0.5 -0.4,0.5 -0.5,0.5 z"
         class="st1"
         inkscape:connector-curvature="0" /></g><g
       id="XMLID_2_"><g
         id="g29"><path
           style="fill:#ffffff"
           id="path31"
           d="m 122.8,30.7 c 0.1,-0.3 0.2,-0.5 0.2,-0.8 0,-0.2 0,-0.4 -0.1,-0.6 -0.2,-0.7 -0.8,-1.2 -1.5,-1.3 -0.1,0 -0.3,0 -0.4,0 -0.3,0 -0.5,0 -0.7,0.1 -0.6,0.2 -1,0.7 -1.2,1.3 -0.1,0.2 -0.1,0.4 -0.1,0.6 0,0.2 0,0.4 0.1,0.7 0.2,0.6 0.7,1.1 1.3,1.3 0.2,0.1 0.4,0.1 0.6,0.1 0.2,0 0.4,0 0.6,-0.1 0.5,-0.4 1,-0.8 1.2,-1.3 z m -1.7,-3.1 c 1.3,0 2.3,1 2.3,2.3 0,1.3 -1,2.3 -2.3,2.3 -1.3,0 -2.3,-1 -2.3,-2.3 0,-0.7 0.3,-1.3 0.8,-1.8 0.4,-0.1 0.8,-0.3 1.1,-0.4 0.1,0 0.3,-0.1 0.4,-0.1 z"
           class="st2"
           inkscape:connector-curvature="0" /></g><g
         id="g33"><path
           style="fill:#ffffff"
           id="path35"
           d="m 117.5,30.6 c 0.9,0 1.6,0.7 1.6,1.6 0,0.9 -0.7,1.6 -1.6,1.6 -0.9,0 -1.6,-0.7 -1.6,-1.6 0.1,-0.9 0.8,-1.6 1.6,-1.6 z m 0.9,1.5 c 0,-0.6 -0.5,-1.2 -1.2,-1.2 -0.6,0 -1.2,0.5 -1.2,1.2 0,0.6 0.5,1.2 1.2,1.2 0.7,0 1.2,-0.6 1.2,-1.2 z"
           class="st2"
           inkscape:connector-curvature="0" /></g><g
         id="g37"><path
           style="fill:#ffffff"
           id="path39"
           d="m 116.4,35.1 c -0.6,-1.2 -1.2,-2.4 -1.4,-3.7 -0.1,-0.5 -0.2,-0.9 -0.1,-1.4 0,0 0,-0.1 0,-0.1 0,-0.3 0.2,-0.6 0.5,-0.8 0.9,-0.2 1.8,-0.2 2.7,-0.4 0.5,-0.1 1,-0.3 1.5,-0.4 -0.5,0.4 -0.8,1.1 -0.8,1.8 0,1.3 1,2.3 2.3,2.3 1.3,0 2.3,-1 2.3,-2.3 0,-1.3 -1,-2.3 -2.3,-2.3 v 0 c 0.2,-0.1 0.5,-0.2 0.7,-0.3 0.4,-0.1 0.7,-0.3 1.1,-0.4 0.1,0 0.2,-0.1 0.3,-0.1 0,0.3 0.2,0.8 0.6,1.4 v 0 c 0.1,0.3 0.3,0.6 0.5,0.7 v 0 c 0.4,0.6 1,1.1 1.6,1.7 1.6,1.5 4,3.7 3,4.9 -1.5,1.2 -5.5,1 -6.8,0.9 -1.9,-0.2 -3.7,-0.5 -5.6,-1 0,-0.3 0,-0.4 -0.1,-0.5 z m 2.7,-3 c 0,-0.9 -0.7,-1.6 -1.6,-1.6 -0.9,0 -1.6,0.7 -1.6,1.6 0,0.9 0.7,1.6 1.6,1.6 0.9,0 1.6,-0.7 1.6,-1.6 z"
           class="st2"
           inkscape:connector-curvature="0" /></g><g
         id="g41"><path
           style="fill:#ffffff"
           id="path43"
           d="m 116,34.9 c -0.2,-0.2 -0.3,-0.4 -0.5,-0.6 -0.1,-0.1 -0.1,-0.2 -0.2,-0.3 -0.3,-0.4 -0.5,-0.9 -0.6,-1.4 -0.2,-0.5 -0.3,-1 -0.3,-1.5 0,-0.4 0.3,-0.8 0.5,-1.2 0,0 0,0.1 0,0.1 0,0.5 0,0.9 0.1,1.4 0.2,1.3 0.8,2.5 1.4,3.7 0,0 -0.1,0 -0.2,0 0,-0.1 -0.1,-0.1 -0.2,-0.2 0.1,0.1 0.1,0.1 0,0 0,0.1 0,0 0,0 z"
           class="st2"
           inkscape:connector-curvature="0" /></g><g
         id="g45"><path
           style="fill:#ffffff"
           id="path47"
           d="m 116.2,15.8 c -0.2,0.3 -0.4,0.7 -0.6,1.1 -0.3,0.5 -0.5,1.1 -0.7,1.7 -0.1,0.5 -0.2,0.9 -0.3,1.4 0,0.1 0,0.1 0,0.2 -0.1,-0.1 -0.2,-0.3 -0.2,-0.3 -0.1,-0.1 -0.1,-0.2 -0.2,-0.2 v 0 c 0,-0.4 0,-0.8 0.2,-1.2 0.1,-0.2 0.1,-0.5 0.2,-0.7 0,0 0,-0.1 0,-0.1 0,0 0,0 0,0 0,0 0,0 0,0 0.1,-0.2 0.2,-0.4 0.3,-0.6 0.2,-0.3 0.4,-0.7 0.6,-1 0.3,-0.4 0.4,-0.5 0.7,-0.3 z"
           class="st2"
           inkscape:connector-curvature="0" /></g><g
         id="g49"><path
           style="fill:#ffffff"
           id="path51"
           d="m 114.6,20.1 c 0,-0.1 0,-0.1 0,-0.2 0.1,-0.5 0.2,-0.9 0.3,-1.4 0.1,-0.6 0.4,-1.2 0.7,-1.7 0.2,-0.4 0.4,-0.7 0.6,-1.1 0.1,-0.2 0.3,-0.4 0.5,-0.6 1.9,-0.5 3.6,-0.8 5.5,-1 0.5,0 1.3,-0.1 2.3,-0.1 1.3,0 2.9,0.1 4,0.6 0,0 0,0 0,0 0,0 0,0 0,0 0.9,0.4 1,2.1 -0.9,3.9 -2,1.9 -3.7,4 -4.4,5.9 -0.4,-0.1 -0.9,-0.1 -1.3,-0.2 -1.3,-0.2 -2.4,-0.8 -3.5,-1.4 -1,-0.5 -2,-1 -3.2,-1.2 v 0 c -0.1,-0.3 -0.2,-0.5 -0.4,-0.8 -0.1,-0.2 -0.2,-0.4 -0.2,-0.7 z m 7.9,-2.2 c 0,-0.4 -0.3,-0.7 -0.7,-0.7 -0.4,0 -0.7,0.3 -0.7,0.7 0,0.4 0.3,0.7 0.7,0.7 0.4,0 0.7,-0.3 0.7,-0.7 z m -1.7,-1.6 c 0,-0.4 -0.3,-0.7 -0.7,-0.7 -0.4,0 -0.7,0.3 -0.7,0.7 0,0.4 0.3,0.7 0.7,0.7 0.4,0 0.7,-0.3 0.7,-0.7 z m -0.2,3 c 0,-0.4 -0.3,-0.7 -0.7,-0.7 -0.4,0 -0.7,0.3 -0.7,0.7 0,0.4 0.3,0.7 0.7,0.7 0.4,0 0.7,-0.3 0.7,-0.7 z m -1.5,-1.7 c 0,-0.4 -0.3,-0.7 -0.7,-0.7 -0.4,0 -0.7,0.3 -0.7,0.7 0,0.4 0.3,0.7 0.7,0.7 0.4,0 0.7,-0.3 0.7,-0.7 z"
           class="st2"
           inkscape:connector-curvature="0" /></g><g
         id="g53"><circle
           style="fill:#f6e220"
           id="circle55"
           r="0.69999999"
           cy="17.6"
           cx="118.4"
           class="st3" /></g><g
         id="g57"><circle
           style="fill:#e62f2f"
           id="circle59"
           r="0.69999999"
           cy="16.299999"
           cx="120.1"
           class="st4" /></g><g
         id="g61"><circle
           style="fill:#4856a4"
           id="circle63"
           r="0.69999999"
           cy="19.299999"
           cx="119.9"
           class="st5" /></g><g
         id="g65"><circle
           style="fill:#85c671"
           id="circle67"
           r="0.69999999"
           cy="17.9"
           cx="121.8"
           class="st6" /></g><g
         id="g69"><path
           style="fill:#8c8b8b"
           id="path71"
           d="m 123.6,26.5 c 0,0.1 0.1,0.1 0.1,0.2 -0.1,0.3 -0.1,0.7 0,1 0,0.1 0,0.3 0.1,0.4 -0.4,-0.6 -0.6,-1.1 -0.6,-1.4 0.1,-0.1 0.3,-0.1 0.4,-0.2 z"
           class="st7"
           inkscape:connector-curvature="0" /></g><g
         id="g73"><path
           style="fill:#8c8b8b"
           id="path75"
           d="m 129.2,33.3 c 0.5,1 0.3,1.7 -0.3,2.2 1,-1.2 -1.4,-3.4 -3,-4.9 -0.6,-0.6 -1.2,-1.2 -1.6,-1.7 v 0 c 0,0 0,0 0,0 0.3,0.1 0.5,-0.2 0.6,-0.4 0.4,0.4 0.7,0.9 1.1,1.3 0.6,0.6 1.2,1.2 1.7,1.8 0.6,0.4 1.1,1 1.5,1.7 z"
           class="st7"
           inkscape:connector-curvature="0" /></g><g
         id="g77"><path
           style="fill:#8c8b8b"
           id="path79"
           d="m 125,22.7 c -0.1,0.1 -0.2,0.2 -0.2,0.3 -0.4,0.5 -0.7,1 -1,1.6 -0.2,0 -0.3,-0.1 -0.5,-0.1 0.6,-1.9 2.4,-4 4.4,-5.9 1.9,-1.8 1.8,-3.5 0.9,-3.9 1.1,0.5 1.7,1.3 1,2.7 -0.4,0.7 -0.9,1.3 -1.4,1.9 -0.6,0.7 -1.2,1.3 -1.8,1.9 -0.6,0.5 -1,1 -1.4,1.5 z"
           class="st7"
           inkscape:connector-curvature="0" /></g><g
         id="g81"><path
           style="fill:#8c8b8b"
           id="path83"
           d="m 122.8,30.7 c -0.2,0.5 -0.7,0.9 -1.2,1.1 0,-0.8 0.4,-1 1.2,-1.1 z"
           class="st7"
           inkscape:connector-curvature="0" /></g><g
         id="g85"><path
           style="fill:#8c8b8b"
           id="path87"
           d="m 122.9,29.3 v 0 c -0.8,0.2 -1.7,-0.5 -1.5,-1.3 v 0 c 0.7,0.1 1.2,0.6 1.5,1.3 z"
           class="st7"
           inkscape:connector-curvature="0" /></g><g
         id="g89"><path
           style="fill:#8c8b8b"
           id="path91"
           d="m 119,30.6 c 0.9,-0.1 1.5,0.3 1.3,1.3 v 0 c -0.6,-0.3 -1.1,-0.8 -1.3,-1.3 z"
           class="st7"
           inkscape:connector-curvature="0" /></g><g
         id="g93"><path
           style="fill:#8c8b8b"
           id="path95"
           d="m 120.2,28 c 0,0.9 -0.3,1.1 -1.2,1.3 0.2,-0.6 0.6,-1.1 1.2,-1.3 z"
           class="st7"
           inkscape:connector-curvature="0" /></g><g
         id="g97"><path
           style="fill:#8c8b8b"
           id="path99"
           d="m 122.9,29.3 c 0.1,0.2 0.1,0.4 0.1,0.6 0,0.3 -0.1,0.6 -0.2,0.8 -0.8,0 -1.2,0.2 -1.2,1.1 -0.2,0.1 -0.4,0.1 -0.6,0.1 -0.2,0 -0.4,0 -0.6,-0.1 v 0 c 0.2,-0.9 -0.4,-1.3 -1.3,-1.3 -0.1,-0.2 -0.1,-0.4 -0.1,-0.7 0,-0.2 0,-0.4 0.1,-0.6 0.9,-0.2 1.2,-0.3 1.2,-1.3 0.2,-0.1 0.5,-0.1 0.7,-0.1 0.1,0 0.3,0 0.4,0 v 0 c -0.2,1 0.6,1.6 1.5,1.5 z"
           class="st7"
           inkscape:connector-curvature="0" /></g><g
         id="g101"><path
           style="fill:#8c8b8b"
           id="path103"
           d="m 121,20.9 c 0.6,0 1.2,0.5 1.2,1.2 0,0.6 -0.5,1.2 -1.2,1.2 -0.6,0 -1.2,-0.5 -1.2,-1.2 0.1,-0.7 0.6,-1.2 1.2,-1.2 z m 0.5,1.2 c 0,-0.4 -0.3,-0.7 -0.7,-0.7 -0.4,0 -0.7,0.3 -0.7,0.7 0,0.4 0.3,0.7 0.7,0.7 0.4,0 0.7,-0.4 0.7,-0.7 z"
           class="st7"
           inkscape:connector-curvature="0" /></g><path
         style="fill:#d55f66"
         id="path105"
         d="m 124.4,24.9 v 0 c -0.4,0.9 -1,1.3 -1.7,1.7 -0.3,0.2 -0.6,0.3 -1,0.5 -1.5,0.6 -3.2,0.8 -4.7,1.1 -2.1,0.5 -4.5,1 -6.3,2.4 v 0 c 1.3,-0.6 2.5,-1.2 3.9,-1.5 0.2,-0.1 0.5,-0.1 0.7,-0.1 0.9,-0.2 1.8,-0.2 2.7,-0.4 0.5,-0.1 1,-0.3 1.5,-0.4 0.4,-0.1 0.8,-0.3 1.1,-0.4 0.1,0 0.2,-0.1 0.3,-0.1 0.2,-0.1 0.5,-0.2 0.7,-0.3 0.4,-0.1 0.7,-0.3 1.1,-0.4 0.1,0 0.2,-0.1 0.3,-0.1 0.2,-0.1 0.3,-0.2 0.5,-0.3 0.1,-0.1 0.2,-0.1 0.3,-0.2 0.2,-0.1 0.3,-0.3 0.4,-0.5 0.3,-0.4 0.4,-0.8 0.2,-1 z"
         class="st8"
         inkscape:connector-curvature="0" /><g
         id="g107"><circle
           style="fill:#8c8b8b"
           id="circle109"
           r="0.69999999"
           cy="22.1"
           cx="120.8"
           class="st7" /></g><g
         id="g111"><path
           style="fill:#8c8b8b"
           id="path113"
           d="m 117.3,31 c 0.6,0 1.2,0.5 1.2,1.2 0,0.6 -0.5,1.2 -1.2,1.2 -0.6,0 -1.2,-0.5 -1.2,-1.2 0,-0.7 0.5,-1.2 1.2,-1.2 z m 0.4,1.1 c 0,-0.4 -0.3,-0.7 -0.7,-0.7 -0.4,0 -0.7,0.3 -0.7,0.7 0,0.4 0.3,0.7 0.7,0.7 0.4,0 0.7,-0.3 0.7,-0.7 z"
           class="st7"
           inkscape:connector-curvature="0" /></g><g
         id="g115"><circle
           style="fill:#8c8b8b"
           id="circle117"
           r="0.69999999"
           cy="32.099998"
           cx="117"
           class="st7" /></g><g
         style="opacity:0.2"
         id="g119"
         class="st9"><path
           style="fill:#facbcf"
           id="path121"
           d="m 114.7,17.6 c -0.1,0 -0.1,0 0,0 v 0 c -0.3,-0.6 -0.5,-1.3 -0.7,-2 -0.3,0.1 -0.5,0 -0.7,0 0.5,-0.7 0.7,-1.5 0.8,-2.4 0,-0.4 0.1,-1 0,-1.6 h 0.1 c 0,0.7 0.1,1.4 0.1,2.1 0,0.3 0.1,0.5 0.1,0.8 0.1,1 0.2,2 0.3,3.1 0,-0.1 0,0 0,0 z"
           class="st10"
           inkscape:connector-curvature="0" /></g><g
         id="g123"><path
           style="fill:#f2f2f3"
           id="path125"
           d="m 113.6,11.7 c 0.5,1.8 0,3.1 -0.7,3.6 -0.7,0.5 -1.2,0.2 -1.7,-0.4 1.3,0.4 -0.3,-3 -0.7,-1.9 0,-0.1 0,-0.2 -0.1,-0.4 -0.3,-1.8 -1,-4 0.6,-4 0.7,0.1 2.1,1 2.6,3.1 z"
           class="st11"
           inkscape:connector-curvature="0" /><path
           style="fill:#f2f2f3"
           id="path127"
           d="m 107.5,17.7 c 0.3,0.2 0.6,-0.1 0.7,-0.3 -0.4,0.7 -1,1.2 -1.8,1.5 -1.5,0.6 -3.6,-0.9 -3.6,-2.8 0,-1.8 0.1,-4.4 1.7,-4.4 1.4,0 2.9,0.9 3.7,2.5 -0.2,-0.3 -0.6,-0.5 -0.9,-0.2 -0.6,0.4 -0.7,1.3 -0.6,2 0,0.4 0.2,0.8 0.3,1.1 0.1,0.2 0.2,0.5 0.5,0.6 z"
           class="st11"
           inkscape:connector-curvature="0" /><path
           id="path129"
           d="m 108.3,17.3 c -0.1,0 -0.1,0 0,0 -0.2,0.3 -0.5,0.6 -0.8,0.4 -0.2,-0.1 -0.4,-0.4 -0.5,-0.6 -0.2,-0.4 -0.3,-0.7 -0.3,-1.1 -0.1,-0.7 0,-1.5 0.6,-2 0.4,-0.3 0.7,-0.1 0.9,0.2 0.1,0.3 0.2,0.6 0.3,0.9 0.2,0.8 0.1,1.5 -0.2,2.2 z"
           inkscape:connector-curvature="0" /><path
           id="path131"
           d="m 110.5,13 c 0.5,-1.1 2.1,2.4 0.7,1.9 -0.3,-0.4 -0.5,-1.1 -0.7,-1.9 z"
           inkscape:connector-curvature="0" /></g><path
         style="fill:#facbcf"
         id="path133"
         d="m 114.1,11.6 v 0 c -0.1,-1.4 -0.4,-2.9 -0.8,-3.9 -1.2,-2.5 -2.7,-1.2 -4.1,0.6 v 0 c 0.2,-0.5 0.4,-0.9 0.7,-1.3 0.2,-0.3 0.4,-0.6 0.7,-0.8 0.8,-0.6 1.8,-0.8 2.6,0 0.8,0.9 0.9,2.4 0.9,3.6 0,0.7 0,1.2 0,1.8 z"
         class="st10"
         inkscape:connector-curvature="0" /><path
         style="fill:#facbcf"
         id="path135"
         d="m 124.1,12.6 c 0.6,0.1 0.6,0.8 0.4,1.2 v 0 c -0.4,-1.9 -2.4,0.5 -3.7,-0.4 0.4,0 0.7,-0.1 1.1,-0.2 -1.2,-1.1 -2.5,-2.9 -4.3,-2.5 -0.1,0 -0.3,0.1 -0.4,0.1 0,0 0.1,-0.1 0.1,-0.1 0.4,-0.3 1,-0.7 1.5,-0.6 0.5,0.1 1,0.5 1.3,0.8 0.5,0.4 1,0.8 1.4,1.2 0.2,0.2 0.3,0.3 0.5,0.5 0.1,0.1 0.2,0.2 0.4,0.3 0.2,0.1 0.5,-0.1 0.7,-0.2 0.4,0 0.7,-0.2 1,-0.1 z"
         class="st10"
         inkscape:connector-curvature="0" /><path
         style="fill:#facbcf"
         id="path137"
         d="m 106.6,10.6 h 0.1 c 0,0.2 0,0.4 0,0.5 -2,-1.2 -4.2,-2 -5.8,0.2 0.3,-0.9 1,-1.7 2,-1.8 1.3,-0.1 2.6,0.7 3.7,1.1 z"
         class="st10"
         inkscape:connector-curvature="0" /><g
         id="g139"><linearGradient
           y2="30.080601"
           x2="113.4708"
           y1="30.080601"
           x1="105.4459"
           gradientUnits="userSpaceOnUse"
           id="SVGID_1_"><stop
             id="stop142"
             style="stop-color:#EB2027"
             offset="0" /><stop
             id="stop144"
             style="stop-color:#CE3128"
             offset="1" /></linearGradient><path
           style="fill:url(#SVGID_1_)"
           id="path146"
           d="m 105.6,30.5 c -0.4,-1.7 0.1,-3.5 1.1,-5 v 0 c 0.3,0.1 0.6,0.1 0.9,0.1 -1.1,3.4 1,7.5 4.5,8.3 0.5,0.1 1,0.1 1.5,0.2 -0.6,0.1 -1.3,0.3 -1.9,0.4 -1,0.2 -2.1,0.2 -3.1,-0.3 -0.9,-0.5 -1.8,-1.3 -2.3,-2.2 -0.4,-0.5 -0.6,-1 -0.7,-1.5 z"
           class="st12"
           inkscape:connector-curvature="0" /><linearGradient
           y2="15.7074"
           x2="108.7222"
           y1="15.7074"
           x1="90.912102"
           gradientUnits="userSpaceOnUse"
           id="SVGID_2_"><stop
             id="stop149"
             style="stop-color:#EB2027"
             offset="0" /><stop
             id="stop151"
             style="stop-color:#CE3128"
             offset="1" /></linearGradient><path
           style="fill:url(#SVGID_2_)"
           id="path153"
           d="m 104.5,24.7 c -0.3,-0.2 -0.6,-0.5 -0.8,-0.7 -0.3,-0.4 -0.5,-0.8 -0.7,-1.2 -0.1,0.2 -0.1,0.1 -0.2,0.3 -1.2,1.2 -2.5,2.4 -4.3,2.5 -2.2,0.1 -4.3,-1.4 -5.6,-3.1 -0.9,-1.1 -1.5,-2.5 -1.8,-4 -0.3,-1.7 -0.1,-3.4 0.6,-5 1.5,-3.7 4.9,-6.5 8.6,-7.6 0.2,0 0.3,-0.1 0.5,-0.1 -4.2,2.8 -5.8,5.8 -4.9,9.7 0.9,3.9 2.6,5.2 4.2,5.1 1.6,0 2.4,-0.6 2.3,-1.7 0.6,1 2.4,1.8 3.7,1.8 -2.5,1.6 0.4,4.4 2.6,4.9 0,0 0.1,0 0.1,0 -0.2,0.1 -0.3,0.1 -0.5,0.1 v 0 c -0.2,0 -0.5,0 -0.7,0 -0.3,0 -0.6,-0.1 -0.9,-0.1 -0.6,-0.1 -1.1,-0.3 -1.6,-0.6 -0.2,-0.1 -0.4,-0.2 -0.6,-0.3 z"
           class="st13"
           inkscape:connector-curvature="0" /><linearGradient
           y2="28.5863"
           x2="106.6571"
           y1="28.5863"
           x1="100.3793"
           gradientUnits="userSpaceOnUse"
           id="SVGID_3_"><stop
             id="stop156"
             style="stop-color:#EB2027"
             offset="0" /><stop
             id="stop158"
             style="stop-color:#CE3128"
             offset="1" /></linearGradient><path
           style="fill:url(#SVGID_3_)"
           id="path160"
           d="m 106.7,25.5 v 0 c -1,1.4 -1.5,3.3 -1.1,5 -0.8,0.6 -1.6,1.4 -2.6,1.8 -0.6,0.2 -1.2,0.3 -1.8,0.2 -0.4,-0.1 -0.8,-0.4 -0.8,-0.8 0,-0.4 0.4,-0.6 0.6,-0.7 0.3,-0.2 0.7,-0.3 0.9,-0.7 0.2,-0.4 0.1,-1 0.1,-1.5 -0.1,-0.6 -0.1,-1.2 0,-1.8 0.3,-1.2 1.6,-1.7 2.6,-2.3 0.2,0.1 0.3,0.2 0.5,0.3 0.4,0.3 1,0.4 1.6,0.5 z"
           class="st14"
           inkscape:connector-curvature="0" /></g></g><g
       id="g162"><ellipse
         style="fill:#ffffff"
         id="ellipse164"
         ry="0.69999999"
         rx="0.30000001"
         cy="15.2"
         cx="108"
         class="st2" /></g><g
       id="g166"><ellipse
         style="fill:#ffffff"
         id="ellipse168"
         ry="0.40000001"
         rx="0.2"
         cy="13.7"
         cx="111.2"
         class="st2"
         transform="matrix(0.9331,-0.3596,0.3596,0.9331,2.5161,40.9033)" /></g><g
       id="g170"><path
         id="path172"
         d="m 98.3,25.6 c -1.9,0 -4,-1.1 -5.5,-3.1 -0.9,-1.2 -1.6,-2.6 -1.8,-4 -0.3,-1.6 -0.1,-3.4 0.6,-5 1.4,-3.6 4.7,-6.5 8.7,-7.7 1.7,-0.5 3.6,-0.6 5.3,-0.3 1.6,0.3 2.9,0.9 4.4,1.5 l -0.1,0.2 C 108.4,6.5 107.2,6 105.5,5.7 103.8,5.4 102,5.5 100.3,6 c -3.9,1.2 -7.2,4.1 -8.6,7.6 -0.6,1.6 -0.8,3.3 -0.6,4.9 0.2,1.4 0.9,2.8 1.8,3.9 1.6,2 3.6,3.1 5.6,3 1.8,-0.1 3.1,-1.2 4.3,-2.5 0.1,-0.2 0.2,-0.3 0.2,-0.3 l 0.1,0.1 c 0,0 -0.1,0.1 -0.2,0.3 -1.2,1.3 -2.5,2.5 -4.4,2.5 -0.1,0.1 -0.1,0.1 -0.2,0.1 z"
         inkscape:connector-curvature="0" /></g><g
       id="g174"><path
         id="path176"
         d="m 108.8,9.4 c 0,0 0.1,-0.3 0.2,-0.7 0.1,-0.2 0.2,-0.5 0.3,-0.8 0.1,-0.3 0.3,-0.7 0.6,-1 0.1,-0.2 0.3,-0.3 0.5,-0.5 0.2,-0.2 0.4,-0.3 0.6,-0.4 0.4,-0.2 1,-0.4 1.6,-0.2 0.3,0.1 0.5,0.3 0.7,0.5 0.2,0.2 0.3,0.5 0.5,0.7 0.2,0.5 0.3,1.1 0.4,1.7 0.1,0.6 0.1,1.1 0.1,1.7 0,0.6 0,1.1 0.1,1.6 0,0.5 0.1,1 0.1,1.5 0.1,0.5 0.1,0.9 0.1,1.4 0.2,1.7 0.3,2.8 0.3,2.8 h -0.2 c 0,0 -0.1,-1.1 -0.3,-2.8 0,-0.4 -0.1,-0.9 -0.1,-1.4 0,-0.5 -0.1,-1 -0.1,-1.5 0,-0.5 0,-1.1 -0.1,-1.6 0,-0.6 0,-1.1 -0.1,-1.7 -0.1,-0.6 -0.2,-1.1 -0.4,-1.6 -0.2,-0.5 -0.6,-0.9 -1,-1.1 -0.5,-0.2 -1,-0.1 -1.4,0.1 -0.2,0.1 -0.4,0.2 -0.5,0.4 -0.2,0.2 -0.3,0.3 -0.4,0.5 -0.3,0.3 -0.5,0.6 -0.6,0.9 -0.2,0.3 -0.3,0.6 -0.4,0.8 -0.4,0.5 -0.5,0.7 -0.5,0.7 z"
         inkscape:connector-curvature="0" /></g><g
       id="g178"><path
         id="path180"
         d="m 106.6,10.6 c 0,0 -0.2,-0.1 -0.4,-0.2 -0.3,-0.1 -0.7,-0.3 -1.1,-0.5 -0.5,-0.2 -1,-0.3 -1.7,-0.4 -0.2,0 -0.3,0 -0.5,0 -0.1,0 -0.2,0 -0.2,0 l -0.2,0.1 c -0.3,0.1 -0.6,0.3 -0.8,0.5 -0.4,0.5 -0.7,1.1 -0.8,1.7 -0.1,0.6 -0.2,1.2 -0.2,1.7 0,0.5 0.1,0.9 0.1,1.2 0,0.3 0.1,0.5 0.1,0.5 0,0 0,-0.2 -0.1,-0.5 -0.1,-0.3 -0.2,-0.7 -0.2,-1.2 0,-0.5 -0.1,-1.1 0.1,-1.8 0.1,-0.6 0.4,-1.3 0.9,-1.8 0.2,-0.3 0.5,-0.5 0.9,-0.6 0.1,0 0.2,-0.1 0.3,-0.1 0.1,0 0.2,0 0.2,0 0.2,0 0.3,0 0.5,0 0.3,0 0.6,0.1 0.9,0.2 0.3,0.1 0.5,0.2 0.8,0.3 0.5,0.2 0.8,0.4 1.1,0.5 0.2,0.4 0.3,0.4 0.3,0.4 z"
         inkscape:connector-curvature="0" /></g><g
       id="g182"><path
         id="path184"
         d="m 105.7,19.1 c -0.5,0 -1.1,-0.2 -1.6,-0.5 -0.9,-0.6 -1.4,-1.5 -1.4,-2.5 0,-1.5 0,-4.6 1.8,-4.6 1.5,0 3.5,1.2 4.1,3.5 0.4,1.7 -0.4,3.3 -2.2,4 -0.2,0.1 -0.5,0.1 -0.7,0.1 z m -1.2,-7.3 c -1.4,0 -1.6,2.2 -1.6,4.3 0,0.9 0.5,1.7 1.3,2.3 0.7,0.5 1.5,0.6 2.1,0.4 1.6,-0.6 2.4,-2.1 2,-3.7 -0.5,-2.1 -2.3,-3.3 -3.8,-3.3 z"
         inkscape:connector-curvature="0" /></g><g
       id="g186"><path
         id="path188"
         d="m 112.2,15.7 c -0.1,0 -0.3,0 -0.4,-0.1 -0.7,-0.3 -1.2,-1.4 -1.5,-2.9 0,-0.3 -0.1,-0.5 -0.1,-0.8 -0.2,-1.2 -0.4,-2.4 0,-3 0.2,-0.2 0.5,-0.3 0.8,-0.3 0.7,0 2.1,0.9 2.7,3.1 0.5,1.9 0,3.3 -0.8,3.8 -0.2,0.1 -0.4,0.2 -0.7,0.2 z m -1.1,-6.9 c -0.3,0 -0.5,0.1 -0.7,0.3 -0.4,0.5 -0.2,1.7 0,2.8 0,0.3 0.1,0.5 0.1,0.8 0.2,1.4 0.7,2.5 1.3,2.7 0.3,0.1 0.6,0.1 1,-0.2 0.6,-0.4 1.1,-1.7 0.7,-3.5 -0.5,-2.1 -1.8,-2.9 -2.4,-2.9 z"
         inkscape:connector-curvature="0" /></g><g
       id="g190"><path
         id="path192"
         d="m 108.3,25.7 c 0,0 -0.1,0 -0.3,0 -0.2,0 -0.5,0 -0.8,0 -0.2,0 -0.3,0 -0.5,-0.1 -0.2,0 -0.4,-0.1 -0.6,-0.1 -0.4,-0.1 -0.8,-0.3 -1.2,-0.5 -0.4,-0.2 -0.7,-0.5 -1,-0.8 -0.1,-0.1 -0.3,-0.3 -0.4,-0.5 -0.1,-0.2 -0.2,-0.3 -0.3,-0.5 -0.1,-0.2 -0.1,-0.3 -0.1,-0.5 0,-0.1 0,-0.1 0,-0.2 0,-0.1 0,-0.1 0,-0.2 0,-0.2 0,-0.3 0,-0.3 0,0 0,0.1 0.1,0.3 0,0.1 0.1,0.2 0.1,0.3 0,0.1 0.1,0.3 0.2,0.4 0.1,0.1 0.1,0.3 0.2,0.4 0.1,0.1 0.2,0.3 0.4,0.4 0.3,0.3 0.6,0.6 1,0.8 0.4,0.2 0.8,0.4 1.2,0.5 0.4,0.1 0.8,0.2 1.1,0.3 0.3,0.1 0.6,0.1 0.8,0.1 0,0.2 0.1,0.2 0.1,0.2 z"
         inkscape:connector-curvature="0" /></g><g
       id="g194"><path
         id="path196"
         d="m 114.4,14.5 -0.1,-0.1 c 0.9,-1.6 1.8,-2.7 3.1,-3.6 0.5,-0.4 1,-0.7 1.6,-0.6 0.5,0.1 0.9,0.4 1.3,0.7 l 0.1,0.1 c 0.5,0.4 1,0.9 1.4,1.2 0.1,0.1 0.2,0.2 0.3,0.3 l 0.2,0.2 c 0.1,0.1 0.2,0.2 0.3,0.2 0.2,0.1 0.3,0 0.5,-0.1 h 0.1 c 0.3,-0.1 0.6,-0.3 1,-0.3 0.2,0 0.4,0.1 0.5,0.3 0.2,0.4 0,1.1 -0.1,1.3 L 124.4,14 c 0.2,-0.4 0.3,-0.9 0.1,-1.2 -0.1,-0.1 -0.2,-0.2 -0.4,-0.2 -0.3,0 -0.6,0.1 -0.9,0.3 h -0.1 c -0.2,0.1 -0.4,0.2 -0.7,0.1 -0.1,-0.1 -0.2,-0.2 -0.3,-0.3 l -0.2,-0.2 c -0.1,-0.1 -0.2,-0.2 -0.3,-0.3 -0.4,-0.4 -0.9,-0.8 -1.4,-1.2 l -0.1,-0.1 c -0.3,-0.3 -0.7,-0.6 -1.2,-0.7 -0.5,-0.1 -1,0.3 -1.5,0.6 -1.2,1 -2.1,2.1 -3,3.7 z"
         inkscape:connector-curvature="0" /></g><g
       id="g198"><path
         id="path200"
         d="m 101.8,32.6 c -0.2,0 -0.4,0 -0.6,-0.1 -0.4,-0.1 -0.9,-0.4 -0.8,-0.9 0,-0.4 0.5,-0.7 0.7,-0.8 l 0.1,-0.1 c 0.3,-0.2 0.6,-0.3 0.7,-0.6 0.2,-0.4 0.1,-0.8 0.1,-1.3 v -0.3 c -0.1,-0.6 -0.1,-1.1 0,-1.7 0.3,-1.1 1.3,-1.6 2.3,-2.1 0.1,-0.1 0.2,-0.1 0.3,-0.2 l 0.1,0.1 c -0.1,0.1 -0.2,0.1 -0.3,0.2 -0.9,0.5 -1.9,1 -2.2,2 -0.1,0.5 -0.1,1.1 0,1.6 v 0.3 c 0,0.4 0.1,0.9 -0.1,1.4 -0.2,0.3 -0.5,0.5 -0.8,0.7 l -0.1,0.1 c -0.3,0.2 -0.6,0.4 -0.6,0.7 0,0.4 0.4,0.6 0.7,0.7 0.6,0.2 1.3,0 1.8,-0.2 0.8,-0.3 1.4,-0.8 2.1,-1.4 0.2,-0.1 0.3,-0.3 0.5,-0.4 l 0.1,0.1 c -0.2,0.1 -0.3,0.2 -0.5,0.4 -0.7,0.5 -1.4,1.1 -2.1,1.4 -0.5,0.3 -1,0.4 -1.4,0.4 z"
         inkscape:connector-curvature="0" /></g><g
       id="g202"><path
         id="path204"
         d="m 110.3,34.7 c -0.7,0 -1.3,-0.1 -1.9,-0.4 -0.9,-0.5 -1.8,-1.3 -2.3,-2.3 -1.1,-1.9 -0.9,-4.4 0.5,-6.6 l 0.2,0.1 c -1.1,1.6 -1.8,4.2 -0.5,6.3 0.6,0.9 1.4,1.7 2.3,2.2 0.8,0.4 1.8,0.5 3,0.3 0.3,-0.1 0.7,-0.1 1,-0.2 0.5,-0.1 1,-0.2 1.5,-0.3 V 34 c -0.4,0.1 -1,0.2 -1.5,0.3 -0.4,0.1 -0.7,0.2 -1,0.2 -0.5,0.2 -0.9,0.2 -1.3,0.2 z"
         inkscape:connector-curvature="0" /></g><g
       id="g206"><path
         id="path208"
         d="m 113.7,33.5 c 0,0 0,0 0,0 0.1,0 0.1,0.1 0.1,0.1 0.1,0.1 0.2,0.2 0.3,0.3 0.1,0.1 0.2,0.3 0.2,0.5 0,0.2 0.1,0.4 0.2,0.5 0.1,0.1 0.1,0.1 0.2,0.1 0,0 0.1,0 0.1,0 0.1,0 0.1,0 0.1,0 0.2,0 0.4,0 0.5,-0.1 0.1,0 0.3,-0.1 0.3,-0.2 0.1,-0.1 0.1,-0.1 0.1,-0.1 l 0.1,0.1 c 0,0 0,0 -0.1,0.1 -0.1,0.1 -0.2,0.1 -0.4,0.2 -0.2,0 -0.4,0.1 -0.6,0.1 -0.1,0 -0.1,0 -0.2,0 -0.1,0 -0.1,0 -0.2,0 -0.1,0 -0.2,-0.1 -0.3,-0.2 -0.1,-0.1 -0.1,-0.2 -0.2,-0.3 0,-0.1 -0.1,-0.2 -0.1,-0.3 0,-0.2 -0.1,-0.4 -0.1,-0.5 -0.1,-0.1 -0.1,-0.3 -0.2,-0.3 0.3,0.1 0.3,0 0.2,0 0,0 0,0 0,0 z"
         inkscape:connector-curvature="0" /></g><g
       id="g210"><path
         id="path212"
         d="m 109.6,23.3 c 0,0 0.1,-0.1 0.3,-0.2 0.2,-0.1 0.5,-0.3 0.9,-0.5 0.4,-0.2 0.8,-0.5 1.4,-0.7 0.6,-0.2 1.2,-0.4 2,-0.4 0.8,0 1.6,0.1 2.4,0.4 0.8,0.3 1.6,0.7 2.4,1.1 0.8,0.4 1.7,0.8 2.6,1 0.5,0.1 0.9,0.2 1.4,0.2 0.2,0 0.5,0.1 0.7,0.1 0.2,0 0.5,0.1 0.7,0.3 0.1,0.1 0.2,0.2 0.2,0.4 0,0.1 0,0.3 0,0.4 0,0.1 -0.1,0.3 -0.2,0.4 -0.1,0.1 -0.2,0.2 -0.2,0.3 -0.4,0.4 -0.8,0.6 -1.2,0.8 -0.9,0.4 -1.8,0.7 -2.6,1.1 -0.9,0.3 -1.7,0.6 -2.5,0.8 -0.8,0.2 -1.6,0.2 -2.3,0.4 -0.7,0.1 -1.4,0.3 -1.9,0.5 -0.6,0.2 -1,0.4 -1.4,0.5 -0.8,0.3 -1.2,0.5 -1.2,0.5 0,0 0.1,-0.1 0.3,-0.2 0.2,-0.1 0.5,-0.3 0.9,-0.4 0.4,-0.2 0.9,-0.4 1.4,-0.6 0.3,-0.1 0.6,-0.2 0.9,-0.3 0.3,-0.1 0.7,-0.2 1,-0.2 0.7,-0.1 1.5,-0.2 2.3,-0.4 0.8,-0.2 1.7,-0.4 2.5,-0.8 0.8,-0.3 1.7,-0.7 2.6,-1.1 0.4,-0.2 0.9,-0.4 1.2,-0.8 0.2,-0.2 0.3,-0.4 0.3,-0.6 0.1,-0.2 0,-0.4 -0.1,-0.5 -0.3,-0.3 -0.9,-0.2 -1.4,-0.3 -0.5,-0.1 -1,-0.1 -1.4,-0.2 -0.9,-0.2 -1.8,-0.7 -2.6,-1.1 -0.8,-0.4 -1.6,-0.8 -2.4,-1.1 -0.8,-0.3 -1.6,-0.4 -2.3,-0.4 -0.4,0 -0.7,0.1 -1,0.1 -0.3,0.1 -0.6,0.1 -0.9,0.2 -0.6,0.2 -1,0.4 -1.4,0.6 -1,0.5 -1.4,0.7 -1.4,0.7 z"
         inkscape:connector-curvature="0" /></g><g
       id="g214"><path
         id="path216"
         d="m 126.3,26.9 c -0.1,0 -0.2,0 -0.3,-0.1 -0.2,0 -0.3,-0.1 -0.5,0 l -0.1,-0.1 c 0.2,-0.1 0.4,-0.1 0.6,0 0.2,0 0.3,0.1 0.5,0 0.9,-0.4 1.4,-1.4 1.1,-2.4 -0.2,-0.6 -0.8,-0.9 -1.2,-1.1 -0.4,-0.2 -0.6,-0.2 -0.9,-0.3 -0.2,0 -0.3,-0.1 -0.5,-0.2 l 0.1,-0.2 c 0.2,0.1 0.4,0.1 0.5,0.2 0.3,0.1 0.6,0.2 1,0.3 0.5,0.2 1.1,0.5 1.3,1.2 0.3,1 -0.3,2.2 -1.2,2.6 -0.2,0.1 -0.3,0.1 -0.4,0.1 z"
         inkscape:connector-curvature="0" /></g><g
       id="g218"><path
         id="path220"
         d="m 123.9,26.3 c 0,0 0,0.1 -0.1,0.2 0,0.2 -0.1,0.4 -0.1,0.7 0,0.3 0,0.6 0.1,0.9 0.1,0.2 0.1,0.3 0.2,0.5 0.1,0.1 0.1,0.1 0.2,0.1 h 0.1 c 0,0 0,0 0.1,0 0,0 0.1,0 0.1,0 0.1,0 0.3,-0.2 0.3,-0.4 0.1,-0.2 0.1,-0.3 0.2,-0.5 0.1,-0.3 0.2,-0.7 0.3,-0.9 0.1,-0.3 0.2,-0.5 0.3,-0.6 0.1,-0.1 0.1,-0.2 0.1,-0.2 0,0 -0.1,0.4 -0.3,0.9 -0.1,0.3 -0.2,0.6 -0.3,0.9 -0.1,0.2 -0.1,0.3 -0.2,0.5 -0.1,0.2 -0.2,0.4 -0.4,0.4 -0.1,0 -0.1,0 -0.2,0 0,0 0,0 -0.1,0 h -0.1 c -0.1,0 -0.2,-0.1 -0.3,-0.2 -0.1,-0.2 -0.2,-0.3 -0.3,-0.5 -0.1,-0.4 -0.1,-0.7 -0.1,-1 0,-0.3 0.1,-0.5 0.1,-0.7 0,-0.2 0.1,-0.3 0.1,-0.3 z"
         inkscape:connector-curvature="0" /></g><g
       id="g222"><rect
         id="rect224"
         height="0.30000001"
         width="0.2"
         transform="matrix(0.8443,-0.5358,0.5358,0.8443,5.014,70.398)"
         y="26.4"
         x="123.6" /></g><g
       id="g226"><path
         id="path228"
         d="m 123.8,24.6 -0.2,-0.1 c 0.3,-0.6 0.7,-1 1,-1.6 0.4,-0.5 0.9,-1.1 1.5,-1.8 0.2,-0.2 0.5,-0.5 0.7,-0.7 0.4,-0.4 0.7,-0.8 1.1,-1.2 0.5,-0.6 1,-1.2 1.4,-1.9 0.4,-0.7 0.4,-1.3 0.1,-1.8 -1.2,-1.7 -6.6,-1.3 -7.2,-1.3 -1.8,0.2 -3.4,0.4 -5.5,1 -0.4,0.5 -0.7,1 -1,1.7 -0.3,0.6 -0.5,1.1 -0.7,1.7 v 0.1 c -0.1,0.4 -0.2,0.8 -0.3,1.2 0,0.3 0,0.6 0.2,0.9 l 0.1,0.1 c 0.1,0.2 0.2,0.4 0.4,0.7 l -0.2,0.1 C 115.1,21.4 115,21.3 114.9,21 l -0.1,-0.1 c -0.2,-0.3 -0.3,-0.6 -0.2,-1 0.1,-0.4 0.2,-0.8 0.3,-1.3 v -0.1 c 0.1,-0.6 0.4,-1.1 0.7,-1.7 0.4,-0.7 0.7,-1.3 1.1,-1.7 v 0 0 c 2.1,-0.5 3.7,-0.8 5.6,-1 1,-0.1 6.2,-0.4 7.4,1.4 0.4,0.5 0.4,1.2 0,2 -0.4,0.7 -0.9,1.4 -1.4,2 -0.4,0.4 -0.7,0.8 -1.1,1.2 -0.2,0.2 -0.5,0.5 -0.7,0.7 -0.6,0.7 -1.1,1.2 -1.5,1.7 -0.5,0.5 -0.8,1 -1.2,1.5 z"
         inkscape:connector-curvature="0" /></g><g
       id="g230"><path
         id="path232"
         d="m 114.6,20.2 c 0,0 -0.2,-0.3 -0.2,-0.3 0,0 -0.1,-0.1 -0.1,-0.1 0,0 -0.1,-0.1 -0.1,-0.1 l 0.1,-0.1 c 0,0 0.1,0.1 0.1,0.1 0,0 0.1,0.1 0.1,0.1 0,0 0.2,0.3 0.3,0.4 z"
         inkscape:connector-curvature="0" /></g><g
       id="g234"><path
         id="path236"
         d="m 114.2,19.7 c -0.1,0 -0.1,0 -0.1,-0.1 0,-0.5 0,-0.8 0.2,-1.2 0.2,-0.6 0.4,-1.1 0.6,-1.5 0.2,-0.3 0.4,-0.6 0.6,-1 0.2,-0.3 0.4,-0.4 0.7,-0.2 0.1,0 0.1,0.1 0.1,0.1 0,0.1 -0.1,0.1 -0.1,0.1 -0.2,-0.1 -0.3,-0.1 -0.5,0.2 -0.3,0.4 -0.5,0.7 -0.6,1 -0.2,0.4 -0.4,0.8 -0.6,1.4 -0.1,0.4 -0.2,0.7 -0.2,1.1 0,0 0,0.1 -0.1,0.1 0,0 0,0 0,0 z"
         inkscape:connector-curvature="0" /></g><g
       id="g238"><path
         id="path240"
         d="m 124.1,36.6 c -0.9,0 -1.7,-0.1 -2,-0.1 -2.1,-0.2 -4.1,-0.6 -5.6,-1 h -0.1 v 0 c -0.1,-0.1 -1.3,-2.6 -1.6,-4 v -0.1 c -0.1,-0.4 -0.1,-0.9 -0.1,-1.4 0,-0.4 0.2,-0.8 0.5,-1 l 0.1,0.2 c -0.3,0.2 -0.4,0.5 -0.5,0.9 0,0.4 0,0.9 0.1,1.3 v 0.1 c 0.2,1.3 1.3,3.6 1.5,3.9 1.5,0.4 3.4,0.8 5.5,1 0.6,0.1 5.9,0.4 7,-1.2 0.3,-0.4 0.3,-1 -0.1,-1.7 -0.3,-0.7 -0.9,-1.3 -1.4,-1.8 -0.3,-0.4 -0.7,-0.7 -1.1,-1.1 -0.2,-0.2 -0.5,-0.5 -0.7,-0.7 -0.5,-0.5 -0.8,-0.9 -1.1,-1.3 l 0.2,-0.1 c 0.3,0.4 0.7,0.8 1.1,1.3 0.2,0.2 0.5,0.5 0.7,0.7 0.4,0.4 0.7,0.7 1.1,1.1 0.5,0.6 1,1.2 1.4,1.9 0.4,0.8 0.4,1.4 0.1,1.9 -0.5,0.9 -3.1,1.2 -5,1.2 z"
         inkscape:connector-curvature="0" /></g><g
       id="g242"><path
         id="path244"
         d="m 116.3,35.1 c 0,0 -0.1,0 0,0 L 116,35 v 0 c 0,-0.1 -0.1,-0.1 -0.2,-0.2 -0.2,-0.2 -0.4,-0.5 -0.6,-0.8 -0.3,-0.4 -0.5,-0.9 -0.6,-1.4 -0.2,-0.5 -0.3,-1.1 -0.3,-1.6 0,-0.4 0.3,-0.9 0.5,-1.2 v 0 L 115,30 v 0 c -0.2,0.3 -0.5,0.7 -0.5,1.1 0,0.5 0.1,1 0.3,1.5 0.2,0.5 0.4,0.9 0.6,1.4 0.2,0.3 0.3,0.5 0.5,0.7 0,0.1 0.1,0.1 0.1,0.2 h 0.1 c 0,0 0.1,0 0.1,0 0,0 0.1,0 0.1,0 v 0.2 c 0.1,0 0.1,0 0,0 0,0 0,0 0,0 z"
         inkscape:connector-curvature="0" /></g><g
       id="g246"><path
         style="fill:none;stroke:#231f20;stroke-width:0.3161;stroke-miterlimit:10"
         id="path248"
         d="M 123.7,26.7"
         class="st15"
         inkscape:connector-curvature="0" /></g><g
       id="g250"><path
         id="path252"
         d="m 107.7,17.8 c -0.1,0 -0.2,0 -0.3,-0.1 -0.3,-0.1 -0.4,-0.4 -0.5,-0.7 -0.2,-0.4 -0.3,-0.7 -0.3,-1.2 0,-0.3 -0.1,-1.5 0.6,-2.1 0.3,-0.2 0.7,-0.3 1.1,0.3 l -0.1,0.1 c -0.4,-0.5 -0.7,-0.4 -0.8,-0.2 -0.7,0.5 -0.6,1.6 -0.5,1.9 0,0.4 0.2,0.8 0.3,1.1 0.1,0.2 0.3,0.5 0.5,0.6 0.3,0.1 0.4,0 0.6,-0.4 v 0 h 0.1 V 17 17.2 17 h 0.1 l -0.1,0.1 c -0.3,0.5 -0.4,0.7 -0.7,0.7 z"
         inkscape:connector-curvature="0" /></g><g
       id="g254"><path
         id="path256"
         d="m 111.5,15.1 c -0.1,0 -0.1,0 -0.2,0 v -0.2 c 0.3,0.1 0.3,0 0.3,-0.1 0.2,-0.4 -0.4,-1.7 -0.8,-1.9 -0.1,0 -0.2,0 -0.2,0.1 l -0.1,-0.1 c 0.1,-0.2 0.3,-0.3 0.5,-0.2 0.5,0.2 1.1,1.6 0.9,2.1 -0.1,0.1 -0.2,0.3 -0.4,0.3 z"
         inkscape:connector-curvature="0" /></g><g
       id="g258"><path
         id="path260"
         d="m 117,32.9 c -0.4,0 -0.8,-0.4 -0.8,-0.8 0,-0.4 0.4,-0.8 0.8,-0.8 0.4,0 0.8,0.4 0.8,0.8 0,0.4 -0.3,0.8 -0.8,0.8 z m 0,-1.4 c -0.3,0 -0.6,0.3 -0.6,0.6 0,0.3 0.3,0.6 0.6,0.6 0.3,0 0.6,-0.3 0.6,-0.6 0,-0.3 -0.2,-0.6 -0.6,-0.6 z"
         inkscape:connector-curvature="0" /></g><g
       id="g262"><path
         id="path264"
         d="m 118.4,18.4 c -0.4,0 -0.8,-0.4 -0.8,-0.8 0,-0.4 0.4,-0.8 0.8,-0.8 0.4,0 0.8,0.4 0.8,0.8 0,0.4 -0.4,0.8 -0.8,0.8 z m 0,-1.4 c -0.3,0 -0.6,0.3 -0.6,0.6 0,0.3 0.3,0.6 0.6,0.6 0.3,0 0.6,-0.3 0.6,-0.6 0,-0.3 -0.2,-0.6 -0.6,-0.6 z"
         inkscape:connector-curvature="0" /></g><g
       id="g266"><path
         id="path268"
         d="m 120.1,17.1 c -0.4,0 -0.8,-0.4 -0.8,-0.8 0,-0.4 0.4,-0.8 0.8,-0.8 0.4,0 0.8,0.4 0.8,0.8 0,0.4 -0.4,0.8 -0.8,0.8 z m 0,-1.4 c -0.3,0 -0.6,0.3 -0.6,0.6 0,0.3 0.3,0.6 0.6,0.6 0.3,0 0.6,-0.3 0.6,-0.6 0,-0.4 -0.2,-0.6 -0.6,-0.6 z"
         inkscape:connector-curvature="0" /></g><g
       id="g270"><path
         id="path272"
         d="m 119.9,20.1 c -0.4,0 -0.8,-0.4 -0.8,-0.8 0,-0.4 0.4,-0.8 0.8,-0.8 0.4,0 0.8,0.4 0.8,0.8 0,0.4 -0.4,0.8 -0.8,0.8 z m 0,-1.4 c -0.3,0 -0.6,0.3 -0.6,0.6 0,0.3 0.3,0.6 0.6,0.6 0.3,0 0.6,-0.3 0.6,-0.6 0,-0.3 -0.3,-0.6 -0.6,-0.6 z"
         inkscape:connector-curvature="0" /></g><g
       id="g274"><path
         id="path276"
         d="m 121.8,18.7 c -0.4,0 -0.8,-0.4 -0.8,-0.8 0,-0.4 0.4,-0.8 0.8,-0.8 0.4,0 0.8,0.4 0.8,0.8 0,0.4 -0.4,0.8 -0.8,0.8 z m 0,-1.4 c -0.3,0 -0.6,0.3 -0.6,0.6 0,0.3 0.3,0.6 0.6,0.6 0.3,0 0.6,-0.3 0.6,-0.6 0,-0.3 -0.3,-0.6 -0.6,-0.6 z"
         inkscape:connector-curvature="0" /></g><g
       id="g278"><path
         id="path280"
         d="m 117.3,33.3 c -0.7,0 -1.2,-0.6 -1.2,-1.2 0,-0.7 0.6,-1.2 1.2,-1.2 0.7,0 1.2,0.6 1.2,1.2 0,0.7 -0.6,1.2 -1.2,1.2 z m 0,-2.3 c -0.6,0 -1.1,0.5 -1.1,1.1 0,0.6 0.5,1.1 1.1,1.1 0.6,0 1.1,-0.5 1.1,-1.1 0,-0.6 -0.6,-1.1 -1.1,-1.1 z"
         inkscape:connector-curvature="0" /></g><g
       id="g282"><path
         id="path284"
         d="m 117.5,33.8 c -0.9,0 -1.7,-0.7 -1.7,-1.7 0,-0.9 0.7,-1.7 1.7,-1.7 0.9,0 1.7,0.7 1.7,1.7 0,0.9 -0.7,1.7 -1.7,1.7 z m 0,-3.2 c -0.8,0 -1.5,0.7 -1.5,1.5 0,0.8 0.7,1.5 1.5,1.5 0.8,0 1.5,-0.7 1.5,-1.5 0,-0.8 -0.6,-1.5 -1.5,-1.5 z"
         inkscape:connector-curvature="0" /></g><g
       id="g286"><path
         id="path288"
         d="m 120.8,22.8 c -0.4,0 -0.8,-0.4 -0.8,-0.8 0,-0.4 0.4,-0.8 0.8,-0.8 0.4,0 0.8,0.4 0.8,0.8 0,0.5 -0.4,0.8 -0.8,0.8 z m 0,-1.4 c -0.3,0 -0.6,0.3 -0.6,0.6 0,0.3 0.3,0.6 0.6,0.6 0.3,0 0.6,-0.3 0.6,-0.6 0,-0.3 -0.2,-0.6 -0.6,-0.6 z"
         inkscape:connector-curvature="0" /></g><g
       id="g290"><path
         id="path292"
         d="m 121,23.3 c -0.7,0 -1.2,-0.6 -1.2,-1.2 0,-0.7 0.6,-1.2 1.2,-1.2 0.6,0 1.2,0.6 1.2,1.2 0.1,0.6 -0.5,1.2 -1.2,1.2 z m 0,-2.3 c -0.6,0 -1.1,0.5 -1.1,1.1 0,0.6 0.5,1.1 1.1,1.1 0.6,0 1.1,-0.5 1.1,-1.1 0,-0.6 -0.5,-1.1 -1.1,-1.1 z"
         inkscape:connector-curvature="0" /></g><g
       id="g294"><path
         id="path296"
         d="m 121.3,23.7 c -0.9,0 -1.7,-0.7 -1.7,-1.7 0,-0.9 0.7,-1.7 1.7,-1.7 0.9,0 1.7,0.7 1.7,1.7 0,1 -0.8,1.7 -1.7,1.7 z m 0,-3.1 c -0.8,0 -1.5,0.7 -1.5,1.5 0,0.8 0.7,1.5 1.5,1.5 0.8,0 1.5,-0.7 1.5,-1.5 0,-0.8 -0.6,-1.5 -1.5,-1.5 z"
         inkscape:connector-curvature="0" /></g><g
       id="g298"><path
         id="path300"
         d="m 121,32 c -1.2,0 -2.1,-0.9 -2.1,-2.1 0,-1.2 0.9,-2.1 2.1,-2.1 1.2,0 2.1,0.9 2.1,2.1 0,1.2 -1,2.1 -2.1,2.1 z m 0,-4 c -1.1,0 -1.9,0.9 -1.9,1.9 0,1.1 0.9,1.9 1.9,1.9 1.1,0 1.9,-0.9 1.9,-1.9 0,-1.1 -0.9,-1.9 -1.9,-1.9 z"
         inkscape:connector-curvature="0" /></g><g
       id="g302"><path
         id="path304"
         d="m 121.1,32.3 c -1.3,0 -2.4,-1.1 -2.4,-2.4 0,-0.7 0.3,-1.4 0.8,-1.8 l 0.1,0.1 c -0.5,0.4 -0.8,1 -0.8,1.7 0,1.2 1,2.2 2.2,2.2 1.2,0 2.2,-1 2.2,-2.2 0,-1.2 -1,-2.2 -2.2,-2.2 v -0.2 c 1.3,0 2.4,1.1 2.4,2.4 0.1,1.4 -1,2.4 -2.3,2.4 z"
         inkscape:connector-curvature="0" /></g><g
       id="g306"><path
         id="path308"
         d="m 120.4,31.8 h -0.2 c 0.1,-0.4 0,-0.7 -0.2,-0.9 -0.2,-0.2 -0.6,-0.3 -1,-0.3 v -0.2 c 0.5,0 0.9,0.1 1.2,0.3 0.2,0.3 0.3,0.7 0.2,1.1 z"
         inkscape:connector-curvature="0" /></g><g
       id="g310"><path
         id="path312"
         d="m 119,29.4 v -0.2 c 0.9,-0.2 1.1,-0.3 1.1,-1.2 h 0.2 c 0,1 -0.3,1.2 -1.3,1.4 z"
         inkscape:connector-curvature="0" /></g><g
       id="g314"><path
         id="path316"
         d="m 122.6,29.4 c -0.4,0 -0.7,-0.1 -1,-0.4 -0.3,-0.3 -0.4,-0.7 -0.4,-1.1 h 0.2 c -0.1,0.4 0.1,0.7 0.3,0.9 0.3,0.3 0.7,0.4 1.1,0.3 v 0.2 c 0,0.1 -0.1,0.1 -0.2,0.1 z"
         inkscape:connector-curvature="0" /></g><g
       id="g318"><path
         id="path320"
         d="m 121.5,31.9 c 0,-0.4 0,-0.7 0.2,-0.9 0.2,-0.3 0.7,-0.3 1.1,-0.3 v 0.2 c -0.5,0 -0.8,0.1 -1,0.3 -0.1,0.2 -0.2,0.4 -0.2,0.8 z"
         inkscape:connector-curvature="0" /></g><g
       id="g322"><path
         id="path324"
         d="m 123.3,24.5 -0.2,-0.1 c 0.6,-1.7 2.1,-3.6 4.4,-5.9 1.1,-1.1 1.6,-2.2 1.4,-3.1 -0.1,-0.4 -0.3,-0.7 -0.6,-0.8 l 0.1,-0.2 c 0.4,0.1 0.6,0.5 0.7,0.9 0.2,0.9 -0.4,2.1 -1.5,3.2 -2.2,2.4 -3.7,4.4 -4.3,6 z"
         inkscape:connector-curvature="0" /></g><g
       id="g326"><path
         id="path328"
         d="m 129,35.5 -0.1,-0.1 c 1,-1.2 -1.6,-3.5 -3,-4.8 -0.6,-0.5 -1.2,-1.1 -1.6,-1.7 l 0.1,-0.1 c 0.5,0.6 1,1.2 1.6,1.7 1.4,1.3 4.1,3.7 3,5 z"
         inkscape:connector-curvature="0" /></g><g
       id="g330"><path
         id="path332"
         d="m 123.7,28.2 c -0.4,-0.6 -0.6,-1.1 -0.7,-1.4 h 0.2 c 0,0.3 0.2,0.8 0.6,1.4 z"
         inkscape:connector-curvature="0" /></g></g><g
     id="g334"
     transform="matrix(1.3225057,0,0,1.3225057,-77.972246,26.44507)"><path
       style="fill:#ffffff"
       id="path336"
       d="m 140,8.6 c -0.3,-0.1 -0.6,-0.2 -1,-0.3 -0.3,-0.1 -0.7,-0.1 -1,-0.1 -0.4,0 -0.7,0.1 -1.1,0.2 -0.3,0.1 -0.6,0.3 -0.9,0.5 -0.3,0.2 -0.5,0.5 -0.6,0.9 -0.1,0.3 -0.2,0.7 -0.2,1.2 0,0.9 0.2,1.5 0.7,2 0.5,0.5 1.1,0.7 1.9,0.7 0.2,0 0.4,0 0.6,0 0.2,0 0.4,-0.1 0.6,-0.1 v -2.8 h 1.2 v 3.6 c -0.4,0.2 -0.8,0.3 -1.2,0.3 -0.4,0.1 -0.9,0.1 -1.3,0.1 -0.6,0 -1.1,-0.1 -1.6,-0.3 -0.5,-0.2 -0.9,-0.4 -1.2,-0.7 -0.3,-0.3 -0.6,-0.7 -0.8,-1.2 -0.2,-0.5 -0.3,-1 -0.3,-1.5 0,-0.6 0.1,-1.1 0.3,-1.6 0.2,-0.5 0.5,-0.9 0.8,-1.3 0.4,-0.4 0.8,-0.6 1.3,-0.8 0.5,-0.2 1.1,-0.3 1.8,-0.3 0.7,0 1.5,0.1 2.1,0.3 z"
       class="st2"
       inkscape:connector-curvature="0" /><path
       style="fill:#ffffff"
       id="path338"
       d="m 144.9,14.7 c 0,-0.2 0,-0.3 0,-0.5 0,-0.2 0,-0.3 0,-0.5 v 0 c -0.1,0.3 -0.4,0.6 -0.7,0.8 -0.3,0.2 -0.7,0.3 -1.2,0.3 -0.5,0 -0.9,-0.1 -1.2,-0.4 -0.3,-0.2 -0.4,-0.6 -0.4,-1 0,-0.3 0.1,-0.6 0.2,-0.8 0.2,-0.2 0.4,-0.5 0.7,-0.6 0.3,-0.2 0.6,-0.3 1,-0.4 0.4,-0.1 0.9,-0.1 1.4,-0.1 v -0.3 c 0,-0.3 -0.1,-0.6 -0.3,-0.7 -0.2,-0.2 -0.5,-0.2 -0.9,-0.2 -0.3,0 -0.5,0 -0.9,0.1 -0.3,0.1 -0.6,0.2 -0.8,0.3 l -0.1,-1 c 0.3,-0.1 0.6,-0.2 0.9,-0.3 0.3,-0.1 0.7,-0.1 1.1,-0.1 0.4,0 0.8,0 1.1,0.1 0.3,0.1 0.5,0.2 0.7,0.4 0.2,0.2 0.3,0.4 0.4,0.6 0.1,0.2 0.1,0.5 0.1,0.8 v 2.2 c 0,0.2 0,0.5 0,0.7 0,0.3 0,0.5 0,0.7 h -1.1 z m 0,-2.4 c -0.4,0 -0.8,0 -1.1,0.1 -0.3,0.1 -0.5,0.1 -0.7,0.2 -0.2,0.1 -0.3,0.2 -0.3,0.3 -0.1,0.1 -0.1,0.2 -0.1,0.3 0,0.2 0.1,0.4 0.2,0.5 0.1,0.1 0.3,0.2 0.6,0.2 0.2,0 0.4,0 0.6,-0.1 0.2,-0.1 0.3,-0.2 0.4,-0.3 0.1,-0.1 0.2,-0.3 0.3,-0.5 0.1,-0.2 0.1,-0.4 0.1,-0.6 z"
       class="st2"
       inkscape:connector-curvature="0" /><path
       style="fill:#ffffff"
       id="path340"
       d="m 154.8,14.8 v -3.5 c 0,-0.3 -0.1,-0.6 -0.2,-0.8 -0.1,-0.2 -0.3,-0.3 -0.7,-0.3 -0.2,0 -0.4,0 -0.5,0.1 -0.2,0.1 -0.3,0.2 -0.5,0.4 -0.1,0.2 -0.2,0.4 -0.3,0.6 -0.1,0.2 -0.1,0.5 -0.1,0.8 v 2.6 h -1.2 v -3.5 c 0,-0.2 0,-0.3 0,-0.4 0,-0.1 -0.1,-0.2 -0.1,-0.3 -0.1,-0.1 -0.1,-0.2 -0.2,-0.2 -0.1,-0.1 -0.2,-0.1 -0.4,-0.1 -0.2,0 -0.4,0 -0.6,0.1 -0.2,0.1 -0.3,0.2 -0.5,0.4 -0.1,0.2 -0.2,0.4 -0.3,0.6 -0.1,0.2 -0.1,0.5 -0.1,0.8 v 2.6 h -1.2 V 9.3 h 1.2 c 0,0.1 0,0.3 0,0.5 0,0.2 0,0.4 -0.1,0.6 v 0 c 0.2,-0.4 0.4,-0.7 0.7,-0.9 0.3,-0.2 0.7,-0.3 1.2,-0.3 0.3,0 0.5,0 0.7,0.1 0.2,0.1 0.3,0.2 0.5,0.3 0.1,0.1 0.2,0.3 0.3,0.4 0.1,0.1 0.1,0.3 0.1,0.4 0.1,-0.1 0.1,-0.3 0.2,-0.4 0.1,-0.1 0.2,-0.3 0.4,-0.4 0.2,-0.1 0.3,-0.2 0.5,-0.3 0.2,-0.1 0.4,-0.1 0.7,-0.1 0.5,0 1,0.1 1.2,0.4 0.3,0.3 0.4,0.8 0.4,1.4 v 3.8 z"
       class="st2"
       inkscape:connector-curvature="0" /><path
       style="fill:#ffffff"
       id="path342"
       d="m 162.2,12.1 h -3.6 c 0,0.6 0.1,1.1 0.4,1.4 0.3,0.3 0.7,0.4 1.3,0.4 0.3,0 0.6,0 0.9,-0.1 0.3,-0.1 0.5,-0.2 0.8,-0.3 l 0.1,1 c -0.3,0.1 -0.6,0.2 -0.9,0.3 -0.3,0.1 -0.7,0.1 -1,0.1 -0.9,0 -1.6,-0.2 -2,-0.7 -0.5,-0.4 -0.7,-1.1 -0.7,-2.1 0,-0.4 0.1,-0.8 0.2,-1.1 0.1,-0.3 0.3,-0.7 0.5,-0.9 0.2,-0.3 0.5,-0.5 0.8,-0.6 0.3,-0.1 0.7,-0.2 1.1,-0.2 0.4,0 0.7,0.1 1,0.2 0.3,0.1 0.5,0.3 0.7,0.5 0.2,0.2 0.3,0.5 0.4,0.7 0.1,0.3 0.1,0.6 0.1,0.9 -0.1,0.1 -0.1,0.3 -0.1,0.5 z m -1.5,-1.7 c -0.2,-0.2 -0.5,-0.3 -0.9,-0.3 -0.3,0 -0.6,0.1 -0.8,0.3 -0.2,0.2 -0.4,0.5 -0.4,0.8 h 2.4 c 0,-0.3 -0.1,-0.6 -0.3,-0.8 z"
       class="st2"
       inkscape:connector-curvature="0" /><path
       style="fill:#ffffff"
       id="path344"
       d="m 136.9,18.1 v 6.6 h -1.2 v -6.6 h -2.1 v -1 h 5.4 v 1 z"
       class="st2"
       inkscape:connector-curvature="0" /><path
       style="fill:#ffffff"
       id="path346"
       d="m 143.5,22 h -3.6 c 0,0.6 0.1,1.1 0.4,1.4 0.3,0.3 0.7,0.4 1.3,0.4 0.3,0 0.6,0 0.9,-0.1 0.3,-0.1 0.5,-0.2 0.8,-0.3 l 0.1,1 c -0.3,0.1 -0.6,0.2 -0.9,0.3 -0.3,0.1 -0.7,0.1 -1,0.1 -0.9,0 -1.6,-0.2 -2,-0.7 -0.5,-0.4 -0.7,-1.1 -0.7,-2.1 0,-0.4 0.1,-0.8 0.2,-1.1 0.1,-0.3 0.3,-0.7 0.5,-0.9 0.2,-0.3 0.5,-0.5 0.8,-0.6 0.3,-0.1 0.7,-0.2 1.1,-0.2 0.4,0 0.7,0.1 1,0.2 0.3,0.1 0.5,0.3 0.7,0.5 0.2,0.2 0.3,0.5 0.4,0.7 0.1,0.3 0.1,0.6 0.1,0.9 -0.1,0.1 -0.1,0.3 -0.1,0.5 z M 142,20.3 c -0.2,-0.2 -0.5,-0.3 -0.9,-0.3 -0.3,0 -0.6,0.1 -0.8,0.3 -0.2,0.2 -0.4,0.5 -0.4,0.8 h 2.4 c 0,-0.3 -0.1,-0.6 -0.3,-0.8 z"
       class="st2"
       inkscape:connector-curvature="0" /><path
       style="fill:#ffffff"
       id="path348"
       d="m 147.8,24.7 c -0.3,0.1 -0.6,0.1 -0.9,0.1 -0.4,0 -0.7,0 -1,-0.1 -0.3,-0.1 -0.6,-0.2 -0.8,-0.5 -0.2,-0.2 -0.4,-0.5 -0.5,-0.8 -0.1,-0.3 -0.2,-0.7 -0.2,-1.2 0,-0.4 0.1,-0.8 0.2,-1.2 0.1,-0.4 0.3,-0.7 0.5,-1 0.2,-0.3 0.5,-0.5 0.9,-0.6 0.4,-0.2 0.8,-0.2 1.3,-0.2 0.4,0 0.8,0.1 1.2,0.2 l -0.1,1.1 c -0.2,-0.1 -0.4,-0.1 -0.5,-0.2 -0.2,0 -0.4,-0.1 -0.6,-0.1 -0.5,0 -0.9,0.2 -1.2,0.5 -0.3,0.3 -0.4,0.8 -0.4,1.4 0,0.2 0,0.5 0.1,0.7 0,0.2 0.1,0.4 0.2,0.6 0.1,0.2 0.3,0.3 0.5,0.4 0.2,0.1 0.4,0.1 0.7,0.1 0.2,0 0.4,0 0.7,-0.1 0.2,0 0.4,-0.1 0.6,-0.2 l 0.1,1 c -0.3,-0.1 -0.5,0 -0.8,0.1 z"
       class="st2"
       inkscape:connector-curvature="0" /><path
       style="fill:#ffffff"
       id="path350"
       d="m 153.3,24.7 v -3.5 c 0,-0.3 -0.1,-0.6 -0.2,-0.8 -0.1,-0.2 -0.3,-0.3 -0.7,-0.3 -0.2,0 -0.4,0.1 -0.6,0.2 -0.2,0.1 -0.3,0.2 -0.5,0.4 -0.1,0.2 -0.2,0.4 -0.3,0.6 -0.1,0.2 -0.1,0.5 -0.1,0.8 v 2.6 h -1.2 v -8.3 h 1.2 v 2.7 c 0,0.2 0,0.4 0,0.6 0,0.2 0,0.4 -0.1,0.5 v 0 c 0.2,-0.4 0.4,-0.6 0.7,-0.9 0.3,-0.2 0.7,-0.3 1.2,-0.3 0.3,0 0.6,0 0.8,0.1 0.2,0.1 0.4,0.2 0.5,0.4 0.1,0.2 0.2,0.3 0.3,0.6 0.1,0.2 0.1,0.4 0.1,0.7 v 3.9 z"
       class="st2"
       inkscape:connector-curvature="0" /><path
       style="fill:#ffffff"
       id="path352"
       d="m 159.8,24.7 v -3.5 c 0,-0.3 -0.1,-0.6 -0.2,-0.8 -0.1,-0.2 -0.3,-0.3 -0.7,-0.3 -0.2,0 -0.4,0.1 -0.6,0.2 -0.2,0.1 -0.3,0.2 -0.5,0.4 -0.1,0.2 -0.2,0.4 -0.3,0.6 -0.1,0.2 -0.1,0.5 -0.1,0.8 v 2.7 h -1.2 v -5.5 h 1.2 c 0,0.1 0,0.3 0,0.5 0,0.2 0,0.4 -0.1,0.5 v 0 c 0.2,-0.4 0.4,-0.6 0.8,-0.9 0.3,-0.2 0.7,-0.3 1.2,-0.3 0.3,0 0.6,0 0.8,0.1 0.2,0.1 0.4,0.2 0.5,0.4 0.1,0.2 0.2,0.3 0.3,0.6 0.1,0.2 0.1,0.4 0.1,0.7 v 3.9 h -1.2 z"
       class="st2"
       inkscape:connector-curvature="0" /><path
       style="fill:#ffffff"
       id="path354"
       d="m 167.5,23 c -0.1,0.4 -0.3,0.7 -0.6,0.9 -0.2,0.3 -0.5,0.5 -0.9,0.6 -0.3,0.1 -0.7,0.2 -1.1,0.2 -0.4,0 -0.7,-0.1 -1.1,-0.2 -0.3,-0.1 -0.6,-0.3 -0.8,-0.5 -0.2,-0.2 -0.4,-0.5 -0.5,-0.9 -0.1,-0.3 -0.2,-0.8 -0.2,-1.2 0,-0.4 0.1,-0.8 0.2,-1.1 0.1,-0.4 0.3,-0.7 0.6,-0.9 0.2,-0.3 0.5,-0.5 0.9,-0.6 0.3,-0.1 0.7,-0.2 1.2,-0.2 0.4,0 0.7,0.1 1,0.2 0.3,0.1 0.6,0.3 0.8,0.5 0.2,0.2 0.4,0.5 0.5,0.8 0.1,0.3 0.2,0.8 0.2,1.2 0,0.4 -0.1,0.8 -0.2,1.2 z m -1.4,-2.4 c -0.2,-0.3 -0.6,-0.5 -1.1,-0.5 -0.2,0 -0.4,0 -0.5,0.1 -0.2,0.1 -0.3,0.2 -0.5,0.3 -0.1,0.1 -0.2,0.3 -0.3,0.5 -0.1,0.2 -0.1,0.5 -0.1,0.8 0,0.6 0.1,1.1 0.4,1.4 0.2,0.3 0.6,0.5 1.1,0.5 0.2,0 0.4,0 0.6,-0.1 0.2,-0.1 0.3,-0.2 0.5,-0.3 0.1,-0.1 0.2,-0.3 0.3,-0.6 0.1,-0.2 0.1,-0.5 0.1,-0.8 -0.2,-0.6 -0.3,-1 -0.5,-1.3 z"
       class="st2"
       inkscape:connector-curvature="0" /><path
       style="fill:#ffffff"
       id="path356"
       d="m 169,24.7 v -8.3 h 1.2 v 8.3 z"
       class="st2"
       inkscape:connector-curvature="0" /><path
       style="fill:#ffffff"
       id="path358"
       d="m 176.7,23 c -0.1,0.4 -0.3,0.7 -0.6,0.9 -0.2,0.3 -0.5,0.5 -0.9,0.6 -0.3,0.1 -0.7,0.2 -1.1,0.2 -0.4,0 -0.7,-0.1 -1.1,-0.2 -0.3,-0.1 -0.6,-0.3 -0.8,-0.5 -0.2,-0.2 -0.4,-0.5 -0.5,-0.9 -0.1,-0.3 -0.2,-0.8 -0.2,-1.2 0,-0.4 0.1,-0.8 0.2,-1.1 0.1,-0.4 0.3,-0.7 0.6,-0.9 0.2,-0.3 0.5,-0.5 0.9,-0.6 0.3,-0.1 0.7,-0.2 1.2,-0.2 0.4,0 0.7,0.1 1,0.2 0.3,0.1 0.6,0.3 0.8,0.5 0.2,0.2 0.4,0.5 0.5,0.8 0.1,0.3 0.2,0.8 0.2,1.2 0,0.4 -0.1,0.8 -0.2,1.2 z m -1.4,-2.4 c -0.2,-0.3 -0.6,-0.5 -1.1,-0.5 -0.2,0 -0.4,0 -0.5,0.1 -0.2,0.1 -0.3,0.2 -0.5,0.3 -0.1,0.1 -0.2,0.3 -0.3,0.5 -0.1,0.2 -0.1,0.5 -0.1,0.8 0,0.6 0.1,1.1 0.4,1.4 0.2,0.3 0.6,0.5 1.1,0.5 0.2,0 0.4,0 0.6,-0.1 0.2,-0.1 0.3,-0.2 0.5,-0.3 0.1,-0.1 0.2,-0.3 0.3,-0.6 0.1,-0.2 0.1,-0.5 0.1,-0.8 -0.2,-0.6 -0.3,-1 -0.5,-1.3 z"
       class="st2"
       inkscape:connector-curvature="0" /><path
       style="fill:#ffffff"
       id="path360"
       d="m 183,26.2 c -0.1,0.3 -0.4,0.5 -0.6,0.7 -0.3,0.2 -0.6,0.3 -1,0.5 -0.4,0.1 -0.8,0.2 -1.2,0.2 -0.7,0 -1.3,-0.1 -1.8,-0.4 -0.4,-0.3 -0.6,-0.7 -0.6,-1.2 0,-0.3 0.1,-0.6 0.3,-0.8 0.2,-0.2 0.4,-0.4 0.6,-0.6 -0.2,-0.1 -0.3,-0.2 -0.4,-0.3 -0.1,-0.1 -0.1,-0.3 -0.1,-0.5 0,-0.2 0.1,-0.4 0.2,-0.6 0.1,-0.2 0.3,-0.3 0.5,-0.4 -0.3,-0.1 -0.5,-0.4 -0.6,-0.6 -0.1,-0.3 -0.2,-0.6 -0.2,-0.9 0,-0.3 0.1,-0.6 0.2,-0.8 0.1,-0.3 0.3,-0.5 0.5,-0.7 0.2,-0.2 0.5,-0.3 0.8,-0.5 0.3,-0.1 0.7,-0.2 1.1,-0.2 0.2,0 0.3,0 0.5,0 0.1,0 0.3,0 0.4,0.1 h 1.9 v 1 h -0.9 c 0.1,0.1 0.2,0.2 0.3,0.4 0.1,0.2 0.1,0.3 0.1,0.5 0,0.6 -0.2,1.1 -0.6,1.5 -0.4,0.4 -1,0.6 -1.8,0.6 -0.1,0 -0.2,0 -0.3,0 -0.1,0 -0.2,0 -0.3,0 -0.1,0 -0.2,0.1 -0.2,0.2 -0.1,0.1 -0.1,0.1 -0.1,0.2 0,0.1 0.1,0.2 0.2,0.3 0.1,0.1 0.4,0.1 0.7,0.1 h 1 c 0.6,0 1.1,0.1 1.4,0.4 0.3,0.3 0.5,0.7 0.5,1.2 -0.3,0.1 -0.4,0.3 -0.5,0.6 z M 181.7,25 c -0.2,-0.1 -0.4,-0.2 -0.8,-0.2 h -1.1 c -0.1,0 -0.1,0 -0.2,0 -0.1,0 -0.1,0 -0.1,0 -0.2,0.1 -0.3,0.2 -0.5,0.4 -0.1,0.2 -0.2,0.3 -0.2,0.5 0,0.3 0.1,0.5 0.4,0.7 0.3,0.2 0.6,0.2 1,0.2 0.5,0 0.9,-0.1 1.2,-0.3 0.3,-0.2 0.4,-0.4 0.4,-0.7 0.2,-0.3 0.1,-0.5 -0.1,-0.6 z m -0.4,-4.8 c -0.2,-0.2 -0.5,-0.3 -0.9,-0.3 -0.4,0 -0.7,0.1 -0.9,0.3 -0.2,0.2 -0.3,0.5 -0.3,0.9 0,0.4 0.1,0.7 0.3,0.9 0.2,0.2 0.5,0.3 0.9,0.3 0.4,0 0.7,-0.1 0.9,-0.3 0.2,-0.2 0.3,-0.5 0.3,-0.9 0,-0.4 -0.1,-0.7 -0.3,-0.9 z"
       class="st2"
       inkscape:connector-curvature="0" /><path
       style="fill:#ffffff"
       id="path362"
       d="m 186.9,25.2 c -0.2,0.4 -0.3,0.8 -0.5,1.1 -0.2,0.3 -0.3,0.5 -0.5,0.7 -0.2,0.2 -0.4,0.3 -0.6,0.4 -0.2,0.1 -0.5,0.1 -0.8,0.1 -0.1,0 -0.2,0 -0.4,0 -0.1,0 -0.3,0 -0.4,-0.1 l 0.1,-1.1 c 0.1,0 0.3,0.1 0.4,0.1 0.1,0 0.2,0 0.4,0 0.1,0 0.3,0 0.4,-0.1 0.1,0 0.2,-0.1 0.3,-0.2 0.1,-0.1 0.2,-0.2 0.3,-0.4 0.1,-0.2 0.2,-0.4 0.3,-0.6 l 0.2,-0.6 -2.1,-5.6 h 1.4 l 0.9,2.6 c 0.1,0.2 0.2,0.5 0.2,0.7 0.1,0.2 0.1,0.5 0.2,0.7 v 0 c 0.1,-0.2 0.1,-0.5 0.2,-0.8 0.1,-0.3 0.2,-0.6 0.3,-0.9 l 0.8,-2.3 h 1.3 z"
       class="st2"
       inkscape:connector-curvature="0" /><path
       style="fill:#ffffff"
       id="path364"
       d="m 138.4,34.6 c -0.3,0.1 -0.7,0.1 -1.1,0.1 -0.6,0 -1.2,-0.1 -1.6,-0.3 -0.4,-0.2 -0.8,-0.4 -1.1,-0.8 -0.3,-0.3 -0.5,-0.7 -0.6,-1.1 -0.1,-0.4 -0.2,-0.9 -0.2,-1.4 0,-0.6 0.1,-1.1 0.2,-1.6 0.2,-0.5 0.4,-0.9 0.7,-1.3 0.3,-0.4 0.7,-0.6 1.2,-0.8 0.5,-0.2 1,-0.3 1.7,-0.3 0.3,0 0.6,0 0.9,0.1 0.3,0 0.6,0.1 0.8,0.2 l -0.1,1.1 c -0.6,-0.2 -1.1,-0.3 -1.7,-0.3 -0.4,0 -0.7,0.1 -1,0.2 -0.3,0.1 -0.5,0.3 -0.7,0.6 -0.2,0.2 -0.3,0.5 -0.4,0.9 -0.1,0.4 -0.1,0.7 -0.1,1.1 0,0.9 0.2,1.5 0.6,2 0.4,0.5 1,0.7 1.8,0.7 0.3,0 0.5,0 0.8,-0.1 0.3,-0.1 0.6,-0.1 0.8,-0.3 l 0.1,1.1 c -0.3,0 -0.6,0.1 -1,0.2 z"
       class="st2"
       inkscape:connector-curvature="0" /><path
       style="fill:#ffffff"
       id="path366"
       d="m 145,31.9 h -3.6 c 0,0.6 0.1,1.1 0.4,1.4 0.3,0.3 0.7,0.4 1.3,0.4 0.3,0 0.6,0 0.9,-0.1 0.3,-0.1 0.5,-0.2 0.8,-0.3 l 0.1,1 c -0.3,0.1 -0.6,0.2 -0.9,0.3 -0.3,0.1 -0.7,0.1 -1,0.1 -0.9,0 -1.6,-0.2 -2,-0.7 -0.5,-0.4 -0.7,-1.1 -0.7,-2.1 0,-0.4 0.1,-0.8 0.2,-1.1 0.1,-0.3 0.3,-0.7 0.5,-0.9 0.2,-0.3 0.5,-0.5 0.8,-0.6 0.3,-0.1 0.7,-0.2 1.1,-0.2 0.4,0 0.7,0.1 1,0.2 0.3,0.1 0.5,0.3 0.7,0.5 0.2,0.2 0.3,0.5 0.4,0.7 0.1,0.3 0.1,0.6 0.1,0.9 -0.1,0.1 -0.1,0.3 -0.1,0.5 z m -1.5,-1.7 c -0.2,-0.2 -0.5,-0.3 -0.9,-0.3 -0.3,0 -0.6,0.1 -0.8,0.3 -0.2,0.2 -0.4,0.5 -0.4,0.8 h 2.4 c 0,-0.3 -0.1,-0.6 -0.3,-0.8 z"
       class="st2"
       inkscape:connector-curvature="0" /><path
       style="fill:#ffffff"
       id="path368"
       d="m 149.9,34.7 v -3.5 c 0,-0.3 -0.1,-0.6 -0.2,-0.8 -0.1,-0.2 -0.3,-0.3 -0.7,-0.3 -0.2,0 -0.4,0.1 -0.6,0.2 -0.2,0.1 -0.3,0.2 -0.5,0.4 -0.1,0.2 -0.2,0.4 -0.3,0.6 -0.1,0.2 -0.1,0.5 -0.1,0.8 v 2.7 h -1.2 v -5.5 h 1.2 c 0,0.1 0,0.3 0,0.5 0,0.2 0,0.4 -0.1,0.5 v 0 c 0.2,-0.4 0.4,-0.6 0.8,-0.9 0.3,-0.2 0.7,-0.3 1.2,-0.3 0.3,0 0.6,0 0.8,0.1 0.2,0.1 0.4,0.2 0.5,0.4 0.1,0.2 0.2,0.3 0.3,0.6 0.1,0.2 0.1,0.4 0.1,0.7 v 3.9 h -1.2 z"
       class="st2"
       inkscape:connector-curvature="0" /><path
       style="fill:#ffffff"
       id="path370"
       d="m 155.2,34.6 c -0.2,0 -0.4,0 -0.6,0 -0.3,0 -0.6,0 -0.8,-0.1 -0.2,-0.1 -0.4,-0.2 -0.5,-0.3 -0.1,-0.1 -0.2,-0.3 -0.3,-0.5 0,-0.2 -0.1,-0.5 -0.1,-0.8 v -3 h -1.1 v -1 h 1.1 v -1.7 l 1.2,-0.3 v 2 h 1.5 v 1 h -1.5 v 2.6 c 0,0.2 0,0.4 0,0.5 0,0.1 0.1,0.2 0.1,0.3 0.1,0.1 0.1,0.1 0.2,0.2 0.1,0 0.2,0 0.4,0 0.3,0 0.5,0 0.7,-0.1 v 1 c 0,0.2 -0.1,0.2 -0.3,0.2 z"
       class="st2"
       inkscape:connector-curvature="0" /><path
       style="fill:#ffffff"
       id="path372"
       d="m 161.4,31.9 h -3.6 c 0,0.6 0.1,1.1 0.4,1.4 0.3,0.3 0.7,0.4 1.3,0.4 0.3,0 0.6,0 0.9,-0.1 0.3,-0.1 0.5,-0.2 0.8,-0.3 l 0.1,1 c -0.3,0.1 -0.6,0.2 -0.9,0.3 -0.3,0.1 -0.7,0.1 -1,0.1 -0.9,0 -1.6,-0.2 -2,-0.7 -0.5,-0.4 -0.7,-1.1 -0.7,-2.1 0,-0.4 0.1,-0.8 0.2,-1.1 0.1,-0.3 0.3,-0.7 0.5,-0.9 0.2,-0.3 0.5,-0.5 0.8,-0.6 0.3,-0.1 0.7,-0.2 1.1,-0.2 0.4,0 0.7,0.1 1,0.2 0.3,0.1 0.5,0.3 0.7,0.5 0.2,0.2 0.3,0.5 0.4,0.7 0.1,0.3 0.1,0.6 0.1,0.9 -0.1,0.1 -0.1,0.3 -0.1,0.5 z m -1.5,-1.7 c -0.2,-0.2 -0.5,-0.3 -0.9,-0.3 -0.3,0 -0.6,0.1 -0.8,0.3 -0.2,0.2 -0.4,0.5 -0.4,0.8 h 2.4 c 0,-0.3 -0.1,-0.6 -0.3,-0.8 z"
       class="st2"
       inkscape:connector-curvature="0" /><path
       style="fill:#ffffff"
       id="path374"
       d="m 165.7,30.2 c -0.6,-0.1 -1,0 -1.3,0.4 -0.3,0.4 -0.4,1 -0.4,1.8 v 2.2 h -1.2 v -5.5 h 1.2 c 0,0.2 0,0.3 0,0.6 0,0.2 0,0.4 -0.1,0.7 v 0 c 0.1,-0.2 0.1,-0.4 0.2,-0.5 0.1,-0.2 0.2,-0.3 0.4,-0.5 0.2,-0.1 0.3,-0.2 0.5,-0.3 0.2,-0.1 0.4,-0.1 0.7,-0.1 z"
       class="st2"
       inkscape:connector-curvature="0" /></g><g
     id="g376"
     transform="matrix(1.048844,0,0,1.048844,84.345353,-4.0982381)"><g
       id="g378"><path
         inkscape:connector-curvature="0"
         class="st2"
         d="m 54.1,23.6 c -0.4,1.9 -1.8,2 -2.1,2 -0.8,0 -1.3,-0.5 -1.3,-1.3 0,-0.2 0,-0.4 0.1,-0.7 l 0.9,-4.5 v 0 h -1.1 l -0.9,4.6 v 0.1 c 0,0.2 -0.1,0.4 -0.1,0.7 0,1.2 0.8,2.1 2,2.1 0.9,0 1.6,-0.3 2.1,-0.9 l -0.1,0.8 v 0 h 1 L 56,19.3 v 0 h -1.1 z"
         id="path380"
         style="fill:#ffffff" /><path
         inkscape:connector-curvature="0"
         class="st2"
         d="m 61.3,19.1 c -0.8,0 -1.5,0.3 -2,0.9 l 0.2,-0.8 v 0 h -1 L 57,26.4 v 0 h 1 L 58.9,22 c 0.2,-1.1 1.1,-2 2.1,-2 0.4,0 0.8,0.2 1,0.5 v 0 l 0.9,-0.8 v 0 c -0.4,-0.4 -1,-0.6 -1.6,-0.6 z"
         id="path382"
         style="fill:#ffffff" /><polygon
         class="st2"
         points="43.9,19.2 43.8,20.1 47.4,20.1 42.6,25.6 42.4,26.4 47.5,26.4 47.7,25.5 43.9,25.5 48.7,20.1 48.9,19.2 "
         id="polygon384"
         style="fill:#ffffff" /><polygon
         class="st2"
         points="65.5,19.2 64.5,19.2 63,26.4 64,26.4 "
         id="polygon386"
         style="fill:#ffffff" /><path
         inkscape:connector-curvature="0"
         class="st2"
         d="m 77.3,19.1 c -0.9,0 -1.6,0.3 -2.1,0.8 l 0.8,-4 H 75 L 72.9,26.5 H 74 l 0.9,-4.4 c 0.4,-1.9 1.8,-2 2.1,-2 0.8,0 1.3,0.5 1.3,1.3 0,0.2 0,0.4 -0.1,0.7 l -0.9,4.5 h 1.1 L 79.3,22 c 0,-0.2 0.1,-0.4 0.1,-0.7 0,-1.4 -0.9,-2.2 -2.1,-2.2 z"
         id="path388"
         style="fill:#ffffff" /><path
         inkscape:connector-curvature="0"
         class="st2"
         d="m 70.3,19.1 c -1.9,0 -3.3,1.4 -3.7,3.7 -0.1,0.4 -0.1,0.8 -0.1,1.1 0,1.6 1,2.6 2.6,2.6 0.9,0 1.8,-0.4 2.4,-1 v 0 l -0.6,-0.7 v 0 0 c -0.6,0.6 -1.1,0.8 -1.7,0.8 -0.8,0 -1.6,-0.4 -1.6,-1.7 0,-0.4 0,-0.7 0.1,-1.1 0.1,-0.6 0.4,-1.5 0.9,-2.1 0.5,-0.5 1,-0.7 1.6,-0.7 0.6,0 1,0.2 1.4,0.8 v 0 l 0.8,-0.7 v 0 0 c -0.5,-0.7 -1.2,-1 -2.1,-1 z"
         id="path390"
         style="fill:#ffffff" /><polygon
         class="st2"
         points="64.8,17.2 65.9,17.2 66.2,15.9 65.1,15.9 "
         id="polygon392"
         style="fill:#ffffff" /><polygon
         class="st2"
         points="54.6,17.2 55.6,17.2 55.9,15.9 54.8,15.9 "
         id="polygon394"
         style="fill:#ffffff" /><polygon
         class="st2"
         points="51.7,17.2 52.8,17.2 53.1,15.9 52,15.9 "
         id="polygon396"
         style="fill:#ffffff" /></g><g
       id="g398"><polygon
         class="st2"
         points="41.7,15.9 38.4,15.9 37.6,20 35.2,20 36,15.9 15.8,15.9 13.7,26.5 21.7,26.5 22.3,23.8 17.5,23.8 17.8,22.3 22.6,22.3 23,20 18.3,20 18.6,18.5 26.1,18.5 24.5,26.5 27.8,26.5 29.4,18.5 32.2,18.5 30.6,26.5 33.9,26.5 34.7,22.3 37.1,22.3 36.3,26.5 39.6,26.5 "
         id="polygon400"
         style="fill:#ffffff" /></g></g></svg>