<?xml version="1.0" encoding="UTF-8" standalone="no"?>
<svg
   xmlns:dc="http://purl.org/dc/elements/1.1/"
   xmlns:cc="http://creativecommons.org/ns#"
   xmlns:rdf="http://www.w3.org/1999/02/22-rdf-syntax-ns#"
   xmlns:svg="http://www.w3.org/2000/svg"
   xmlns="http://www.w3.org/2000/svg"
   id="svg2"
   xml:space="preserve"
   enable-background="new 0 0 256 256"
   viewBox="0 0 256 256"
   y="0px"
   x="0px"
   version="1.1"><metadata
     id="metadata306"><rdf:RDF><cc:Work
         rdf:about=""><dc:format>image/svg+xml</dc:format><dc:type
           rdf:resource="http://purl.org/dc/dcmitype/StillImage" /><dc:title></dc:title></cc:Work></rdf:RDF></metadata><defs
     id="defs304" /><g
     id="tap"><g
       id="g266"><path
         id="path268"
         d="M184.1,190.2c0,0,3.4,0.2,5.4-1.9c3.4-3.7,1.5-7.5,7.8-7.6h-26.3c6.3,0.1,4.4,4,7.8,7.6    C180.8,190.5,184.1,190.2,184.1,190.2L184.1,190.2z"
         fill="#FFFFFF" /><g
         id="g270"
         opacity="8.000000e-02"><path
           id="path272"
           d="M79,182.7c-4.7,0-9.4-0.4-10.5-0.8s-1.9-6.7-1.9-11.4v-31.6c0-4.7,0.4-9.4,0.8-10.4s6.8-1.8,11.5-1.8h119.1     c4.7,0,9.4,0.4,10.5,0.8s1.9,6.6,1.9,11.4v31.6c0,4.7-0.4,9.4-0.8,10.4s-6.8,1.8-11.5,1.8H79z" /></g><g
         id="g274"><path
           id="path276"
           d="M206.7,181.7H70.4c-1.5,0-2.7-1.2-2.7-2.6v-48.8c0-1.4,1.2-2.6,2.7-2.6h136.4c1.5,0,2.7,1.2,2.7,2.6v48.8     C209.5,180.5,208.3,181.7,206.7,181.7z"
           fill="#FFFFFF" /></g><circle
         id="circle278"
         r="32.6"
         cy="162.6"
         cx="106.1"
         opacity="8.000000e-02" /><circle
         id="circle280"
         r="28.4"
         cy="162.6"
         cx="106.1"
         stroke-miterlimit="10"
         stroke-width="6.2508"
         stroke="#000000"
         fill="#FFFFFF" /><rect
         id="rect282"
         height="5.1"
         width="11.3"
         y="145.4"
         x="182.9" /><rect
         id="rect284"
         height="5.1"
         width="5.6"
         y="145.4"
         x="203.8" /></g><g
       id="g286"><path
         id="path288"
         d="M150.5,110.9c-7.5,0.7-26-3-36.2-0.2    c14.8-1.2,37.5,7.1,45.1,8.9c3.8,1,10.3,3.2,13.2,3.5c4.9,1,11.3-0.1,10.1-6.5c-0.1-0.7,0-3.2-1.8-4.5    C177.1,111.5,158.3,110.1,150.5,110.9z"
         stroke-miterlimit="10"
         stroke-width="4"
         stroke="#000000"
         fill="#FFFFFF" /><path
         id="path290"
         d="M33.8,86.6c15.2,34,9.5,37.2,39.5,44.7    c4,1,30.7,7,35.3,7.9c1.2,0.3,2.4,0.4,3.5,0.4c8,0,12.5-5.8,5.2-8.6c-7.7-3-8.4-4.4-13.6-5.7c-2.3-0.6-10.5,0.3-14.6-2    c10.9-3,14.3,0.1,23.5,0.1c12.5,0,24.7-1.1,34.1,0.8c7.5,1.5,28.4,1.6,29.7,1.6c3.6,0,4.2-4.7,0.5-8c-0.9-0.8-22.3-3.1-22.6-3.5    c-24.9-7.2-20-6.2-53.9-10.9c-2.9-0.9-7.4-1.8-12.2-3.5c-15.3-4.7-22-16.9-31.9-36.7c-0.1-0.2-0.4-0.3-0.7-0.3    C51.1,63,30.4,79.1,33.8,86.6z"
         stroke-miterlimit="10"
         stroke-width="4"
         stroke="#000000"
         fill="#FFFFFF" /></g><g
       id="g292"><line
         id="line294"
         y2="57.5"
         x2="134.4"
         y1="88.2"
         x1="144.2"
         stroke-miterlimit="10"
         stroke-linejoin="round"
         stroke-linecap="round"
         stroke-width="6.351"
         stroke="#FFFFFF"
         fill="none" /><line
         id="line296"
         y2="46.6"
         x2="167.7"
         y1="85.4"
         x1="164.3"
         stroke-miterlimit="10"
         stroke-linejoin="round"
         stroke-linecap="round"
         stroke-width="6.351"
         stroke="#FFFFFF"
         fill="none" /><line
         id="line298"
         y2="58.9"
         x2="201.4"
         y1="90.3"
         x1="186.1"
         stroke-miterlimit="10"
         stroke-linejoin="round"
         stroke-linecap="round"
         stroke-width="6.351"
         stroke="#FFFFFF"
         fill="none" /><line
         id="line300"
         y2="83.3"
         x2="231.5"
         y1="103.4"
         x1="202.8"
         stroke-miterlimit="10"
         stroke-linejoin="round"
         stroke-linecap="round"
         stroke-width="6.351"
         stroke="#FFFFFF"
         fill="none" /></g></g></svg>