<?xml version="1.0" encoding="UTF-8" standalone="no"?>
<svg
   xmlns:dc="http://purl.org/dc/elements/1.1/"
   xmlns:cc="http://creativecommons.org/ns#"
   xmlns:rdf="http://www.w3.org/1999/02/22-rdf-syntax-ns#"
   xmlns:svg="http://www.w3.org/2000/svg"
   xmlns="http://www.w3.org/2000/svg"
   xmlns:sodipodi="http://sodipodi.sourceforge.net/DTD/sodipodi-0.dtd"
   xmlns:inkscape="http://www.inkscape.org/namespaces/inkscape"
   xml:space="preserve"
   enable-background="new 0 0 256 256"
   viewBox="0 0 256 256"
   y="0px"
   x="0px"
   id="Layer_1"
   version="1.1"
   inkscape:version="0.91 r13725"
   sodipodi:docname="centerContent.svg"><sodipodi:namedview
     pagecolor="#ffffff"
     bordercolor="#666666"
     borderopacity="1"
     objecttolerance="10"
     gridtolerance="10"
     guidetolerance="10"
     inkscape:pageopacity="0"
     inkscape:pageshadow="2"
     inkscape:window-width="2221"
     inkscape:window-height="1435"
     id="namedview11"
     showgrid="false"
     inkscape:zoom="5.2149125"
     inkscape:cx="208.66183"
     inkscape:cy="165.81156"
     inkscape:window-x="1121"
     inkscape:window-y="351"
     inkscape:window-maximized="0"
     inkscape:current-layer="Layer_1" /><metadata
     id="metadata19"><rdf:RDF><cc:Work
         rdf:about=""><dc:format>image/svg+xml</dc:format><dc:type
           rdf:resource="http://purl.org/dc/dcmitype/StillImage" /><dc:title /></cc:Work></rdf:RDF></metadata><defs
     id="defs17" /><path
     style="fill:#6d6e70;fill-opacity:1;stroke:none;stroke-opacity:1"
     d="M 122.24805 9.9023438 A 118.3 118.3 0 0 0 9.9589844 122.24805 L 78.800781 122.24805 A 5.7523252 5.7523252 0 1 1 78.800781 133.75195 L 9.9902344 133.75195 A 118.3 118.3 0 0 0 122.24805 246.09766 L 122.24805 177.19922 A 5.7523252 5.7523252 0 0 1 127.91406 171.36719 A 5.7523252 5.7523252 0 0 1 133.75195 177.19922 L 133.75195 246.00977 A 118.3 118.3 0 0 0 246.09766 133.75195 L 177.19922 133.75195 A 5.7523252 5.7523252 0 1 1 177.19922 122.24805 L 246.00586 122.24805 A 118.3 118.3 0 0 0 133.75195 9.9882812 L 133.75195 78.800781 A 5.7523252 5.7523252 0 1 1 122.24805 78.800781 L 122.24805 9.9023438 z "
     id="circle5" /></svg>