<?xml version="1.0" encoding="utf-8"?>
<!-- Generator: Adobe Illustrator 19.2.1, SVG Export Plug-In . SVG Version: 6.00 Build 0)  -->
<svg version="1.1" id="Layer_1" xmlns="http://www.w3.org/2000/svg" xmlns:xlink="http://www.w3.org/1999/xlink" x="0px" y="0px"
	 viewBox="0 0 24 24" style="enable-background:new 0 0 24 24;" xml:space="preserve">
<style type="text/css">
	.st0{fill:#FFFFFF;}
</style>
<g>
	<path class="st0" d="M13.3,3.7c-4.8,0-8.7,3.9-8.7,8.7v0.2H2L5.4,16l3.4-3.4H6.1v-0.2c0-4,3.2-7.2,7.2-7.2c4,0,7.2,3.2,7.2,7.2
		s-3.2,7.2-7.2,7.2c-1.4,0-2.8-0.4-4-1.2l-1.1,1.1c1.5,1.1,3.2,1.6,5.1,1.6c4.8,0,8.7-3.9,8.7-8.7C22,7.6,18.1,3.7,13.3,3.7z"/>
	<polygon class="st0" points="11.2,15.8 13.3,13.7 15.4,15.8 16.8,14.4 14.7,12.4 16.8,10.3 15.4,8.9 13.3,11 11.2,8.9 9.8,10.3 
		11.9,12.4 9.8,14.4 	"/>
</g>
</svg>
