<?xml version="1.0" encoding="utf-8"?>
<!-- Generator: Adobe Illustrator 19.1.0, SVG Export Plug-In . SVG Version: 6.00 Build 0)  -->
<svg version="1.1"
	 id="svg2" inkscape:version="0.91 r13725" sodipodi:docname="linkEndArrow.svg" xmlns:svg="http://www.w3.org/2000/svg" xmlns:sodipodi="http://sodipodi.sourceforge.net/DTD/sodipodi-0.dtd" xmlns:cc="http://creativecommons.org/ns#" xmlns:dc="http://purl.org/dc/elements/1.1/" xmlns:rdf="http://www.w3.org/1999/02/22-rdf-syntax-ns#" xmlns:inkscape="http://www.inkscape.org/namespaces/inkscape"
	 xmlns="http://www.w3.org/2000/svg" xmlns:xlink="http://www.w3.org/1999/xlink" x="0px" y="0px" viewBox="-111 113 32 32"
	 enable-background="new -111 113 32 32" xml:space="preserve">
<sodipodi:namedview  id="namedview25" inkscape:pageopacity="0" inkscape:pageshadow="2" inkscape:window-height="1014" inkscape:window-x="0" inkscape:current-layer="fleche" fit-margin-right="0" fit-margin-bottom="0" inkscape:window-y="52" inkscape:window-width="1717" inkscape:window-maximized="0" borderopacity="1" showgrid="false" bordercolor="#666666" fit-margin-top="0" inkscape:cy="16.000001" guidetolerance="10" gridtolerance="10" inkscape:cx="-28.002338" fit-margin-left="0" inkscape:zoom="7.375" objecttolerance="10" pagecolor="#ffffff">
	</sodipodi:namedview>
<g id="Fond" transform="translate(-112,-112)" display="none">
	
		<path id="path7" inkscape:connector-curvature="0" display="inline" opacity="0.13" fill="#1C93D1" enable-background="new    " d="
		M145,241.3c0-70.7-57.3-128-128-128s-128,57.3-128,128s57.3,128,128,128c32,0,61.3-11.7,83.7-31.2c3.3,1.4,7,2.3,10.8,2.3
		c15,0,27.1-12.1,27.1-27.1c0-6.4-2.3-12.4-6-17C140.6,279.6,145,261,145,241.3L145,241.3z"/>
	<polygon id="polygon9" display="inline" fill="#A5A1AA" points="122.4,309.1 129.8,326.8 110.7,324.4 	"/>
</g>
<g id="centre" transform="translate(-112,-112)" display="none">
	<g id="g12" display="inline">
		<g id="g16">
			<circle id="circle18" fill="#1C93D1" cx="17" cy="241.3" r="99.2"/>
		</g>
	</g>
</g>
<g>
	<path fill="#82CEC6" d="M-105.8,113.4l25.6,14.9c0.6,0.4,0.6,1.2,0,1.6l-25.7,14.7c-0.6,0.4-1.4-0.1-1.4-0.8l0.1-29.6
		C-107.2,113.5-106.4,113-105.8,113.4z"/>
</g>
</svg>
