<?xml version="1.0" encoding="UTF-8" standalone="no"?>
<svg
   xmlns:dc="http://purl.org/dc/elements/1.1/"
   xmlns:cc="http://creativecommons.org/ns#"
   xmlns:rdf="http://www.w3.org/1999/02/22-rdf-syntax-ns#"
   xmlns:svg="http://www.w3.org/2000/svg"
   xmlns="http://www.w3.org/2000/svg"
   height="96"
   width="96"
   xml:space="preserve"
   enable-background="new 0 0 256 256"
   viewBox="0 0 96 96"
   y="0px"
   x="0px"
   id="Layer_1"
   version="1.1"><metadata
     id="metadata15"><rdf:RDF><cc:Work
         rdf:about=""><dc:format>image/svg+xml</dc:format><dc:type
           rdf:resource="http://purl.org/dc/dcmitype/StillImage" /><dc:title></dc:title></cc:Work></rdf:RDF></metadata><defs
     id="defs13" /><!--circle opacity="0.25" fill="#6D6E70" cx="130.3" cy="129.9" r="124.9"/--><g
     transform="scale(0.375,0.375)"
     id="g3"><circle
       style="fill:#78c143"
       id="circle5"
       r="124.8"
       cy="128"
       cx="128" /><!--circle fill="#78c143" cx="125.6" cy="126.1" r="124.8"/--><g
       id="g7"><path
         style="fill:#ffffff"
         id="path9"
         d="m 109.9,189.9 c -2.6,0 -5.2,-0.9 -7.3,-2.8 L 45,134 c -4.4,-4 -4.6,-10.8 -0.6,-15.2 4,-4.4 10.8,-4.6 15.2,-0.6 l 49.7,45.7 83.4,-90.6 c 4,-4.4 10.8,-4.6 15.2,-0.6 4.4,4 4.6,10.8 0.6,15.2 l -90.7,98.5 c -2.2,2.3 -5.1,3.5 -7.9,3.5 z" /></g></g></svg>