<?xml version="1.0" encoding="UTF-8" standalone="no"?>
<svg
   xmlns:dc="http://purl.org/dc/elements/1.1/"
   xmlns:cc="http://creativecommons.org/ns#"
   xmlns:rdf="http://www.w3.org/1999/02/22-rdf-syntax-ns#"
   xmlns:svg="http://www.w3.org/2000/svg"
   xmlns="http://www.w3.org/2000/svg"
   xml:space="preserve"
   enable-background="new 0 0 256 256"
   viewBox="0 0 256 256"
   y="0px"
   x="0px"
   id="Layer_1"
   version="1.1"><metadata
     id="metadata11"><rdf:RDF><cc:Work
         rdf:about=""><dc:format>image/svg+xml</dc:format><dc:type
           rdf:resource="http://purl.org/dc/dcmitype/StillImage" /><dc:title></dc:title></cc:Work></rdf:RDF></metadata><defs
     id="defs9" /><path
     style="fill:#d4d4d5;fill-opacity:1"
     id="path3"
     d="M226,45.6c0-1.3-1.1-2.4-2.4-2.4h-8.7H41.1h-8.7c-1.3,0-2.4,1.1-2.4,2.4v18.1c0,1.3,1.1,2.4,2.4,2.4h7.7  c1.3,0,2.3,1,2.4,2.3L52.3,243c0.1,1.3,1.1,2.3,2.4,2.3h146.7c1.3,0,2.3-1,2.4-2.3l9.8-174.6c0.1-1.3,1.1-2.3,2.4-2.3h7.7  c1.3,0,2.4-1.1,2.4-2.4V45.6z"/><path
     style="fill:#d4d4d5;fill-opacity:1"
     id="path5"
     d="m 37.601161,17.580511 178.733789,21.31271 c 1.39015,0.165767 2.61266,-0.796252 2.77843,-2.186402 l 1.49189,-12.511367 c 0.16576,-1.39015 -0.79626,-2.612657 -2.18641,-2.778423 L 39.685051,0.10431796 c -1.39013,-0.16576857 -2.61264,0.79624897 -2.7784,2.18640034 l -1.50373,12.6106627 c -0.15393,1.290853 0.80808,2.513363 2.19824,2.67913 z" /></svg>