<?xml version="1.0" encoding="UTF-8" standalone="no"?>
<!-- Generator: Adobe Illustrator 19.2.1, SVG Export Plug-In . SVG Version: 6.00 Build 0)  -->

<svg
   xmlns:dc="http://purl.org/dc/elements/1.1/"
   xmlns:cc="http://creativecommons.org/ns#"
   xmlns:rdf="http://www.w3.org/1999/02/22-rdf-syntax-ns#"
   xmlns:svg="http://www.w3.org/2000/svg"
   xmlns="http://www.w3.org/2000/svg"
   xmlns:sodipodi="http://sodipodi.sourceforge.net/DTD/sodipodi-0.dtd"
   xmlns:inkscape="http://www.inkscape.org/namespaces/inkscape"
   version="1.1"
   id="Layer_1"
   x="0px"
   y="0px"
   viewBox="0 0 80 80"
   style="enable-background:new 0 0 80 80;"
   xml:space="preserve"
   inkscape:version="0.91 r13725"
   sodipodi:docname="mini-backRight.svg"><metadata
     id="metadata4523"><rdf:RDF><cc:Work
         rdf:about=""><dc:format>image/svg+xml</dc:format><dc:type
           rdf:resource="http://purl.org/dc/dcmitype/StillImage" /></cc:Work></rdf:RDF></metadata><defs
     id="defs4521" /><sodipodi:namedview
     pagecolor="#ffffff"
     bordercolor="#666666"
     borderopacity="1"
     objecttolerance="10"
     gridtolerance="10"
     guidetolerance="10"
     inkscape:pageopacity="0"
     inkscape:pageshadow="2"
     inkscape:window-width="2560"
     inkscape:window-height="1335"
     id="namedview4519"
     showgrid="false"
     inkscape:zoom="14.0125"
     inkscape:cx="40"
     inkscape:cy="40"
     inkscape:window-x="0"
     inkscape:window-y="56"
     inkscape:window-maximized="1"
     inkscape:current-layer="Layer_1" /><style
     type="text/css"
     id="style4483">
	.st0{fill:#FFFFFF;}
	.st1{fill:none;stroke:#646565;stroke-miterlimit:10;}
	.st2{fill:none;stroke:#646565;stroke-miterlimit:10;stroke-dasharray:1.173,1.173;}
</style><path
     class="st0"
     d="m 45.92,48.21 1.32,1.32 -3.12,3.12 12.84,3.48 -3.48,-12.96 -3.12,3.12 -1.32,-1.32 C 45.8,41.73 44,37.41 44,32.73 l 0,-5.4 -4.44,0 0,5.4 c 0,5.88 2.28,11.4 6.36,15.48 z"
     id="path4485"
     inkscape:connector-curvature="0"
     style="fill:#ffffff" /><g
     id="g4487"
     transform="matrix(1.2,0,0,1.2,-7.7199999,-7.47)"><path
       class="st0"
       d="m 29.5,21.7 c 2.4,0 4.6,1 6.2,2.5 0,0 0.1,0.1 0.1,0.1 l 0,9.6 c 0,0.1 -0.1,0.2 -0.2,0.2 l -12.1,0 c -0.1,0 -0.2,-0.1 -0.2,-0.2 l 0,-9.6 c 0,-0.1 0,-0.1 0.1,-0.1 1.5,-1.6 3.7,-2.5 6.1,-2.5 z"
       id="path4489"
       inkscape:connector-curvature="0"
       style="fill:#ffffff" /><g
       id="g4491"><g
         id="g4493"><line
           class="st1"
           x1="35.700001"
           y1="28.5"
           x2="35.200001"
           y2="28.5"
           id="line4495"
           style="fill:none;stroke:#646565;stroke-miterlimit:10" /><polyline
           class="st1"
           points="34.7,28.5 34.2,28.5 34.2,29    "
           id="polyline4497"
           style="fill:none;stroke:#646565;stroke-miterlimit:10" /><line
           class="st2"
           x1="34.200001"
           y1="30.1"
           x2="34.200001"
           y2="31.9"
           id="line4499"
           style="fill:none;stroke:#646565;stroke-miterlimit:10;stroke-dasharray:1.173, 1.173" /><polyline
           class="st1"
           points="34.2,32.5 34.2,33 34.7,33    "
           id="polyline4501"
           style="fill:none;stroke:#646565;stroke-miterlimit:10" /><line
           class="st1"
           x1="35.200001"
           y1="33"
           x2="35.700001"
           y2="33"
           id="line4503"
           style="fill:none;stroke:#646565;stroke-miterlimit:10" /></g></g><g
       id="g4505"><g
         id="g4507"><line
           class="st1"
           x1="23.299999"
           y1="33"
           x2="23.799999"
           y2="33"
           id="line4509"
           style="fill:none;stroke:#646565;stroke-miterlimit:10" /><polyline
           class="st1"
           points="24.2,33 24.7,33 24.7,32.5    "
           id="polyline4511"
           style="fill:none;stroke:#646565;stroke-miterlimit:10" /><line
           class="st2"
           x1="24.700001"
           y1="31.299999"
           x2="24.700001"
           y2="29.5"
           id="line4513"
           style="fill:none;stroke:#646565;stroke-miterlimit:10;stroke-dasharray:1.173, 1.173" /><polyline
           class="st1"
           points="24.7,29 24.7,28.5 24.2,28.5    "
           id="polyline4515"
           style="fill:none;stroke:#646565;stroke-miterlimit:10" /><line
           class="st1"
           x1="23.799999"
           y1="28.5"
           x2="23.299999"
           y2="28.5"
           id="line4517"
           style="fill:none;stroke:#646565;stroke-miterlimit:10" /></g></g></g></svg>