<?xml version="1.0" encoding="UTF-8" standalone="no"?>
<!-- Generator: Adobe Illustrator 19.2.1, SVG Export Plug-In . SVG Version: 6.00 Build 0)  -->

<svg
   xmlns:dc="http://purl.org/dc/elements/1.1/"
   xmlns:cc="http://creativecommons.org/ns#"
   xmlns:rdf="http://www.w3.org/1999/02/22-rdf-syntax-ns#"
   xmlns:svg="http://www.w3.org/2000/svg"
   xmlns="http://www.w3.org/2000/svg"
   xmlns:sodipodi="http://sodipodi.sourceforge.net/DTD/sodipodi-0.dtd"
   xmlns:inkscape="http://www.inkscape.org/namespaces/inkscape"
   version="1.1"
   id="Layer_1"
   x="0px"
   y="0px"
   viewBox="0 0 80 80"
   style="enable-background:new 0 0 80 80;"
   xml:space="preserve"
   inkscape:version="0.91 r13725"
   sodipodi:docname="mini-stop.svg"><metadata
     id="metadata5137"><rdf:RDF><cc:Work
         rdf:about=""><dc:format>image/svg+xml</dc:format><dc:type
           rdf:resource="http://purl.org/dc/dcmitype/StillImage" /></cc:Work></rdf:RDF></metadata><defs
     id="defs5135" /><sodipodi:namedview
     pagecolor="#ffffff"
     bordercolor="#666666"
     borderopacity="1"
     objecttolerance="10"
     gridtolerance="10"
     guidetolerance="10"
     inkscape:pageopacity="0"
     inkscape:pageshadow="2"
     inkscape:window-width="2560"
     inkscape:window-height="1335"
     id="namedview5133"
     showgrid="false"
     inkscape:zoom="14.0125"
     inkscape:cx="40"
     inkscape:cy="40"
     inkscape:window-x="0"
     inkscape:window-y="56"
     inkscape:window-maximized="1"
     inkscape:current-layer="Layer_1" /><style
     type="text/css"
     id="style5119">
	.st0{fill:#FFFFFF;}
	.st1{fill:none;stroke:#646565;stroke-miterlimit:10;stroke-dasharray:1;}
	.st2{fill:none;stroke:#C7C7C7;stroke-miterlimit:10;}
	.st3{fill:#EA2127;}
</style><g
     id="g5121"
     transform="matrix(1.2,0,0,1.2,-8.01,-8)"><path
       class="st0"
       d="m 40,25.1 c -5.8,0 -11,2.3 -14.8,6 -0.1,0.1 -0.1,0.2 -0.1,0.3 l 0,23 c 0,0.3 0.2,0.5 0.5,0.5 l 28.9,0 c 0.3,0 0.5,-0.2 0.5,-0.5 l 0,-23 c 0,-0.1 -0.1,-0.2 -0.1,-0.3 -3.9,-3.7 -9.1,-6 -14.9,-6 z"
       id="path5123"
       inkscape:connector-curvature="0"
       style="fill:#ffffff" /><polyline
       class="st1"
       points="25.1,41.4 28.6,41.4 28.6,52.2 25.1,52.2  "
       id="polyline5125"
       style="fill:none;stroke:#646565;stroke-miterlimit:10;stroke-dasharray:1" /><polyline
       class="st1"
       points="55,52.2 51.5,52.2 51.5,41.4 55,41.4  "
       id="polyline5127"
       style="fill:none;stroke:#646565;stroke-miterlimit:10;stroke-dasharray:1" /></g><circle
     class="st2"
     cx="39.990002"
     cy="40"
     r="7.4399996"
     id="circle5129"
     style="fill:none;stroke:#c7c7c7;stroke-width:1.20000005;stroke-miterlimit:10" /><rect
     x="37.109997"
     y="37"
     class="st3"
     width="6"
     height="6"
     id="rect5131"
     style="fill:#ea2127" /></svg>