<?xml version="1.0" encoding="utf-8"?>
<!-- Generator: Adobe Illustrator 23.0.3, SVG Export Plug-In . SVG Version: 6.00 Build 0)  -->
<svg version="1.1" id="Layer_1" xmlns="http://www.w3.org/2000/svg" xmlns:xlink="http://www.w3.org/1999/xlink" x="0px" y="0px"
	 viewBox="0 0 286.1 286.1" style="enable-background:new 0 0 286.1 286.1;" xml:space="preserve">
<style type="text/css">
	.st0{fill:#FFFFFF;}
</style>
<g>
	<path class="st0" d="M143,0C64,0,0,64,0,143c0,79,64,143,143,143c79,0,143-64,143-143C286.1,64,222,0,143,0z M143,259.2
		c-64.2,0-116.2-52-116.2-116.2S78.8,26.8,143,26.8s116.2,52,116.2,116.2S207.2,259.2,143,259.2z M143,62.7c-10.2,0-18,5.3-18,14
		v79.2c0,8.6,7.7,14,18,14c10,0,18-5.6,18-14V76.7C161,68.3,153,62.7,143,62.7z M143,187.7c-9.8,0-17.9,8-17.9,17.9
		c0,9.8,8,17.8,17.9,17.8s17.8-8,17.8-17.8C160.9,195.7,152.9,187.7,143,187.7z"/>
</g>
</svg>
