<?xml version="1.0" encoding="utf-8"?>
<!-- Generator: Adobe Illustrator 22.1.0, SVG Export Plug-In . SVG Version: 6.00 Build 0)  -->
<svg version="1.1" id="Calque_1" xmlns="http://www.w3.org/2000/svg" xmlns:xlink="http://www.w3.org/1999/xlink" x="0px" y="0px"
	 viewBox="0 0 202.3 90.6" style="enable-background:new 0 0 202.3 90.6;" xml:space="preserve">
<style type="text/css">
	.st0{fill:#EAEAEA;}
	.st1{fill:#2D2D2D;}
</style>
<g>
	<rect class="st0" width="202.3" height="90.6"/>
</g>
<g>
	<g>
		<path class="st1" d="M97.2,57.3c0-3.9,0.5-7,1.4-9.4c0.9-2.3,2.7-4.6,5.2-6.9c2.5-2.3,4.2-4.1,5-5.5c0.8-1.4,1.2-2.9,1.2-4.5
			c0-4.7-2.2-7.1-6.5-7.1c-2,0-3.7,0.6-4.9,1.9c-1.2,1.3-1.9,3-1.9,5.3h-12c0.1-5.4,1.8-9.5,5.1-12.6c3.4-3,7.9-4.5,13.7-4.5
			c5.8,0,10.4,1.4,13.6,4.3c3.2,2.9,4.8,6.9,4.8,12.2c0,2.4-0.5,4.6-1.6,6.7c-1,2.1-2.9,4.5-5.5,7l-3.4,3.2c-2.1,2-3.3,4.4-3.6,7.2
			l-0.2,2.6H97.2z M96,70.2c0-1.9,0.6-3.4,1.9-4.6c1.3-1.2,2.9-1.8,4.8-1.8c2,0,3.6,0.6,4.8,1.8c1.3,1.2,1.9,2.8,1.9,4.6
			c0,1.8-0.6,3.4-1.8,4.6c-1.2,1.2-2.8,1.8-4.9,1.8c-2,0-3.6-0.6-4.9-1.8C96.6,73.5,96,72,96,70.2z"/>
	</g>
</g>
</svg>
