<?xml version="1.0" encoding="utf-8"?>
<!-- Generator: Adobe Illustrator 21.0.2, SVG Export Plug-In . SVG Version: 6.00 Build 0)  -->
<svg version="1.1" id="Calque_1" xmlns="http://www.w3.org/2000/svg" xmlns:xlink="http://www.w3.org/1999/xlink" x="0px" y="0px"
	 xml:space="preserve">
<g>
	<path d="M28.4,18c-5.5,0-10,4.5-10,10c0,5.5,4.5,10,10,10c5.5,0,10-4.5,10-10C38.4,22.5,34,18,28.4,18L28.4,18z M28.4,36.7
		c-4.8,0-8.7-3.9-8.7-8.7s3.9-8.7,8.7-8.7s8.7,3.9,8.7,8.7S33.3,36.7,28.4,36.7L28.4,36.7z M28.4,25.5c-0.7,0-1.2,0.6-1.2,1.2V33
		c0,0.7,0.6,1.2,1.2,1.2c0.7,0,1.2-0.6,1.2-1.2v-6.2C29.7,26,29.1,25.5,28.4,25.5L28.4,25.5z M28.4,21.7c-0.7,0-1.2,0.6-1.2,1.2
		c0,0.7,0.6,1.2,1.2,1.2c0.7,0,1.2-0.6,1.2-1.2C29.7,22.3,29.1,21.7,28.4,21.7L28.4,21.7z M28.4,21.7"/>
</g>
</svg>
