<?xml version="1.0" encoding="utf-8"?>
<!-- Generator: Adobe Illustrator 22.1.0, SVG Export Plug-In . SVG Version: 6.00 Build 0)  -->
<svg version="1.1" id="Calque_1" xmlns="http://www.w3.org/2000/svg" xmlns:xlink="http://www.w3.org/1999/xlink" x="0px" y="0px"
	 viewBox="0 0 20 20" style="enable-background:new 0 0 20 20;" xml:space="preserve">
<g>
	<path d="M10,0C4.5,0,0,4.5,0,10s4.5,10,10,10s10-4.5,10-10S15.6,0,10,0L10,0z M10,18.7c-4.8,0-8.7-3.9-8.7-8.7S5.2,1.3,10,1.3
		s8.7,3.9,8.7,8.7S14.9,18.7,10,18.7L10,18.7z M10,7.5c-0.7,0-1.2,0.6-1.2,1.2V15c0,0.7,0.6,1.2,1.2,1.2c0.7,0,1.2-0.6,1.2-1.2V8.8
		C11.3,8,10.7,7.5,10,7.5L10,7.5z M10,3.7c-0.7,0-1.2,0.6-1.2,1.2c0,0.7,0.6,1.2,1.2,1.2c0.7,0,1.2-0.6,1.2-1.2
		C11.3,4.3,10.7,3.7,10,3.7L10,3.7z"/>
</g>
</svg>
