<?xml version="1.0" encoding="utf-8"?>
<!-- Generator: Adobe Illustrator 22.1.0, SVG Export Plug-In . SVG Version: 6.00 Build 0)  -->
<svg version="1.1" id="Calque_1" xmlns="http://www.w3.org/2000/svg" xmlns:xlink="http://www.w3.org/1999/xlink" x="0px" y="0px"
	 viewBox="0 0 100 100" style="enable-background:new 0 0 100 100;" xml:space="preserve">
<style type="text/css">
	.st0{fill:#0A9EEB;}
</style>
<path class="st0" d="M50,0.6C22.8,0.6,0.6,22.9,0.6,50s22.2,49.4,49.4,49.4S99.4,77.3,99.4,50S77.3,0.6,50,0.6z M50,92.9
	C26.4,92.9,7.1,73.8,7.1,50S26.5,7.1,50.1,7.1c23.7,0,42.9,19.2,42.9,42.9S73.8,92.9,50,92.9z"/>
<path class="st0" d="M64.9,31L50,45.8L35.2,31c-1.2-1.2-3.1-1.2-4.2,0c-1.2,1.2-1.2,3.1,0,4.2L45.8,50L31,64.9
	c-1.2,1.2-1.2,3.1,0,4.2s3.1,1.2,4.2,0L50,54.3l14.8,14.8c1.2,1.2,3.1,1.2,4.2,0s1.2-3.1,0-4.2L54.3,50l14.8-14.8
	c1.2-1.2,1.2-3.1,0-4.2C68,29.8,66.1,29.8,64.9,31z"/>
</svg>
