<?xml version="1.0" encoding="utf-8"?>
<!-- Generator: Adobe Illustrator 23.0.3, SVG Export Plug-In . SVG Version: 6.00 Build 0)  -->
<svg version="1.1" id="Calque_1" xmlns="http://www.w3.org/2000/svg" xmlns:xlink="http://www.w3.org/1999/xlink" x="0px" y="0px"
	 viewBox="0 0 100 100" style="enable-background:new 0 0 100 100;" xml:space="preserve">
<g>
	<path d="M50.1,0.7C22.8,0.7,0.6,22.9,0.6,50.2c0,27.3,22.2,49.5,49.5,49.5c27.3,0,49.5-22.2,49.5-49.5C99.6,22.9,77.4,0.7,50.1,0.7
		z M50.1,93.2c-23.7,0-43-19.3-43-43c0-23.7,19.3-43,43-43c23.7,0,43,19.3,43,43C93.1,73.9,73.8,93.2,50.1,93.2z"/>
	<g>
		<path d="M64.9,31.9H35.3c-1.3,0-2.4,1.1-2.4,2.4v1.6c0,1.3,1.1,2.4,2.4,2.4h29.6c1.3,0,2.4-1.1,2.4-2.4v-1.6
			C67.3,33,66.2,31.9,64.9,31.9z"/>
		<path d="M65.1,46.9H35c-1.2,0-2.2,1-2.2,2.2v2.2c0,1.2,1,2.2,2.2,2.2h30.1c1.2,0,2.2-1,2.2-2.2v-2.2
			C67.3,47.9,66.3,46.9,65.1,46.9z"/>
		<path d="M65.1,62H35c-1.2,0-2.2,1-2.2,2.2v2.2c0,1.2,1,2.2,2.2,2.2h30.1c1.2,0,2.2-1,2.2-2.2v-2.2C67.3,63,66.3,62,65.1,62z"/>
	</g>
</g>
</svg>
