<?xml version="1.0" encoding="utf-8"?>
<!-- Generator: Adobe Illustrator 22.1.0, SVG Export Plug-In . SVG Version: 6.00 Build 0)  -->
<svg version="1.1" id="Calque_1" xmlns="http://www.w3.org/2000/svg" xmlns:xlink="http://www.w3.org/1999/xlink" x="0px" y="0px"
	 viewBox="0 0 400 400" style="enable-background:new 0 0 400 400;" xml:space="preserve">
<style type="text/css">
	.st0{fill:#3098D4;}
	.st1{fill:#6D6D6C;}
	.st2{fill:#DFDFDF;}
	.st3{fill:#CAC9C9;}
	.st4{fill:#0E0E0E;}
	.st5{fill:#E9E9E9;}
	.st6{fill:#CDCDCC;}
</style>
<g>
	<circle class="st0" cx="200" cy="200" r="200"/>
	<g>
		<rect x="191.3" y="242.8" class="st1" width="19.1" height="10"/>
		<path class="st2" d="M203.7,145.7h-6.2c-9.5,0-17.4,7.9-17.4,17.4v62.7c0,9.5,7.9,17.4,17.4,17.4h6.2c9.5,0,17.4-7.9,17.4-17.4
			v-63.1C221.2,153.2,213.3,145.7,203.7,145.7z"/>
		<g>
			<circle class="st3" cx="192.5" cy="183.1" r="5.4"/>
			<circle class="st3" cx="208.7" cy="183.1" r="5.4"/>
			<circle class="st3" cx="192.5" cy="199.7" r="5.4"/>
			<circle class="st3" cx="208.7" cy="199.7" r="5.4"/>
		</g>
	</g>
	<g>
		<g>
			<g>
				<path id="path491_63_" class="st4" d="M22,181.8H6.6c-1.7,0-2.9-1.2-2.9-2.9v-16.6c0-1.7,1.2-2.9,2.9-2.9H22
					c1.7,0,2.9,1.2,2.9,2.9v16.6C24.9,180.6,23.7,181.8,22,181.8z"/>
				<path id="path493_63_" class="st4" d="M150.2,181.8h-15.4c-1.7,0-2.9-1.2-2.9-2.9v-16.6c0-1.7,1.2-2.9,2.9-2.9h15.4
					c1.7,0,2.9,1.2,2.9,2.9v16.6C153.1,180.6,151.9,181.8,150.2,181.8z"/>
				<path class="st5" d="M92.1,170.6h-0.8l0,0C91.7,170.6,91.7,170.6,92.1,170.6z"/>
				<path class="st5" d="M64.7,170.6h0.4l0,0H64.7z"/>
				<path class="st5" d="M72.6,178.5c2.1,2.5,5.4,2.1,5.4,2.1s3.7,0.4,5.8-2.1c1.7-1.7,2.1-3.3,2.9-5H70.1
					C70.5,175.2,71,176.8,72.6,178.5z"/>
				<rect x="65.1" y="167.7" class="st6" width="26.1" height="2.9"/>
				<path class="st6" d="M91.3,170.6L91.3,170.6H65.1l0,0c3.3,0,4.1,1.2,5,2.9h16.6C87.6,172.3,88.4,171,91.3,170.6z"/>
				<path id="path497_61_" class="st5" d="M154.4,171.9H2.5c-1.2,0-2.5-0.8-2.5-2.5V115c0-1.2,0.8-2.5,2.5-2.5h152.3
					c1.2,0,2.5,0.8,2.5,2.5v54.8C156.8,171,155.6,171.9,154.4,171.9L154.4,171.9z"/>
				<g id="g499_69_">
					<g>
						<path id="rect501_14_" class="st4" d="M69.7,137.8h17c0.4,0,0.4,0,0.4,0.4v6.2c0,0.4,0,0.4-0.4,0.4h-17c-0.4,0-0.4,0-0.4-0.4
							L69.7,137.8C69.3,137.8,69.7,137.8,69.7,137.8z"/>
						<path id="rect503_14_" class="st4" d="M35.3,137.8h14.1c0.4,0,0.4,0,0.4,0.4v6.2c0,0.4,0,0.4-0.4,0.4H35.3
							c-0.4,0-0.4,0-0.4-0.4L35.3,137.8C34.9,137.8,35.3,137.8,35.3,137.8z"/>
						<path id="rect505_14_" class="st4" d="M5.8,137.8H17c0.4,0,0.4,0,0.4,0.4v6.2c0,0.4,0,0.4-0.4,0.4H5.8c-0.4,0-0.4,0-0.4-0.4
							L5.8,137.8C5.4,137.8,5.4,137.8,5.8,137.8z"/>
						<path id="rect507_14_" class="st4" d="M107.1,137.8h14.1c0.4,0,0.4,0,0.4,0.4v6.2c0,0.4,0,0.4-0.4,0.4h-14.1
							c-0.4,0-0.4,0-0.4-0.4L107.1,137.8L107.1,137.8z"/>
						<path id="rect509_14_" class="st4" d="M139.8,137.8H151c0.4,0,0.4,0,0.4,0.4v6.2c0,0.4,0,0.4-0.4,0.4h-11.2
							c-0.4,0-0.4,0-0.4-0.4L139.8,137.8C139.4,137.8,139.8,137.8,139.8,137.8z"/>
					</g>
				</g>
			</g>
		</g>
		<g>
			<g>
				<path id="path491_3_" class="st4" d="M22,285.6H6.6c-1.7,0-2.9-1.2-2.9-2.9v-16.6c0-1.7,1.2-2.9,2.9-2.9H22
					c1.7,0,2.9,1.2,2.9,2.9v16.6C24.9,284.3,23.7,285.6,22,285.6z"/>
				<path id="path493_3_" class="st4" d="M150.2,285.6h-15.4c-1.7,0-2.9-1.2-2.9-2.9v-16.6c0-1.7,1.2-2.9,2.9-2.9h15.4
					c1.7,0,2.9,1.2,2.9,2.9v16.6C153.1,284.3,151.9,285.6,150.2,285.6z"/>
				<path class="st5" d="M92.1,274.4h-0.8l0,0C91.7,274.4,91.7,274.4,92.1,274.4z"/>
				<path class="st5" d="M64.7,274.4h0.4l0,0H64.7z"/>
				<path class="st5" d="M72.6,282.2c2.1,2.5,5.4,2.1,5.4,2.1s3.7,0.4,5.8-2.1c1.7-1.7,2.1-3.3,2.9-5H70.1
					C70.5,278.9,71,280.6,72.6,282.2z"/>
				<rect x="65.1" y="271.5" class="st6" width="26.1" height="2.9"/>
				<path class="st6" d="M91.3,274.4L91.3,274.4H65.1l0,0c3.3,0,4.1,1.2,5,2.9h16.6C87.6,276,88.4,274.8,91.3,274.4z"/>
				<path id="path497_3_" class="st5" d="M154.4,275.6H2.5c-1.2,0-2.5-0.8-2.5-2.5v-54.4c0-1.2,0.8-2.5,2.5-2.5h152.3
					c1.2,0,2.5,0.8,2.5,2.5v54.8C156.8,274.8,155.6,275.6,154.4,275.6L154.4,275.6z"/>
				<g id="g499_4_">
					<g>
						<path id="rect501_13_" class="st4" d="M69.7,241.6h17c0.4,0,0.4,0,0.4,0.4v6.2c0,0.4,0,0.4-0.4,0.4h-17c-0.4,0-0.4,0-0.4-0.4
							L69.7,241.6C69.3,241.6,69.7,241.6,69.7,241.6z"/>
						<path id="rect503_13_" class="st4" d="M35.3,241.6h14.1c0.4,0,0.4,0,0.4,0.4v6.2c0,0.4,0,0.4-0.4,0.4H35.3
							c-0.4,0-0.4,0-0.4-0.4L35.3,241.6C34.9,241.6,35.3,241.6,35.3,241.6z"/>
						<path id="rect505_13_" class="st4" d="M5.8,241.6H17c0.4,0,0.4,0,0.4,0.4v6.2c0,0.4,0,0.4-0.4,0.4H5.8c-0.4,0-0.4,0-0.4-0.4
							L5.8,241.6C5.4,241.6,5.4,241.6,5.8,241.6z"/>
						<path id="rect507_13_" class="st4" d="M107.1,241.6h14.1c0.4,0,0.4,0,0.4,0.4v6.2c0,0.4,0,0.4-0.4,0.4h-14.1
							c-0.4,0-0.4,0-0.4-0.4L107.1,241.6L107.1,241.6z"/>
						<path id="rect509_13_" class="st4" d="M139.8,241.6H151c0.4,0,0.4,0,0.4,0.4v6.2c0,0.4,0,0.4-0.4,0.4h-11.2
							c-0.4,0-0.4,0-0.4-0.4L139.8,241.6C139.4,241.6,139.8,241.6,139.8,241.6z"/>
					</g>
				</g>
			</g>
		</g>
		<g>
			<g>
				<path id="path491_5_" class="st4" d="M265.1,285.6h-15.4c-1.7,0-2.9-1.2-2.9-2.9v-16.6c0-1.7,1.2-2.9,2.9-2.9h15.4
					c1.7,0,2.9,1.2,2.9,2.9v16.6C268,284.3,266.8,285.6,265.1,285.6z"/>
				<path id="path493_5_" class="st4" d="M392.9,285.6h-15.4c-1.7,0-2.9-1.2-2.9-2.9v-16.6c0-1.7,1.2-2.9,2.9-2.9h15.4
					c1.7,0,2.9,1.2,2.9,2.9v16.6C395.9,284.3,394.6,285.6,392.9,285.6z"/>
				<path class="st5" d="M335.3,274.4h-0.8l0,0C334.4,274.4,334.9,274.4,335.3,274.4z"/>
				<path class="st5" d="M307.5,274.4h0.4l0,0H307.5z"/>
				<path class="st5" d="M315.8,282.2c2.1,2.5,5.4,2.1,5.4,2.1s3.7,0.4,5.8-2.1c1.7-1.7,2.1-3.3,2.9-5h-16.6
					C313.7,278.9,314.1,280.6,315.8,282.2z"/>
				<rect x="307.9" y="271.5" class="st6" width="26.1" height="2.9"/>
				<path class="st6" d="M334.4,274.4L334.4,274.4h-26.1l0,0c3.3,0,4.1,1.2,5,2.9h16.6C330.3,276,331.5,274.8,334.4,274.4z"/>
				<path id="path497_5_" class="st5" d="M397.5,275.6H245.2c-1.2,0-2.5-0.8-2.5-2.5v-54.4c0-1.2,0.8-2.5,2.5-2.5h152.3
					c1.2,0,2.5,0.8,2.5,2.5v54.8C399.6,274.8,398.8,275.6,397.5,275.6L397.5,275.6z"/>
				<g id="g499_6_">
					<g>
						<path id="rect501_12_" class="st4" d="M312.9,241.6h17c0.4,0,0.4,0,0.4,0.4v6.2c0,0.4,0,0.4-0.4,0.4h-17c-0.4,0-0.4,0-0.4-0.4
							L312.9,241.6C312.4,241.6,312.4,241.6,312.9,241.6z"/>
						<path id="rect503_12_" class="st4" d="M278.4,241.6h14.1c0.4,0,0.4,0,0.4,0.4v6.2c0,0.4,0,0.4-0.4,0.4h-14.1
							c-0.4,0-0.4,0-0.4-0.4L278.4,241.6C278,241.6,278.4,241.6,278.4,241.6z"/>
						<path id="rect505_12_" class="st4" d="M249,241.6h11.2c0.4,0,0.4,0,0.4,0.4v6.2c0,0.4,0,0.4-0.4,0.4H249c-0.4,0-0.4,0-0.4-0.4
							L249,241.6C248.5,241.6,248.5,241.6,249,241.6z"/>
						<path id="rect507_12_" class="st4" d="M350.2,241.6h14.1c0.4,0,0.4,0,0.4,0.4v6.2c0,0.4,0,0.4-0.4,0.4h-14.1
							c-0.4,0-0.4,0-0.4-0.4L350.2,241.6C349.8,241.6,350.2,241.6,350.2,241.6z"/>
						<path id="rect509_12_" class="st4" d="M383,241.6h11.2c0.4,0,0.4,0,0.4,0.4v6.2c0,0.4,0,0.4-0.4,0.4H383c-0.4,0-0.4,0-0.4-0.4
							L383,241.6C382.6,241.6,382.6,241.6,383,241.6z"/>
					</g>
				</g>
			</g>
		</g>
		<g>
			<g>
				<path id="path491_9_" class="st4" d="M265.1,183.5h-15.4c-1.7,0-2.9-1.2-2.9-2.9V164c0-1.7,1.2-2.9,2.9-2.9h15.4
					c1.7,0,2.9,1.2,2.9,2.9v16.6C268,182.2,266.8,183.5,265.1,183.5z"/>
				<path id="path493_9_" class="st4" d="M392.9,183.5h-15.4c-1.7,0-2.9-1.2-2.9-2.9V164c0-1.7,1.2-2.9,2.9-2.9h15.4
					c1.7,0,2.9,1.2,2.9,2.9v16.6C395.9,182.2,394.6,183.5,392.9,183.5z"/>
				<path class="st5" d="M335.3,172.3h-0.8l0,0C334.4,172.3,334.9,172.3,335.3,172.3z"/>
				<path class="st5" d="M307.5,172.3h0.4l0,0H307.5z"/>
				<path class="st5" d="M315.8,180.6c2.1,2.5,5.4,2.1,5.4,2.1s3.7,0.4,5.8-2.1c1.7-1.7,2.1-3.3,2.9-5h-16.6
					C313.7,176.8,314.1,178.5,315.8,180.6z"/>
				<rect x="307.9" y="169.4" class="st6" width="26.1" height="2.9"/>
				<path class="st6" d="M334.4,172.3L334.4,172.3h-26.1l0,0c3.3,0,4.1,1.2,5,2.9h16.6C330.3,173.9,331.5,172.7,334.4,172.3z"/>
				<path id="path497_9_" class="st5" d="M397.5,173.9H245.2c-1.2,0-2.5-0.8-2.5-2.5v-54.8c0-1.2,0.8-2.5,2.5-2.5h152.3
					c1.2,0,2.5,0.8,2.5,2.5v54.8C399.6,172.7,398.8,173.9,397.5,173.9L397.5,173.9z"/>
				<g id="g499_10_">
					<g>
						<path id="rect501_10_" class="st4" d="M312.9,139.5h17c0.4,0,0.4,0,0.4,0.4v6.6c0,0.4,0,0.4-0.4,0.4h-17c-0.4,0-0.4,0-0.4-0.4
							L312.9,139.5C312.4,139.5,312.4,139.5,312.9,139.5z"/>
						<path id="rect503_10_" class="st4" d="M278.4,139.5h14.1c0.4,0,0.4,0,0.4,0.4v6.6c0,0.4,0,0.4-0.4,0.4h-14.1
							c-0.4,0-0.4,0-0.4-0.4L278.4,139.5C278,139.5,278.4,139.5,278.4,139.5z"/>
						<path id="rect505_10_" class="st4" d="M249,139.5h11.2c0.4,0,0.4,0,0.4,0.4v6.6c0,0.4,0,0.4-0.4,0.4H249c-0.4,0-0.4,0-0.4-0.4
							L249,139.5C248.5,139.5,248.5,139.5,249,139.5z"/>
						<path id="rect507_10_" class="st4" d="M350.2,139.5h14.1c0.4,0,0.4,0,0.4,0.4v6.6c0,0.4,0,0.4-0.4,0.4h-14.1
							c-0.4,0-0.4,0-0.4-0.4L350.2,139.5C349.8,139.5,350.2,139.5,350.2,139.5z"/>
						<path id="rect509_10_" class="st4" d="M383,139.5h11.2c0.4,0,0.4,0,0.4,0.4v6.6c0,0.4,0,0.4-0.4,0.4H383c-0.4,0-0.4,0-0.4-0.4
							L383,139.5C382.6,139.5,382.6,139.5,383,139.5z"/>
					</g>
				</g>
			</g>
		</g>
	</g>
</g>
</svg>
