<?xml version="1.0" encoding="utf-8"?>
<!-- Generator: Adobe Illustrator 23.0.3, SVG Export Plug-In . SVG Version: 6.00 Build 0)  -->
<svg version="1.1" id="Calque_1" xmlns="http://www.w3.org/2000/svg" xmlns:xlink="http://www.w3.org/1999/xlink" x="0px" y="0px"
	 viewBox="0 0 99 82" style="enable-background:new 0 0 99 82;" xml:space="preserve">
<style type="text/css">
	.st0{fill:#3098D4;}
	.st1{fill:#6D6D6C;}
	.st2{fill:#DFDFDF;}
	.st3{fill:#CAC9C9;}
	.st4{fill:#0E0E0E;}
	.st5{fill:#E9E9E9;}
	.st6{fill:#CDCDCC;}
</style>
<g>
	<circle class="st0" cx="49.9" cy="41.2" r="39.6"/>
	<g>
		<rect x="47.6" y="51.7" class="st1" width="4.6" height="2.4"/>
		<path class="st2" d="M50.6,28.3h-1.5c-2.3,0-4.2,1.9-4.2,4.2v15.1c0,2.3,1.9,4.2,4.2,4.2h1.5c2.3,0,4.2-1.9,4.2-4.2V32.4
			C54.8,30.1,52.9,28.3,50.6,28.3z"/>
		<g>
			<circle class="st3" cx="47.9" cy="37.3" r="1.3"/>
			<circle class="st3" cx="51.8" cy="37.3" r="1.3"/>
			<circle class="st3" cx="47.9" cy="41.3" r="1.3"/>
			<circle class="st3" cx="51.8" cy="41.3" r="1.3"/>
		</g>
	</g>
	<g>
		<g>
			<g>
				<path id="path491_63_" class="st4" d="M6.8,37H3.1c-0.4,0-0.7-0.3-0.7-0.7v-4c0-0.4,0.3-0.7,0.7-0.7h3.7c0.4,0,0.7,0.3,0.7,0.7
					v4C7.5,36.7,7.2,37,6.8,37z"/>
				<path id="path493_63_" class="st4" d="M37.7,37H34c-0.4,0-0.7-0.3-0.7-0.7v-4c0-0.4,0.3-0.7,0.7-0.7h3.7c0.4,0,0.7,0.3,0.7,0.7
					v4C38.4,36.7,38.1,37,37.7,37z"/>
				<path class="st5" d="M23.7,34.3h-0.2v0C23.6,34.3,23.6,34.3,23.7,34.3z"/>
				<path class="st5" d="M17.1,34.3c0,0,0.1,0,0.1,0v0H17.1z"/>
				<path class="st5" d="M19,36.2c0.5,0.6,1.3,0.5,1.3,0.5s0.9,0.1,1.4-0.5c0.4-0.4,0.5-0.8,0.7-1.2h-4C18.5,35.4,18.6,35.8,19,36.2
					z"/>
				<rect x="17.2" y="33.6" class="st6" width="6.3" height="0.7"/>
				<path class="st6" d="M23.5,34.3L23.5,34.3l-6.3,0v0c0.8,0,1,0.3,1.2,0.7h4C22.6,34.7,22.8,34.4,23.5,34.3z"/>
				<path id="path497_61_" class="st5" d="M38.7,34.6H2.1c-0.3,0-0.6-0.2-0.6-0.6V20.9c0-0.3,0.2-0.6,0.6-0.6h36.7
					c0.3,0,0.6,0.2,0.6,0.6v13.2C39.3,34.4,39,34.6,38.7,34.6L38.7,34.6z"/>
				<g id="g499_69_">
					<g>
						<path id="rect501_14_" class="st4" d="M18.3,26.4h4.1c0.1,0,0.1,0,0.1,0.1V28c0,0.1,0,0.1-0.1,0.1h-4.1c-0.1,0-0.1,0-0.1-0.1
							L18.3,26.4C18.2,26.4,18.3,26.4,18.3,26.4z"/>
						<path id="rect503_14_" class="st4" d="M10,26.4h3.4c0.1,0,0.1,0,0.1,0.1V28c0,0.1,0,0.1-0.1,0.1H10c-0.1,0-0.1,0-0.1-0.1
							L10,26.4C9.9,26.4,10,26.4,10,26.4z"/>
						<path id="rect505_14_" class="st4" d="M2.9,26.4h2.7c0.1,0,0.1,0,0.1,0.1V28c0,0.1,0,0.1-0.1,0.1H2.9c-0.1,0-0.1,0-0.1-0.1
							L2.9,26.4C2.8,26.4,2.8,26.4,2.9,26.4z"/>
						<path id="rect507_14_" class="st4" d="M27.3,26.4h3.4c0.1,0,0.1,0,0.1,0.1V28c0,0.1,0,0.1-0.1,0.1h-3.4c-0.1,0-0.1,0-0.1-0.1
							L27.3,26.4C27.3,26.4,27.3,26.4,27.3,26.4z"/>
						<path id="rect509_14_" class="st4" d="M35.2,26.4h2.7c0.1,0,0.1,0,0.1,0.1V28c0,0.1,0,0.1-0.1,0.1h-2.7c-0.1,0-0.1,0-0.1-0.1
							L35.2,26.4C35.1,26.4,35.2,26.4,35.2,26.4z"/>
					</g>
				</g>
			</g>
		</g>
		<g>
			<g>
				<path id="path491_3_" class="st4" d="M6.8,62H3.1c-0.4,0-0.7-0.3-0.7-0.7v-4c0-0.4,0.3-0.7,0.7-0.7h3.7c0.4,0,0.7,0.3,0.7,0.7v4
					C7.5,61.7,7.2,62,6.8,62z"/>
				<path id="path493_3_" class="st4" d="M37.7,62H34c-0.4,0-0.7-0.3-0.7-0.7v-4c0-0.4,0.3-0.7,0.7-0.7h3.7c0.4,0,0.7,0.3,0.7,0.7v4
					C38.4,61.7,38.1,62,37.7,62z"/>
				<path class="st5" d="M23.7,59.3h-0.2v0C23.6,59.3,23.6,59.3,23.7,59.3z"/>
				<path class="st5" d="M17.1,59.3c0,0,0.1,0,0.1,0v0H17.1z"/>
				<path class="st5" d="M19,61.2c0.5,0.6,1.3,0.5,1.3,0.5s0.9,0.1,1.4-0.5c0.4-0.4,0.5-0.8,0.7-1.2h-4C18.5,60.4,18.6,60.8,19,61.2
					z"/>
				<rect x="17.2" y="58.6" class="st6" width="6.3" height="0.7"/>
				<path class="st6" d="M23.5,59.3L23.5,59.3l-6.3,0v0c0.8,0,1,0.3,1.2,0.7h4C22.6,59.7,22.8,59.4,23.5,59.3z"/>
				<path id="path497_3_" class="st5" d="M38.7,59.6H2.1c-0.3,0-0.6-0.2-0.6-0.6V45.9c0-0.3,0.2-0.6,0.6-0.6h36.7
					c0.3,0,0.6,0.2,0.6,0.6v13.2C39.3,59.4,39,59.6,38.7,59.6L38.7,59.6z"/>
				<g id="g499_4_">
					<g>
						<path id="rect501_13_" class="st4" d="M18.3,51.4h4.1c0.1,0,0.1,0,0.1,0.1V53c0,0.1,0,0.1-0.1,0.1h-4.1c-0.1,0-0.1,0-0.1-0.1
							L18.3,51.4C18.2,51.4,18.3,51.4,18.3,51.4z"/>
						<path id="rect503_13_" class="st4" d="M10,51.4h3.4c0.1,0,0.1,0,0.1,0.1V53c0,0.1,0,0.1-0.1,0.1H10c-0.1,0-0.1,0-0.1-0.1
							L10,51.4C9.9,51.4,10,51.4,10,51.4z"/>
						<path id="rect505_13_" class="st4" d="M2.9,51.4h2.7c0.1,0,0.1,0,0.1,0.1V53c0,0.1,0,0.1-0.1,0.1H2.9c-0.1,0-0.1,0-0.1-0.1
							L2.9,51.4C2.8,51.4,2.8,51.4,2.9,51.4z"/>
						<path id="rect507_13_" class="st4" d="M27.3,51.4h3.4c0.1,0,0.1,0,0.1,0.1V53c0,0.1,0,0.1-0.1,0.1h-3.4c-0.1,0-0.1,0-0.1-0.1
							L27.3,51.4C27.3,51.4,27.3,51.4,27.3,51.4z"/>
						<path id="rect509_13_" class="st4" d="M35.2,51.4h2.7c0.1,0,0.1,0,0.1,0.1V53c0,0.1,0,0.1-0.1,0.1h-2.7c-0.1,0-0.1,0-0.1-0.1
							L35.2,51.4C35.1,51.4,35.2,51.4,35.2,51.4z"/>
					</g>
				</g>
			</g>
		</g>
		<g>
			<g>
				<path id="path491_5_" class="st4" d="M65.4,62h-3.7c-0.4,0-0.7-0.3-0.7-0.7v-4c0-0.4,0.3-0.7,0.7-0.7h3.7c0.4,0,0.7,0.3,0.7,0.7
					v4C66.1,61.7,65.8,62,65.4,62z"/>
				<path id="path493_5_" class="st4" d="M96.2,62h-3.7c-0.4,0-0.7-0.3-0.7-0.7v-4c0-0.4,0.3-0.7,0.7-0.7h3.7c0.4,0,0.7,0.3,0.7,0.7
					v4C96.9,61.7,96.6,62,96.2,62z"/>
				<path class="st5" d="M82.3,59.3h-0.2v0C82.1,59.3,82.2,59.3,82.3,59.3z"/>
				<path class="st5" d="M75.6,59.3c0,0,0.1,0,0.1,0v0H75.6z"/>
				<path class="st5" d="M77.6,61.2c0.5,0.6,1.3,0.5,1.3,0.5s0.9,0.1,1.4-0.5c0.4-0.4,0.5-0.8,0.7-1.2h-4
					C77.1,60.4,77.2,60.8,77.6,61.2z"/>
				<rect x="75.7" y="58.6" class="st6" width="6.3" height="0.7"/>
				<path class="st6" d="M82.1,59.3L82.1,59.3l-6.3,0v0c0.8,0,1,0.3,1.2,0.7h4C81.1,59.7,81.4,59.4,82.1,59.3z"/>
				<path id="path497_5_" class="st5" d="M97.3,59.6H60.6c-0.3,0-0.6-0.2-0.6-0.6V45.9c0-0.3,0.2-0.6,0.6-0.6h36.7
					c0.3,0,0.6,0.2,0.6,0.6v13.2C97.8,59.4,97.6,59.6,97.3,59.6L97.3,59.6z"/>
				<g id="g499_6_">
					<g>
						<path id="rect501_12_" class="st4" d="M76.9,51.4H81c0.1,0,0.1,0,0.1,0.1V53c0,0.1,0,0.1-0.1,0.1h-4.1c-0.1,0-0.1,0-0.1-0.1
							L76.9,51.4C76.8,51.4,76.8,51.4,76.9,51.4z"/>
						<path id="rect503_12_" class="st4" d="M68.6,51.4h3.4c0.1,0,0.1,0,0.1,0.1V53c0,0.1,0,0.1-0.1,0.1h-3.4c-0.1,0-0.1,0-0.1-0.1
							L68.6,51.4C68.5,51.4,68.6,51.4,68.6,51.4z"/>
						<path id="rect505_12_" class="st4" d="M61.5,51.4h2.7c0.1,0,0.1,0,0.1,0.1V53c0,0.1,0,0.1-0.1,0.1h-2.7c-0.1,0-0.1,0-0.1-0.1
							L61.5,51.4C61.4,51.4,61.4,51.4,61.5,51.4z"/>
						<path id="rect507_12_" class="st4" d="M85.9,51.4h3.4c0.1,0,0.1,0,0.1,0.1V53c0,0.1,0,0.1-0.1,0.1h-3.4c-0.1,0-0.1,0-0.1-0.1
							L85.9,51.4C85.8,51.4,85.9,51.4,85.9,51.4z"/>
						<path id="rect509_12_" class="st4" d="M93.8,51.4h2.7c0.1,0,0.1,0,0.1,0.1V53c0,0.1,0,0.1-0.1,0.1h-2.7c-0.1,0-0.1,0-0.1-0.1
							L93.8,51.4C93.7,51.4,93.7,51.4,93.8,51.4z"/>
					</g>
				</g>
			</g>
		</g>
		<g>
			<g>
				<path id="path491_9_" class="st4" d="M65.4,37.4h-3.7c-0.4,0-0.7-0.3-0.7-0.7v-4c0-0.4,0.3-0.7,0.7-0.7h3.7
					c0.4,0,0.7,0.3,0.7,0.7v4C66.1,37.1,65.8,37.4,65.4,37.4z"/>
				<path id="path493_9_" class="st4" d="M96.2,37.4h-3.7c-0.4,0-0.7-0.3-0.7-0.7v-4c0-0.4,0.3-0.7,0.7-0.7h3.7
					c0.4,0,0.7,0.3,0.7,0.7v4C96.9,37.1,96.6,37.4,96.2,37.4z"/>
				<path class="st5" d="M82.3,34.7h-0.2v0C82.1,34.7,82.2,34.7,82.3,34.7z"/>
				<path class="st5" d="M75.6,34.7c0,0,0.1,0,0.1,0v0H75.6z"/>
				<path class="st5" d="M77.6,36.7c0.5,0.6,1.3,0.5,1.3,0.5s0.9,0.1,1.4-0.5c0.4-0.4,0.5-0.8,0.7-1.2h-4
					C77.1,35.8,77.2,36.2,77.6,36.7z"/>
				<rect x="75.7" y="34" class="st6" width="6.3" height="0.7"/>
				<path class="st6" d="M82.1,34.7L82.1,34.7l-6.3,0v0c0.8,0,1,0.3,1.2,0.7h4C81.1,35.1,81.4,34.8,82.1,34.7z"/>
				<path id="path497_9_" class="st5" d="M97.3,35.1H60.6c-0.3,0-0.6-0.2-0.6-0.6V21.3c0-0.3,0.2-0.6,0.6-0.6h36.7
					c0.3,0,0.6,0.2,0.6,0.6v13.2C97.8,34.8,97.6,35.1,97.3,35.1L97.3,35.1z"/>
				<g id="g499_10_">
					<g>
						<path id="rect501_10_" class="st4" d="M76.9,26.8H81c0.1,0,0.1,0,0.1,0.1v1.6c0,0.1,0,0.1-0.1,0.1h-4.1c-0.1,0-0.1,0-0.1-0.1
							L76.9,26.8C76.8,26.8,76.8,26.8,76.9,26.8z"/>
						<path id="rect503_10_" class="st4" d="M68.6,26.8h3.4c0.1,0,0.1,0,0.1,0.1v1.6c0,0.1,0,0.1-0.1,0.1h-3.4c-0.1,0-0.1,0-0.1-0.1
							L68.6,26.8C68.5,26.8,68.6,26.8,68.6,26.8z"/>
						<path id="rect505_10_" class="st4" d="M61.5,26.8h2.7c0.1,0,0.1,0,0.1,0.1v1.6c0,0.1,0,0.1-0.1,0.1h-2.7c-0.1,0-0.1,0-0.1-0.1
							L61.5,26.8C61.4,26.8,61.4,26.8,61.5,26.8z"/>
						<path id="rect507_10_" class="st4" d="M85.9,26.8h3.4c0.1,0,0.1,0,0.1,0.1v1.6c0,0.1,0,0.1-0.1,0.1h-3.4c-0.1,0-0.1,0-0.1-0.1
							L85.9,26.8C85.8,26.8,85.9,26.8,85.9,26.8z"/>
						<path id="rect509_10_" class="st4" d="M93.8,26.8h2.7c0.1,0,0.1,0,0.1,0.1v1.6c0,0.1,0,0.1-0.1,0.1h-2.7c-0.1,0-0.1,0-0.1-0.1
							L93.8,26.8C93.7,26.8,93.7,26.8,93.8,26.8z"/>
					</g>
				</g>
			</g>
		</g>
	</g>
</g>
</svg>
