<?xml version="1.0" encoding="utf-8"?>
<!-- Generator: Adobe Illustrator 22.1.0, SVG Export Plug-In . SVG Version: 6.00 Build 0)  -->
<svg version="1.1" id="Calque_1" xmlns="http://www.w3.org/2000/svg" xmlns:xlink="http://www.w3.org/1999/xlink" x="0px" y="0px"
	 viewBox="0 0 400 400" style="enable-background:new 0 0 400 400;" xml:space="preserve">
<style type="text/css">
	.st0{fill:#3098D4;}
	.st1{fill:#6D6D6C;}
	.st2{fill:#DFDFDF;}
	.st3{fill:#CAC9C9;}
	.st4{fill:#0E0E0E;}
	.st5{fill:#E9E9E9;}
	.st6{fill:#CDCDCC;}
</style>
<circle class="st0" cx="303.8" cy="96.3" r="95.7"/>
<g>
	<rect x="286.7" y="160.4" class="st1" width="26.7" height="14"/>
	<path class="st2" d="M316.6,24.8H283c-6.6,0-12,5.4-12,12v112.6c0,6.6,5.4,12,12,12h33.5c6.6,0,12-5.4,12-12V36.8
		C328.6,30.2,323.2,24.8,316.6,24.8z"/>
	<g>
		<circle class="st3" cx="288.5" cy="77.7" r="7.6"/>
		<circle class="st3" cx="311.1" cy="77.7" r="7.6"/>
		<circle class="st3" cx="288.5" cy="101" r="7.6"/>
		<circle class="st3" cx="311.1" cy="101" r="7.6"/>
	</g>
</g>
<g>
	<g>
		<path id="path491_34_" class="st4" d="M32.3,148.6H10.7c-2.3,0-4.1-1.7-4.1-4.1v-23.3c0-2.3,1.7-4.1,4.1-4.1h21.5
			c2.3,0,4.1,1.7,4.1,4.1v23.3C36.3,146.9,34,148.6,32.3,148.6z"/>
		<path id="path493_34_" class="st4" d="M211.3,148.6h-21.5c-2.3,0-4.1-1.7-4.1-4.1v-23.3c0-2.3,1.7-4.1,4.1-4.1h21.5
			c2.3,0,4.1,1.7,4.1,4.1v23.3C215.4,146.9,213.6,148.6,211.3,148.6z"/>
		<path class="st5" d="M130.5,132.9h-1.2l0,0C129.3,132.9,129.9,132.9,130.5,132.9z"/>
		<path class="st5" d="M91.5,132.9h0.6l0,0H91.5z"/>
		<path class="st5" d="M103.2,144c2.9,3.5,7.6,2.9,7.6,2.9s5.2,0.6,8.1-2.9c2.3-2.3,2.9-4.7,4.1-7H99.7
			C100.3,139.3,100.8,141.7,103.2,144z"/>
		<rect x="92.1" y="128.9" class="st6" width="36.6" height="4.1"/>
		<path class="st6" d="M129.3,132.9L129.3,132.9H92.7l0,0c4.7,0,5.8,1.7,7,4.1h23.3C123.5,135.3,125.3,133.5,129.3,132.9z"/>
		<path id="path497_34_" class="st5" d="M217.7,134.7H4.3c-1.7,0-3.5-1.2-3.5-3.5V55c0-1.7,1.2-3.5,3.5-3.5h213.3
			c1.7,0,3.5,1.2,3.5,3.5v76.7C220.6,133.5,219.4,134.7,217.7,134.7L217.7,134.7z"/>
	</g>
</g>
<path class="st4" d="M24.5,99h-14C9.7,99,9,98.3,9,97.5v-8c0-0.8,0.7-1.5,1.5-1.5h14c0.8,0,1.5,0.7,1.5,1.5v8
	C26,98.3,25.3,99,24.5,99z"/>
<path class="st4" d="M69.5,99h-18c-0.8,0-1.5-0.7-1.5-1.5v-8c0-0.8,0.7-1.5,1.5-1.5h18c0.8,0,1.5,0.7,1.5,1.5v8
	C71,98.3,70.3,99,69.5,99z"/>
<path class="st4" d="M170.5,99h-18c-0.8,0-1.5-0.7-1.5-1.5v-8c0-0.8,0.7-1.5,1.5-1.5h18c0.8,0,1.5,0.7,1.5,1.5v8
	C172,98.3,171.3,99,170.5,99z"/>
<path class="st4" d="M122.5,99h-22c-0.8,0-1.5-0.7-1.5-1.5v-8c0-0.8,0.7-1.5,1.5-1.5h22c0.8,0,1.5,0.7,1.5,1.5v8
	C124,98.3,123.3,99,122.5,99z"/>
<path class="st4" d="M212.5,99h-15c-0.8,0-1.5-0.7-1.5-1.5v-8c0-0.8,0.7-1.5,1.5-1.5h15c0.8,0,1.5,0.7,1.5,1.5v8
	C214,98.3,213.3,99,212.5,99z"/>
<circle class="st0" cx="303.8" cy="304.3" r="95.7"/>
<g>
	<rect x="286.7" y="368.4" class="st1" width="26.7" height="14"/>
	<path class="st2" d="M316.6,232.8H283c-6.6,0-12,5.4-12,12v112.6c0,6.6,5.4,12,12,12h33.5c6.6,0,12-5.4,12-12V244.8
		C328.6,238.2,323.2,232.8,316.6,232.8z"/>
	<g>
		<circle class="st3" cx="288.5" cy="285.7" r="7.6"/>
		<circle class="st3" cx="311.1" cy="285.7" r="7.6"/>
		<circle class="st3" cx="288.5" cy="309" r="7.6"/>
		<circle class="st3" cx="311.1" cy="309" r="7.6"/>
	</g>
</g>
<g>
	<g>
		<path id="path491_1_" class="st4" d="M32.3,356.6H10.7c-2.3,0-4.1-1.7-4.1-4.1v-23.3c0-2.3,1.7-4.1,4.1-4.1h21.5
			c2.3,0,4.1,1.7,4.1,4.1v23.3C36.3,354.9,34,356.6,32.3,356.6z"/>
		<path id="path493_1_" class="st4" d="M211.3,356.6h-21.5c-2.3,0-4.1-1.7-4.1-4.1v-23.3c0-2.3,1.7-4.1,4.1-4.1h21.5
			c2.3,0,4.1,1.7,4.1,4.1v23.3C215.4,354.9,213.6,356.6,211.3,356.6z"/>
		<path class="st5" d="M130.5,340.9h-1.2l0,0C129.3,340.9,129.9,340.9,130.5,340.9z"/>
		<path class="st5" d="M91.5,340.9h0.6l0,0H91.5z"/>
		<path class="st5" d="M103.2,352c2.9,3.5,7.6,2.9,7.6,2.9s5.2,0.6,8.1-2.9c2.3-2.3,2.9-4.7,4.1-7H99.7
			C100.3,347.3,100.8,349.7,103.2,352z"/>
		<rect x="92.1" y="336.9" class="st6" width="36.6" height="4.1"/>
		<path class="st6" d="M129.3,340.9L129.3,340.9H92.7l0,0c4.7,0,5.8,1.7,7,4.1h23.3C123.5,343.3,125.3,341.5,129.3,340.9z"/>
		<path id="path497_1_" class="st5" d="M217.7,342.7H4.3c-1.7,0-3.5-1.2-3.5-3.5V263c0-1.7,1.2-3.5,3.5-3.5h213.3
			c1.7,0,3.5,1.2,3.5,3.5v76.7C220.6,341.5,219.4,342.7,217.7,342.7L217.7,342.7z"/>
	</g>
</g>
<path class="st4" d="M24.5,307h-14c-0.8,0-1.5-0.7-1.5-1.5v-8c0-0.8,0.7-1.5,1.5-1.5h14c0.8,0,1.5,0.7,1.5,1.5v8
	C26,306.3,25.3,307,24.5,307z"/>
<path class="st4" d="M69.5,307h-18c-0.8,0-1.5-0.7-1.5-1.5v-8c0-0.8,0.7-1.5,1.5-1.5h18c0.8,0,1.5,0.7,1.5,1.5v8
	C71,306.3,70.3,307,69.5,307z"/>
<path class="st4" d="M170.5,307h-18c-0.8,0-1.5-0.7-1.5-1.5v-8c0-0.8,0.7-1.5,1.5-1.5h18c0.8,0,1.5,0.7,1.5,1.5v8
	C172,306.3,171.3,307,170.5,307z"/>
<path class="st4" d="M122.5,307h-22c-0.8,0-1.5-0.7-1.5-1.5v-8c0-0.8,0.7-1.5,1.5-1.5h22c0.8,0,1.5,0.7,1.5,1.5v8
	C124,306.3,123.3,307,122.5,307z"/>
<path class="st4" d="M212.5,307h-15c-0.8,0-1.5-0.7-1.5-1.5v-8c0-0.8,0.7-1.5,1.5-1.5h15c0.8,0,1.5,0.7,1.5,1.5v8
	C214,306.3,213.3,307,212.5,307z"/>
</svg>
