<?xml version="1.0" encoding="utf-8"?>
<!-- Generator: Adobe Illustrator 23.0.3, SVG Export Plug-In . SVG Version: 6.00 Build 0)  -->
<svg version="1.1" id="Calque_1" xmlns="http://www.w3.org/2000/svg" xmlns:xlink="http://www.w3.org/1999/xlink" x="0px" y="0px"
	 viewBox="0 0 67 82" style="enable-background:new 0 0 67 82;" xml:space="preserve">
<style type="text/css">
	.st0{fill:#3098D4;}
	.st1{fill:#6D6D6C;}
	.st2{fill:#DFDFDF;}
	.st3{fill:#CAC9C9;}
	.st4{fill:#0E0E0E;}
	.st5{fill:#E9E9E9;}
	.st6{fill:#CDCDCC;}
</style>
<g>
	<g>
		<circle class="st0" cx="47.9" cy="18.5" r="17.1"/>
		<g>
			<rect x="45.7" y="29.1" class="st1" width="4.6" height="2.4"/>
			<path class="st2" d="M48.7,5.6h-1.5c-2.3,0-4.2,1.9-4.2,4.2v15.1c0,2.3,1.9,4.2,4.2,4.2h1.5c2.3,0,4.2-1.9,4.2-4.2V9.8
				C52.9,7.5,51,5.6,48.7,5.6z"/>
			<g>
				<circle class="st3" cx="46" cy="14.7" r="1.3"/>
				<circle class="st3" cx="49.9" cy="14.7" r="1.3"/>
				<circle class="st3" cx="46" cy="18.7" r="1.3"/>
				<circle class="st3" cx="49.9" cy="18.7" r="1.3"/>
			</g>
		</g>
		<g>
			<g>
				<path id="path491_34_" class="st4" d="M7,26.9H3.3c-0.4,0-0.7-0.3-0.7-0.7v-4c0-0.4,0.3-0.7,0.7-0.7H7c0.4,0,0.7,0.3,0.7,0.7v4
					C7.7,26.6,7.3,26.9,7,26.9z"/>
				<path id="path493_34_" class="st4" d="M37.8,26.9h-3.7c-0.4,0-0.7-0.3-0.7-0.7v-4c0-0.4,0.3-0.7,0.7-0.7h3.7
					c0.4,0,0.7,0.3,0.7,0.7v4C38.5,26.6,38.2,26.9,37.8,26.9z"/>
				<path class="st5" d="M23.9,24.2h-0.2v0C23.7,24.2,23.8,24.2,23.9,24.2z"/>
				<path class="st5" d="M17.2,24.2c0,0,0.1,0,0.1,0v0H17.2z"/>
				<path class="st5" d="M19.2,26.1c0.5,0.6,1.3,0.5,1.3,0.5s0.9,0.1,1.4-0.5c0.4-0.4,0.5-0.8,0.7-1.2h-4
					C18.7,25.3,18.8,25.7,19.2,26.1z"/>
				<rect x="17.3" y="23.5" class="st6" width="6.3" height="0.7"/>
				<path class="st6" d="M23.7,24.2L23.7,24.2l-6.3,0v0c0.8,0,1,0.3,1.2,0.7h4C22.7,24.6,23,24.3,23.7,24.2z"/>
				<path id="path497_34_" class="st5" d="M38.9,24.5H2.2c-0.3,0-0.6-0.2-0.6-0.6V10.8c0-0.3,0.2-0.6,0.6-0.6h36.7
					c0.3,0,0.6,0.2,0.6,0.6V24C39.4,24.3,39.2,24.5,38.9,24.5L38.9,24.5z"/>
				<g id="g499_34_">
					<g>
						<path id="rect501_10_" class="st4" d="M18.5,16.3h4.1c0.1,0,0.1,0,0.1,0.1v1.6c0,0.1,0,0.1-0.1,0.1h-4.1c-0.1,0-0.1,0-0.1-0.1
							L18.5,16.3C18.4,16.3,18.4,16.3,18.5,16.3z"/>
						<path id="rect503_10_" class="st4" d="M10.2,16.3h3.4c0.1,0,0.1,0,0.1,0.1v1.6c0,0.1,0,0.1-0.1,0.1h-3.4c-0.1,0-0.1,0-0.1-0.1
							L10.2,16.3C10.1,16.3,10.1,16.3,10.2,16.3z"/>
						<path id="rect505_10_" class="st4" d="M3.1,16.3h2.7c0.1,0,0.1,0,0.1,0.1v1.6c0,0.1,0,0.1-0.1,0.1H3.1C3,18,3,18,3,17.9
							L3.1,16.3C3,16.3,3,16.3,3.1,16.3z"/>
						<path id="rect507_10_" class="st4" d="M27.5,16.3H31c0.1,0,0.1,0,0.1,0.1v1.6C31,18,31,18,31,18h-3.4c-0.1,0-0.1,0-0.1-0.1
							L27.5,16.3C27.4,16.3,27.5,16.3,27.5,16.3z"/>
						<path id="rect509_10_" class="st4" d="M35.4,16.3h2.7c0.1,0,0.1,0,0.1,0.1v1.6c0,0.1,0,0.1-0.1,0.1h-2.7c-0.1,0-0.1,0-0.1-0.1
							L35.4,16.3C35.3,16.3,35.3,16.3,35.4,16.3z"/>
					</g>
				</g>
			</g>
		</g>
	</g>
	<g>
		<circle class="st0" cx="47.9" cy="63.9" r="17.1"/>
		<g>
			<rect x="45.7" y="74.5" class="st1" width="4.6" height="2.4"/>
			<path class="st2" d="M48.7,51h-1.5c-2.3,0-4.2,1.9-4.2,4.2v15.1c0,2.3,1.9,4.2,4.2,4.2h1.5c2.3,0,4.2-1.9,4.2-4.2V55.2
				C52.9,52.9,51,51,48.7,51z"/>
			<g>
				<circle class="st3" cx="46" cy="60.1" r="1.3"/>
				<circle class="st3" cx="49.9" cy="60.1" r="1.3"/>
				<circle class="st3" cx="46" cy="64" r="1.3"/>
				<circle class="st3" cx="49.9" cy="64" r="1.3"/>
			</g>
		</g>
		<g>
			<g>
				<path id="path491_2_" class="st4" d="M7,72.3H3.3c-0.4,0-0.7-0.3-0.7-0.7v-4c0-0.4,0.3-0.7,0.7-0.7H7c0.4,0,0.7,0.3,0.7,0.7v4
					C7.7,72,7.3,72.3,7,72.3z"/>
				<path id="path493_2_" class="st4" d="M37.8,72.3h-3.7c-0.4,0-0.7-0.3-0.7-0.7v-4c0-0.4,0.3-0.7,0.7-0.7h3.7
					c0.4,0,0.7,0.3,0.7,0.7v4C38.5,72,38.2,72.3,37.8,72.3z"/>
				<path class="st5" d="M23.9,69.6h-0.2v0C23.7,69.6,23.8,69.6,23.9,69.6z"/>
				<path class="st5" d="M17.2,69.6c0,0,0.1,0,0.1,0v0H17.2z"/>
				<path class="st5" d="M19.2,71.5c0.5,0.6,1.3,0.5,1.3,0.5s0.9,0.1,1.4-0.5c0.4-0.4,0.5-0.8,0.7-1.2h-4
					C18.7,70.7,18.8,71.1,19.2,71.5z"/>
				<rect x="17.3" y="68.9" class="st6" width="6.3" height="0.7"/>
				<path class="st6" d="M23.7,69.6L23.7,69.6l-6.3,0v0c0.8,0,1,0.3,1.2,0.7h4C22.7,69.9,23,69.7,23.7,69.6z"/>
				<path id="path497_2_" class="st5" d="M38.9,69.9H2.2c-0.3,0-0.6-0.2-0.6-0.6V56.2c0-0.3,0.2-0.6,0.6-0.6h36.7
					c0.3,0,0.6,0.2,0.6,0.6v13.2C39.4,69.7,39.2,69.9,38.9,69.9L38.9,69.9z"/>
				<g id="g499_2_">
					<g>
						<path id="rect501_9_" class="st4" d="M18.5,61.7h4.1c0.1,0,0.1,0,0.1,0.1v1.6c0,0.1,0,0.1-0.1,0.1h-4.1c-0.1,0-0.1,0-0.1-0.1
							L18.5,61.7C18.4,61.7,18.4,61.7,18.5,61.7z"/>
						<path id="rect503_9_" class="st4" d="M10.2,61.7h3.4c0.1,0,0.1,0,0.1,0.1v1.6c0,0.1,0,0.1-0.1,0.1h-3.4c-0.1,0-0.1,0-0.1-0.1
							L10.2,61.7C10.1,61.7,10.1,61.7,10.2,61.7z"/>
						<path id="rect505_9_" class="st4" d="M3.1,61.7h2.7c0.1,0,0.1,0,0.1,0.1v1.6c0,0.1,0,0.1-0.1,0.1H3.1c-0.1,0-0.1,0-0.1-0.1
							L3.1,61.7C3,61.7,3,61.7,3.1,61.7z"/>
						<path id="rect507_9_" class="st4" d="M27.5,61.7H31c0.1,0,0.1,0,0.1,0.1v1.6c0,0.1,0,0.1-0.1,0.1h-3.4c-0.1,0-0.1,0-0.1-0.1
							L27.5,61.7C27.4,61.7,27.5,61.7,27.5,61.7z"/>
						<path id="rect509_9_" class="st4" d="M35.4,61.7h2.7c0.1,0,0.1,0,0.1,0.1v1.6c0,0.1,0,0.1-0.1,0.1h-2.7c-0.1,0-0.1,0-0.1-0.1
							L35.4,61.7C35.3,61.7,35.3,61.7,35.4,61.7z"/>
					</g>
				</g>
			</g>
		</g>
	</g>
</g>
</svg>
