<?xml version="1.0" encoding="utf-8"?>
<!-- Generator: Adobe Illustrator 21.0.2, SVG Export Plug-In . SVG Version: 6.00 Build 0)  -->
<svg version="1.1" id="Calque_1" xmlns="http://www.w3.org/2000/svg" xmlns:xlink="http://www.w3.org/1999/xlink" x="0px" y="0px"
	 viewBox="0 0 94.9 94.9" style="enable-background:new 0 0 94.9 94.9;" xml:space="preserve">
<style type="text/css">
	.st0{fill:#717171;}
	.st1{fill:#FFFFFF;}
</style>
<g>
	<circle class="st0" cx="48.6" cy="47.6" r="42.6"/>
	<g>
		<path class="st1" d="M16.2,56.7l0.2,0h0l0,0h0L16.2,56.7c0-1.4,0.2-5.8,0.2-7.2c0-0.8,0-1.7,0-2.5l0-0.5c0-0.7,0-1.3,0-2
			c0-0.2,0-0.4,0-0.5c0-1.4-0.1-2.8,1.9-3.7c0.3-0.1,0.9-0.4,1.6-0.7l0.4-0.2c4.1-1.8,12.6-5.5,15.9-6.7c4-1.5,5.7-2,10.1-1.6
			c1.1,0.1,2.5,0.2,4.1,0.4l0.3,0c4.2,0.4,10,0.9,15.3,1.5c12.1,1.5,14.8,3.6,14.8,11.6v6.8c0,9.7-24.9,12.8-27.7,12.8
			c-1.1,0-4.7-0.3-7.4-0.5l-0.3,0l0.1-0.2c0-0.2,0.1-0.3,0.1-0.5l0-0.2l0.2,0c3.9,0.3,6.4,0.5,7.3,0.5c2.3,0,26.7-3,26.7-11.9v-6.8
			c0-7-1.7-9.1-13.9-10.6c-5.3-0.7-11.1-1.2-15.3-1.5c-1.7-0.1-3.2-0.3-4.4-0.4c-4.2-0.4-5.8,0-9.6,1.5c-3.3,1.3-11.8,5-16,6.8
			c-0.9,0.4-1.6,0.7-2,0.9c-1.4,0.6-1.4,1.4-1.3,2.8c0,0.2,0,0.4,0,0.6c0,0.8,0,1.7,0,2.5c0,0.8,0,1.7,0,2.5c0,1.6-0.2,7.2-0.2,7.3
			c0,0.1-0.2,2.3,1.5,3.2l0.1,0.1l0,0.1c0,0.2,0,0.4,0,0.6l0,0.3L18.6,61C16,59.9,16.2,56.8,16.2,56.7z"/>
		<path class="st1" d="M22.6,61c0.7,3.1,2.4,5.9,4.7,7.7c1.8,1.4,3.8,2.1,5.9,2.1c0.6,0,1.3-0.1,1.9-0.2c5.4-1.2,8.6-7.5,7.2-14
			c-0.7-3.1-2.4-5.9-4.8-7.7c-2.4-1.8-5.1-2.5-7.8-1.9C24.3,48.3,21.1,54.5,22.6,61z M30,48c0.5-0.1,1.1-0.2,1.7-0.2
			c4.4,0,8.5,3.8,9.7,9c1.4,6-1.5,11.7-6.4,12.9c-2.4,0.5-4.8-0.1-7-1.7c-2.2-1.7-3.7-4.2-4.4-7.1C22.2,54.9,25.1,49.1,30,48z"/>
		<path class="st1" d="M73.9,47.3c-0.2,0.1-0.3,0.3-0.3,0.5l0.1,1.7c0,0.2,0.1,0.3,0.2,0.4C74,50,74,50,74.1,50c0.1,0,0.1,0,0.2,0
			l2.4-1c0.2-0.1,0.3-0.3,0.3-0.5L76.9,47c0-0.1-0.1-0.3-0.2-0.4c-0.1-0.1-0.3-0.1-0.4-0.1L73.9,47.3z M76,47.7l0,0.6l-1.4,0.6
			l0-0.7L76,47.7z"/>
		<path class="st1" d="M66.1,49.8c-0.2,0.1-0.4,0.3-0.4,0.5l0.1,1.9c0,0.1,0.1,0.3,0.2,0.4c0.1,0.1,0.2,0.1,0.3,0.1c0,0,0.1,0,0.1,0
			l2.9-0.9c0.2-0.1,0.4-0.3,0.3-0.5l-0.1-1.9c0-0.2-0.1-0.3-0.2-0.4C69.3,49,69.1,48.9,69,49L66.1,49.8z M68.6,50.1l0,0.9l-1.9,0.6
			l0-0.9L68.6,50.1z"/>
		<path class="st1" d="M57.4,51.5c-0.2,0-0.4,0.3-0.4,0.5l0.1,2.1c0,0.1,0.1,0.3,0.2,0.4c0.1,0.1,0.2,0.1,0.3,0.1c0,0,0.1,0,0.1,0
			l3.1-0.7c0.2,0,0.4-0.3,0.4-0.5l-0.1-1.9c0-0.1-0.1-0.3-0.2-0.4c-0.1-0.1-0.2-0.1-0.4-0.1L57.4,51.5z M60.1,52l0,1L58,53.4l0-1.1
			L60.1,52z M60.9,51.4L60.9,51.4L60.9,51.4L60.9,51.4z"/>
	</g>
</g>
</svg>
