<?xml version="1.0" encoding="UTF-8" standalone="no"?>
<svg
   xmlns:dc="http://purl.org/dc/elements/1.1/"
   xmlns:cc="http://creativecommons.org/ns#"
   xmlns:rdf="http://www.w3.org/1999/02/22-rdf-syntax-ns#"
   xmlns:svg="http://www.w3.org/2000/svg"
   xmlns="http://www.w3.org/2000/svg"
   xmlns:sodipodi="http://sodipodi.sourceforge.net/DTD/sodipodi-0.dtd"
   xmlns:inkscape="http://www.inkscape.org/namespaces/inkscape"
   version="1.1"
   x="0px"
   y="0px"
   viewBox="0 0 48 48.099998"
   enable-background="new 0 0 50 50"
   xml:space="preserve"
   id="svg24"
   sodipodi:docname="noun_remote access_1876175.svg"
   inkscape:version="1.0.1 (3bc2e813f5, 2020-09-07)"
   width="48"
   height="48.099998"><metadata
     id="metadata30"><rdf:RDF><cc:Work
         rdf:about=""><dc:format>image/svg+xml</dc:format><dc:type
           rdf:resource="http://purl.org/dc/dcmitype/StillImage" /><dc:title></dc:title></cc:Work></rdf:RDF></metadata><defs
     id="defs28" /><sodipodi:namedview
     pagecolor="#ffffff"
     bordercolor="#666666"
     borderopacity="1"
     objecttolerance="10"
     gridtolerance="10"
     guidetolerance="10"
     inkscape:pageopacity="0"
     inkscape:pageshadow="2"
     inkscape:window-width="1920"
     inkscape:window-height="1017"
     id="namedview26"
     showgrid="false"
     inkscape:zoom="13.6"
     inkscape:cx="13.485294"
     inkscape:cy="27.308824"
     inkscape:window-x="-8"
     inkscape:window-y="73"
     inkscape:window-maximized="1"
     inkscape:current-layer="svg24"
     inkscape:snap-page="false"
     fit-margin-top="0"
     fit-margin-left="0"
     fit-margin-right="0"
     fit-margin-bottom="0" /><g
     id="g18"
     style="fill:#ffffff"
     transform="translate(-1,-1)"><path
       d="m 32.8,10.9 h 5.9 v 5.5 h -2 c -0.5,0 -0.8,0.6 -0.5,1 l 3.4,3.8 c 0.2,0.3 0.7,0.3 0.9,0 l 3.4,-3.8 c 0.4,-0.4 0.1,-1 -0.5,-1 h -1.9 v -5.7 c 0,-1.5 -1.2,-2.8 -2.8,-2.8 h -6.1 c -0.8,0 -1.5,0.7 -1.5,1.5 0.2,0.9 0.9,1.5 1.7,1.5 z"
       id="path2"
       style="fill:#ffffff" /><path
       d="m 16.2,38.2 h -5.9 v -5.5 h 2 c 0.5,0 0.8,-0.6 0.5,-1 L 9.4,27.9 c -0.2,-0.3 -0.7,-0.3 -0.9,0 l -3.4,3.8 c -0.4,0.4 -0.1,1 0.5,1 h 1.9 v 5.7 c 0,1.5 1.2,2.8 2.8,2.8 h 6.1 c 0.8,0 1.5,-0.7 1.5,-1.5 -0.2,-0.8 -0.9,-1.5 -1.7,-1.5 z"
       id="path4"
       style="fill:#ffffff" /><path
       d="M 28.5,3.2 C 28.5,2 27.5,1 26.3,1 H 3.2 C 2,1 1,2 1,3.2 v 12 h 27.5 z"
       id="path6"
       style="fill:#ffffff" /><path
       d="M 28.5,18.1 V 16.3 H 1 v 1.8 c 0,1.2 1,2.2 2.2,2.2 h 23.1 c 1.2,0 2.2,-1 2.2,-2.2 z"
       id="path8"
       style="fill:#ffffff" /><path
       d="m 21.9,23.5 c 0,-0.6 -0.5,-1.1 -1.1,-1.1 h -1.7 v -1.1 h -8.7 v 1.1 H 8.7 c -0.6,0 -1.1,0.5 -1.1,1.1 0,0.6 0.5,1.1 1.1,1.1 h 12.1 c 0.6,-0.1 1.1,-0.5 1.1,-1.1 z"
       id="path10"
       style="fill:#ffffff" /><path
       d="M 46.8,25.5 H 23.7 c -1.2,0 -2.2,1 -2.2,2.2 v 12 H 49 v -12 c 0,-1.2 -1,-2.2 -2.2,-2.2 z"
       id="path12"
       style="fill:#ffffff" /><path
       d="m 21.5,42.5 c 0,1.2 1,2.2 2.2,2.2 h 23.1 c 1.2,0 2.2,-1 2.2,-2.2 V 40.7 H 21.5 Z"
       id="path14"
       style="fill:#ffffff" /><path
       d="m 41.3,46.9 h -1.7 v -1.1 h -8.7 v 1.1 h -1.7 c -0.6,0 -1.1,0.5 -1.1,1.1 0,0.6 0.5,1.1 1.1,1.1 h 12.1 c 0.6,0 1.1,-0.5 1.1,-1.1 0,-0.7 -0.5,-1.1 -1.1,-1.1 z"
       id="path16"
       style="fill:#ffffff" /></g></svg>
