<?xml version="1.0" encoding="utf-8"?>
<!-- Generator: Adobe Illustrator 22.1.0, SVG Export Plug-In . SVG Version: 6.00 Build 0)  -->
<svg version="1.1" id="Calque_1" xmlns="http://www.w3.org/2000/svg" xmlns:xlink="http://www.w3.org/1999/xlink" x="0px" y="0px"
	 viewBox="0 0 202.3 90.6" style="enable-background:new 0 0 202.3 90.6;" xml:space="preserve">
<style type="text/css">
	.st0{fill:#FFFFFF;}
	.st1{fill:#0F0F0F;}
	.st2{fill:#EAEAEA;}
	.st3{fill:#CECECE;}
	.st4{fill:url(#SVGID_1_);}
</style>
<path class="st0" d="M29.9,85.9c0,0.5-0.4,0.8-0.8,0.8H9.7c-0.4,0-0.8-0.4-0.8-0.8v-8.7H6.1v8.7c0,2,1.7,3.7,3.7,3.7h19.4
	c2,0,3.7-1.6,3.7-3.7v-8.7H30v8.7H29.9z"/>
<path class="st0" d="M193.4,85.9c0,0.5-0.4,0.8-0.8,0.8h-19.4c-0.4,0-0.8-0.4-0.8-0.8v-8.7h-2.9v8.7c0,2,1.7,3.7,3.7,3.7h19.4
	c2,0,3.7-1.6,3.7-3.7v-8.7h-2.9V85.9z"/>
<path class="st0" d="M90.3,78.2c0.9,1.8,1.5,4.1,3.6,6.3c2.1,2.3,5.2,2.5,6.5,2.5c0.4,0,0.6,0,0.6,0s0.1,0,0.4,0
	c1.2,0,4.6-0.2,6.7-2.5c2.1-2.2,2.7-4.5,3.6-6.3c0.2-0.4,0.4-0.7,0.6-1H89.8C90,77.5,90.2,77.8,90.3,78.2z M108.9,77.2
	c-0.2,0.4-0.3,0.8-0.5,1.2c-0.6,1.5-1.2,2.8-2.4,4.2c-1.4,1.5-4.1,1.6-4.6,1.6h-0.2H101h-0.2c0,0-0.2,0-0.3,0c-0.9,0-3-0.2-4.4-1.7
	c-1.3-1.4-1.9-2.7-2.5-4.2c-0.2-0.4-0.3-0.8-0.5-1.1H108.9z"/>
<rect x="172.4" y="74.3" class="st0" width="20.9" height="2.9"/>
<path class="st0" d="M198.1,1.3H4c-1.7,0-3,1.4-3,3v70c0,1.7,1.4,2.9,2.9,2.9H6v-2.9H3.8L4,4.2h194.1l0.1,0.1v69.8
	c0,0.1-0.1,0.2-0.2,0.2h-1.7v2.9h1.7c1.7,0,2.9-1.4,3.1-2.9v-70C201,2.6,199.6,1.3,198.1,1.3z"/>
<rect x="9" y="74.2" class="st0" width="20.9" height="2.9"/>
<path class="st0" d="M32.8,74.2v2.9h57c-1-1.6-2.4-2.6-5.8-2.8l0,0h33.6v0.1c-3,0.3-4.4,1.3-5.3,2.8h57.3v-2.9L32.8,74.2z
	 M83.9,75.4L83.9,75.4c-0.2,0-0.3,0-0.5,0H83.9z M117.5,75.4h1.1C118.2,75.4,117.9,75.4,117.5,75.4L117.5,75.4z"/>
<rect x="29.9" y="74.2" class="st0" width="2.9" height="2.9"/>
<rect x="6.1" y="74.2" class="st0" width="2.9" height="2.9"/>
<rect x="169.6" y="74.3" class="st0" width="2.9" height="2.9"/>
<rect x="193.4" y="74.3" class="st0" width="2.9" height="2.9"/>
<path class="st0" d="M117.5,74.4L117.5,74.4l-33.6-0.1l0,0c3.4,0.2,4.9,1.3,5.8,2.8h22.4C113.1,75.7,114.5,74.6,117.5,74.4z"/>
<g id="g499_11_">
	<path id="rect501_11_" class="st0" d="M90,33.4h21.9c0.3,0,0.5,0.2,0.5,0.5v8.2c0,0.3-0.2,0.5-0.5,0.5H90c-0.3,0-0.5-0.2-0.5-0.5
		v-8.2C89.5,33.6,89.7,33.4,90,33.4z"/>
	<path id="rect503_11_" class="st0" d="M46.2,33.4h18.2c0.3,0,0.5,0.2,0.5,0.5v8.2c0,0.3-0.2,0.5-0.5,0.5H46.2
		c-0.3,0-0.5-0.2-0.5-0.5v-8.2C45.7,33.6,46,33.4,46.2,33.4z"/>
	<path id="rect505_11_" class="st0" d="M8.4,33.4h14.3c0.3,0,0.5,0.2,0.5,0.5v8.2c0,0.3-0.2,0.5-0.5,0.5H8.4c-0.3,0-0.5-0.2-0.5-0.5
		v-8.2C7.9,33.6,8.1,33.4,8.4,33.4z"/>
	<path id="rect507_11_" class="st0" d="M137.9,33.4h18.2c0.3,0,0.5,0.2,0.5,0.5v8.2c0,0.3-0.2,0.5-0.5,0.5h-18.2
		c-0.3,0-0.5-0.2-0.5-0.5v-8.2C137.4,33.6,137.6,33.4,137.9,33.4z"/>
	<path id="rect509_11_" class="st0" d="M179.6,33.4H194c0.3,0,0.5,0.2,0.5,0.5v8.2c0,0.3-0.2,0.5-0.5,0.5h-14.3
		c-0.3,0-0.5-0.2-0.5-0.5v-8.2C179.1,33.6,179.4,33.4,179.6,33.4z"/>
</g>
<g>
	<path id="path493_9_" class="st1" d="M192.7,89.6h-19.4c-2,0-3.7-1.7-3.7-3.7V64.9c0-2,1.7-3.7,3.7-3.7h19.4c2,0,3.7,1.7,3.7,3.7
		v21.1C196.4,88,194.7,89.6,192.7,89.6z"/>
	<path id="path491_9_" class="st1" d="M29.1,89.6H9.7c-2,0-3.7-1.7-3.7-3.7V64.9c0-2,1.7-3.7,3.7-3.7h19.4c2,0,3.7,1.7,3.7,3.7v21.1
		C32.8,88,31.1,89.6,29.1,89.6z"/>
	<path class="st2" d="M93.9,85.6c2.7,2.9,7.1,2.5,7.1,2.5s4.5,0.3,7.2-2.5c2.1-2.2,2.7-4.5,3.6-6.3H90.4
		C91.2,81.1,91.8,83.4,93.9,85.6z"/>
	<rect x="84" y="71.7" class="st3" width="33.6" height="3.7"/>
	<path class="st3" d="M117.6,75.5L117.6,75.5L84,75.4v0c4.1,0.2,5.4,1.8,6.4,3.8h21.4C112.6,77.3,113.9,75.8,117.6,75.5z"/>
	<path class="st2" d="M118.7,75.4h-1.1v0.1C117.9,75.4,118.3,75.4,118.7,75.4z"/>
	<path class="st2" d="M83.4,75.4c0.2,0,0.4,0,0.5,0v0H83.4z"/>
	<path class="st2" d="M1,74.2c0,1.7,1.4,2.9,2.9,2.9H198c1.7,0,2.9-1.4,3.1-2.9V38H1V74.2z"/>
	<linearGradient id="SVGID_1_" gradientUnits="userSpaceOnUse" x1="1" y1="19.6679" x2="201.1" y2="19.6679">
		<stop  offset="0" style="stop-color:#EAEAEA"/>
		<stop  offset="0.1004" style="stop-color:#C2EDCD"/>
		<stop  offset="0.2388" style="stop-color:#92F0A9"/>
		<stop  offset="0.3607" style="stop-color:#6EF28F"/>
		<stop  offset="0.4602" style="stop-color:#59F37F"/>
		<stop  offset="0.5248" style="stop-color:#51F479"/>
		<stop  offset="0.5833" style="stop-color:#5AF37F"/>
		<stop  offset="0.6771" style="stop-color:#71F291"/>
		<stop  offset="0.7944" style="stop-color:#97EFAD"/>
		<stop  offset="0.9293" style="stop-color:#CCECD4"/>
		<stop  offset="1" style="stop-color:#EAEAEA"/>
	</linearGradient>
	<path class="st4" d="M198.2,1.3H3.9C2.3,1.3,1,2.7,1,4.2V38h200.1V4.2C201.1,2.6,199.7,1.3,198.2,1.3z"/>
	<g id="g499_8_">
		<g>
			<path id="rect501_9_" class="st1" d="M90,33.4H112c0.3,0,0.5,0.2,0.5,0.5v8.2c0,0.3-0.2,0.5-0.5,0.5H90c-0.3,0-0.5-0.2-0.5-0.5
				v-8.2C89.5,33.6,89.8,33.4,90,33.4z"/>
			<path id="rect503_9_" class="st1" d="M46.2,33.4h18.2c0.3,0,0.5,0.2,0.5,0.5v8.2c0,0.3-0.2,0.5-0.5,0.5H46.2
				c-0.3,0-0.5-0.2-0.5-0.5v-8.2C45.7,33.6,46,33.4,46.2,33.4z"/>
			<path id="rect505_9_" class="st1" d="M8.4,33.4h14.3c0.3,0,0.5,0.2,0.5,0.5v8.2c0,0.3-0.2,0.5-0.5,0.5H8.4
				c-0.3,0-0.5-0.2-0.5-0.5v-8.2C7.8,33.6,8.1,33.4,8.4,33.4z"/>
			<path id="rect507_9_" class="st1" d="M137.9,33.4h18.2c0.3,0,0.5,0.2,0.5,0.5v8.2c0,0.3-0.2,0.5-0.5,0.5h-18.2
				c-0.3,0-0.5-0.2-0.5-0.5v-8.2C137.4,33.6,137.6,33.4,137.9,33.4z"/>
			<path id="rect509_9_" class="st1" d="M179.7,33.4h14.3c0.3,0,0.5,0.2,0.5,0.5v8.2c0,0.3-0.2,0.5-0.5,0.5h-14.3
				c-0.3,0-0.5-0.2-0.5-0.5v-8.2C179.2,33.6,179.4,33.4,179.7,33.4z"/>
		</g>
	</g>
</g>
</svg>
