<?xml version="1.0" encoding="utf-8"?>
<!-- Generator: Adobe Illustrator 22.1.0, SVG Export Plug-In . SVG Version: 6.00 Build 0)  -->
<svg version="1.1" id="Calque_1" xmlns="http://www.w3.org/2000/svg" xmlns:xlink="http://www.w3.org/1999/xlink" x="0px" y="0px"
	 viewBox="0 0 202.3 90.6" style="enable-background:new 0 0 202.3 90.6;" xml:space="preserve">
<style type="text/css">
	.st0{fill:#FFFFFF;}
	.st1{fill:url(#SVGID_1_);}
</style>
<g>
	<g>
		<path class="st0" d="M117.6,75.3L117.6,75.3c0.4,0,0.7,0,1.1,0H117.6z"/>
		<path class="st0" d="M84,75.4L84,75.4l-0.5,0C83.6,75.3,83.8,75.4,84,75.4z"/>
		<rect x="77" y="3.1" class="st0" width="0.7" height="72.6"/>
		<rect x="33.4" y="3.1" class="st0" width="0.7" height="72.6"/>
		<rect x="100.7" y="3.4" class="st0" width="0.7" height="72.6"/>
		<rect x="124.3" y="3.1" class="st0" width="0.7" height="72.6"/>
		<rect x="168.2" y="3.1" class="st0" width="0.7" height="72.6"/>
		<rect x="2.2" y="37.4" class="st0" width="196.9" height="0.7"/>
		<rect x="2.3" y="9.6" class="st0" width="197.5" height="0.7"/>
		<rect x="2.3" y="69.1" class="st0" width="197.5" height="0.7"/>
	</g>
	<path class="st0" d="M29.9,85.9c0,0.5-0.4,0.8-0.8,0.8H9.7c-0.4,0-0.8-0.4-0.8-0.8v-8.7H6.1v8.7c0,2,1.7,3.7,3.7,3.7h19.4
		c2,0,3.7-1.6,3.7-3.7v-8.7h-2.9V85.9z"/>
	<path class="st0" d="M193.4,85.9c0,0.5-0.4,0.8-0.8,0.8h-19.4c-0.4,0-0.8-0.4-0.8-0.8v-8.7h-2.9v8.7c0,2,1.7,3.7,3.7,3.7h19.4
		c2,0,3.7-1.6,3.7-3.7v-8.7h-2.9V85.9z"/>
	<path class="st0" d="M90.3,78.1c0.9,1.8,1.5,4.1,3.6,6.3c2.1,2.3,5.2,2.5,6.5,2.5c0.4,0,0.6,0,0.6,0s0.1,0,0.4,0
		c1.2,0,4.6-0.2,6.7-2.5c2.1-2.2,2.7-4.5,3.6-6.3c0.2-0.4,0.4-0.7,0.6-1H89.8C90,77.5,90.2,77.8,90.3,78.1z M109,77.1
		c-0.2,0.4-0.3,0.8-0.5,1.2c-0.6,1.5-1.2,2.8-2.4,4.2c-1.4,1.5-4.1,1.6-4.6,1.6l-0.2,0l-0.2,0l-0.2,0c0,0-0.2,0-0.3,0
		c-0.9,0-3-0.2-4.4-1.7c-1.3-1.4-1.9-2.7-2.5-4.2c-0.2-0.4-0.3-0.8-0.5-1.1H109z"/>
	<rect x="172.5" y="74.2" class="st0" width="21" height="2.9"/>
	<path class="st0" d="M198.1,1.3H3.9C2.3,1.3,1,2.6,1,4.2v70c0,1.7,1.4,2.9,2.9,2.9h2.1v-2.9l-2.2,0l0.1-70h194.2l0.1,0.1V74
		c0,0.1-0.1,0.2-0.2,0.2l-1.7,0v2.9h1.7c1.7,0,2.9-1.4,3.1-2.9v-70C201.1,2.5,199.7,1.3,198.1,1.3z"/>
	<rect x="8.9" y="74.2" class="st0" width="21" height="2.9"/>
	<path class="st0" d="M32.8,74.2v2.9h57c-1-1.6-2.4-2.6-5.8-2.8v0h33.6v0.1c-3,0.3-4.4,1.3-5.3,2.8h57.4v-2.9L32.8,74.2z M84,75.3
		L84,75.3c-0.2,0-0.3,0-0.5,0H84z M117.6,75.3h1.1C118.3,75.4,117.9,75.4,117.6,75.3L117.6,75.3z"/>
	<rect x="29.9" y="74.2" class="st0" width="2.9" height="2.9"/>
	<rect x="6.1" y="74.2" class="st0" width="2.9" height="2.9"/>
	<rect x="169.6" y="74.2" class="st0" width="2.9" height="2.9"/>
	<rect x="193.4" y="74.2" class="st0" width="2.9" height="2.9"/>
	<path class="st0" d="M117.6,74.3L117.6,74.3L84,74.3v0c3.4,0.2,4.9,1.3,5.8,2.8h22.5C113.2,75.7,114.5,74.6,117.6,74.3z"/>
	<g id="g499_15_">
		<path id="rect501_14_" class="st0" d="M90,33.3h21.9c0.3,0,0.5,0.2,0.5,0.5v8.2c0,0.3-0.2,0.5-0.5,0.5H90c-0.3,0-0.5-0.2-0.5-0.5
			v-8.2C89.5,33.6,89.7,33.3,90,33.3z"/>
		<path id="rect503_14_" class="st0" d="M46.2,33.3h18.2c0.3,0,0.5,0.2,0.5,0.5v8.2c0,0.3-0.2,0.5-0.5,0.5H46.2
			c-0.3,0-0.5-0.2-0.5-0.5v-8.2C45.7,33.6,46,33.3,46.2,33.3z"/>
		<path id="rect505_14_" class="st0" d="M8.4,33.3h14.3c0.3,0,0.5,0.2,0.5,0.5v8.2c0,0.3-0.2,0.5-0.5,0.5H8.4
			c-0.3,0-0.5-0.2-0.5-0.5v-8.2C7.8,33.6,8.1,33.3,8.4,33.3z"/>
		<path id="rect507_14_" class="st0" d="M137.9,33.3h18.2c0.3,0,0.5,0.2,0.5,0.5v8.2c0,0.3-0.2,0.5-0.5,0.5h-18.2
			c-0.3,0-0.5-0.2-0.5-0.5v-8.2C137.4,33.6,137.6,33.3,137.9,33.3z"/>
		<path id="rect509_14_" class="st0" d="M179.7,33.3H194c0.3,0,0.5,0.2,0.5,0.5v8.2c0,0.3-0.2,0.5-0.5,0.5h-14.3
			c-0.3,0-0.5-0.2-0.5-0.5v-8.2C179.2,33.6,179.4,33.3,179.7,33.3z"/>
	</g>
</g>
<linearGradient id="SVGID_1_" gradientUnits="userSpaceOnUse" x1="1" y1="19.6151" x2="201.0696" y2="19.6151">
	<stop  offset="0" style="stop-color:#EAEAEA"/>
	<stop  offset="0" style="stop-color:#EAEAEA;stop-opacity:0"/>
	<stop  offset="0.5248" style="stop-color:#FFF4FF;stop-opacity:0.3"/>
	<stop  offset="1" style="stop-color:#FFF4FF;stop-opacity:0"/>
</linearGradient>
<path class="st1" d="M198.1,1.3H3.9C2.3,1.3,1,2.6,1,4.2V38h200.1V4.2C201.1,2.5,199.7,1.3,198.1,1.3z"/>
</svg>
