<?xml version="1.0" encoding="utf-8"?>
<!-- Generator: Adobe Illustrator 22.1.0, SVG Export Plug-In . SVG Version: 6.00 Build 0)  -->
<svg version="1.1" id="Calque_1" xmlns="http://www.w3.org/2000/svg" xmlns:xlink="http://www.w3.org/1999/xlink" x="0px" y="0px"
	 viewBox="0 0 202.3 90.6" style="enable-background:new 0 0 202.3 90.6;" xml:space="preserve">
<style type="text/css">
	.st0{fill:#FFFFFF;}
</style>
<path class="st0" d="M29.9,85.9c0,0.5-0.4,0.8-0.8,0.8H9.7c-0.4,0-0.8-0.4-0.8-0.8v-8.7H6.1v8.7c0,2,1.7,3.7,3.7,3.7h19.4
	c2,0,3.7-1.6,3.7-3.7v-8.7h-2.9V85.9z"/>
<path class="st0" d="M193.4,85.9c0,0.5-0.4,0.8-0.8,0.8h-19.4c-0.4,0-0.8-0.4-0.8-0.8v-8.7h-2.9v8.7c0,2,1.7,3.7,3.7,3.7h19.4
	c2,0,3.7-1.6,3.7-3.7v-8.7h-2.9V85.9z"/>
<path class="st0" d="M90.3,78.2c0.9,1.8,1.5,4.1,3.6,6.3c2.1,2.3,5.2,2.5,6.5,2.5c0.4,0,0.6,0,0.6,0s0.1,0,0.4,0
	c1.2,0,4.6-0.2,6.7-2.5c2.1-2.2,2.7-4.5,3.6-6.3c0.2-0.4,0.4-0.7,0.6-1H89.8C90,77.5,90.2,77.8,90.3,78.2z M108.9,77.2
	c-0.2,0.4-0.3,0.8-0.5,1.2c-0.6,1.5-1.2,2.8-2.4,4.2c-1.4,1.5-4.1,1.6-4.6,1.6l-0.2,0l-0.2,0l-0.2,0c0,0-0.2,0-0.3,0
	c-0.9,0-3-0.2-4.4-1.7c-1.3-1.4-1.9-2.7-2.5-4.2c-0.2-0.4-0.3-0.8-0.5-1.1H108.9z"/>
<rect x="172.4" y="74.3" class="st0" width="20.9" height="2.9"/>
<path class="st0" d="M198.1,1.3H4C2.3,1.3,1,2.7,1,4.3v70c0,1.7,1.4,2.9,2.9,2.9h2.1v-2.9l-2.2,0L4,4.2h194.1l0.1,0.1v69.8
	c0,0.1-0.1,0.2-0.2,0.2l-1.7,0v2.9h1.7c1.7,0,2.9-1.4,3.1-2.9v-70C201,2.6,199.6,1.3,198.1,1.3z"/>
<rect x="9" y="74.2" class="st0" width="20.9" height="2.9"/>
<path class="st0" d="M32.8,74.2v2.9h57c-1-1.6-2.4-2.6-5.8-2.8v0h33.6v0.1c-3,0.3-4.4,1.3-5.3,2.8h57.3v-2.9L32.8,74.2z M83.9,75.4
	L83.9,75.4c-0.2,0-0.3,0-0.5,0H83.9z M117.5,75.4h1.1C118.2,75.4,117.9,75.4,117.5,75.4L117.5,75.4z"/>
<rect x="29.9" y="74.2" class="st0" width="2.9" height="2.9"/>
<rect x="6.1" y="74.2" class="st0" width="2.9" height="2.9"/>
<rect x="169.6" y="74.3" class="st0" width="2.9" height="2.9"/>
<rect x="193.4" y="74.3" class="st0" width="2.9" height="2.9"/>
<path class="st0" d="M117.5,74.4L117.5,74.4l-33.6-0.1v0c3.4,0.2,4.9,1.3,5.8,2.8h22.4C113.1,75.7,114.5,74.6,117.5,74.4z"/>
<g id="g499_11_">
	<path id="rect501_11_" class="st0" d="M90,33.4h21.9c0.3,0,0.5,0.2,0.5,0.5v8.2c0,0.3-0.2,0.5-0.5,0.5H90c-0.3,0-0.5-0.2-0.5-0.5
		v-8.2C89.5,33.6,89.7,33.4,90,33.4z"/>
	<path id="rect503_11_" class="st0" d="M46.2,33.4h18.2c0.3,0,0.5,0.2,0.5,0.5v8.2c0,0.3-0.2,0.5-0.5,0.5H46.2
		c-0.3,0-0.5-0.2-0.5-0.5v-8.2C45.7,33.6,46,33.4,46.2,33.4z"/>
	<path id="rect505_11_" class="st0" d="M8.4,33.4h14.3c0.3,0,0.5,0.2,0.5,0.5v8.2c0,0.3-0.2,0.5-0.5,0.5H8.4c-0.3,0-0.5-0.2-0.5-0.5
		v-8.2C7.9,33.6,8.1,33.4,8.4,33.4z"/>
	<path id="rect507_11_" class="st0" d="M137.9,33.4h18.2c0.3,0,0.5,0.2,0.5,0.5v8.2c0,0.3-0.2,0.5-0.5,0.5h-18.2
		c-0.3,0-0.5-0.2-0.5-0.5v-8.2C137.4,33.6,137.6,33.4,137.9,33.4z"/>
	<path id="rect509_11_" class="st0" d="M179.6,33.4H194c0.3,0,0.5,0.2,0.5,0.5v8.2c0,0.3-0.2,0.5-0.5,0.5h-14.3
		c-0.3,0-0.5-0.2-0.5-0.5v-8.2C179.1,33.6,179.4,33.4,179.6,33.4z"/>
</g>
<g>
	<path class="st0" d="M117.5,75.4L117.5,75.4c0.4,0,0.7,0,1.1,0H117.5z"/>
	<path class="st0" d="M83.9,75.4L83.9,75.4l-0.5,0C83.6,75.4,83.8,75.4,83.9,75.4z"/>
	<rect x="77" y="3.2" class="st0" width="0.7" height="72.6"/>
	<rect x="33.4" y="3.2" class="st0" width="0.7" height="72.6"/>
	<rect x="100" y="3.5" class="st0" width="0.7" height="72.6"/>
	<rect x="124.3" y="3.2" class="st0" width="0.7" height="72.6"/>
	<rect x="168.2" y="3.2" class="st0" width="0.7" height="72.6"/>
	<rect x="2.2" y="37.5" class="st0" width="196.9" height="0.7"/>
	<rect x="2.4" y="12.5" class="st0" width="197.4" height="0.7"/>
	<rect x="2.4" y="65.9" class="st0" width="197.4" height="0.7"/>
</g>
</svg>
