<?xml version="1.0" encoding="utf-8"?>
<!-- Generator: Adobe Illustrator 22.1.0, SVG Export Plug-In . SVG Version: 6.00 Build 0)  -->
<svg version="1.1" id="Calque_1" xmlns="http://www.w3.org/2000/svg" xmlns:xlink="http://www.w3.org/1999/xlink" x="0px" y="0px"
	 viewBox="0 0 202.3 90.6" style="enable-background:new 0 0 202.3 90.6;" xml:space="preserve">
<style type="text/css">
	.st0{fill:#0F0F0F;}
	.st1{fill:#EAEAEA;}
	.st2{fill:#CECECE;}
</style>
<g>
	<path id="path491_7_" class="st0" d="M29.1,89.6H9.7c-2,0-3.7-1.7-3.7-3.7v-21c0-2,1.7-3.7,3.7-3.7h19.4c2,0,3.7,1.7,3.7,3.7v21
		C32.8,88,31.1,89.6,29.1,89.6z"/>
	<path id="path493_7_" class="st0" d="M192.6,89.6h-19.4c-2,0-3.7-1.7-3.7-3.7v-21c0-2,1.7-3.7,3.7-3.7h19.4c2,0,3.7,1.7,3.7,3.7v21
		C196.3,88,194.6,89.6,192.6,89.6z"/>
	<path class="st1" d="M118.6,75.4h-1.1v0.1C117.9,75.4,118.2,75.4,118.6,75.4z"/>
	<path class="st1" d="M83.4,75.4c0.2,0,0.4,0,0.5,0v0H83.4z"/>
	<path class="st1" d="M93.9,85.6c2.7,2.9,7,2.5,7,2.5s4.5,0.3,7.2-2.5c2.1-2.2,2.7-4.5,3.5-6.3H90.3C91.2,81.1,91.8,83.4,93.9,85.6z
		"/>
	<rect x="83.9" y="71.7" class="st2" width="33.6" height="3.7"/>
	<path class="st2" d="M117.5,75.5L117.5,75.5l-33.6-0.1v0c4.1,0.2,5.4,1.8,6.4,3.8h21.3C112.6,77.3,113.8,75.8,117.5,75.5z"/>
	<path id="path497_7_" class="st1" d="M197.9,77.2H4c-1.6,0-2.9-1.3-2.9-2.9v-70C1,2.7,2.3,1.3,4,1.3H198c1.6,0,2.9,1.3,2.9,2.9v70
		C200.9,75.8,199.6,77.2,197.9,77.2L197.9,77.2z"/>
	<g id="g499_7_">
		<g>
			<path id="rect501_9_" class="st0" d="M90,33.4h21.9c0.3,0,0.5,0.2,0.5,0.5v8.2c0,0.3-0.2,0.5-0.5,0.5H90c-0.3,0-0.5-0.2-0.5-0.5
				v-8.2C89.5,33.6,89.7,33.4,90,33.4z"/>
			<path id="rect503_9_" class="st0" d="M46.2,33.4h18.2c0.3,0,0.5,0.2,0.5,0.5v8.2c0,0.3-0.2,0.5-0.5,0.5H46.2
				c-0.3,0-0.5-0.2-0.5-0.5v-8.2C45.7,33.6,45.9,33.4,46.2,33.4z"/>
			<path id="rect505_9_" class="st0" d="M8.4,33.4h14.3c0.3,0,0.5,0.2,0.5,0.5v8.2c0,0.3-0.2,0.5-0.5,0.5H8.4
				c-0.3,0-0.5-0.2-0.5-0.5v-8.2C7.8,33.6,8.1,33.4,8.4,33.4z"/>
			<path id="rect507_9_" class="st0" d="M137.9,33.4h18.2c0.3,0,0.5,0.2,0.5,0.5v8.2c0,0.3-0.2,0.5-0.5,0.5h-18.2
				c-0.3,0-0.5-0.2-0.5-0.5v-8.2C137.3,33.6,137.6,33.4,137.9,33.4z"/>
			<path id="rect509_9_" class="st0" d="M179.6,33.4h14.3c0.3,0,0.5,0.2,0.5,0.5v8.2c0,0.3-0.2,0.5-0.5,0.5h-14.3
				c-0.3,0-0.5-0.2-0.5-0.5v-8.2C179.1,33.6,179.3,33.4,179.6,33.4z"/>
		</g>
	</g>
</g>
<g>
	<path id="path491_1_" class="st0" d="M29.1,89.6H9.7c-2,0-3.7-1.7-3.7-3.7v-21c0-2,1.7-3.7,3.7-3.7h19.4c2,0,3.7,1.7,3.7,3.7v21
		C32.8,88,31.1,89.6,29.1,89.6z"/>
	<path id="path493_1_" class="st0" d="M192.6,89.6h-19.4c-2,0-3.7-1.7-3.7-3.7v-21c0-2,1.7-3.7,3.7-3.7h19.4c2,0,3.7,1.7,3.7,3.7v21
		C196.3,88,194.6,89.6,192.6,89.6z"/>
	<path class="st1" d="M118.6,75.4h-1.1v0.1C117.9,75.4,118.2,75.4,118.6,75.4z"/>
	<path class="st1" d="M83.4,75.4c0.2,0,0.4,0,0.5,0v0H83.4z"/>
	<path class="st1" d="M93.9,85.6c2.7,2.9,7,2.5,7,2.5s4.5,0.3,7.2-2.5c2.1-2.2,2.7-4.5,3.5-6.3H90.3C91.2,81.1,91.8,83.4,93.9,85.6z
		"/>
	<rect x="83.9" y="71.7" class="st2" width="33.6" height="3.7"/>
	<path class="st2" d="M117.5,75.5L117.5,75.5l-33.6-0.1v0c4.1,0.2,5.4,1.8,6.4,3.8h21.3C112.6,77.3,113.8,75.8,117.5,75.5z"/>
	<path id="path497_1_" class="st1" d="M197.9,77.2H4c-1.6,0-2.9-1.3-2.9-2.9v-70C1,2.7,2.3,1.3,4,1.3H198c1.6,0,2.9,1.3,2.9,2.9v70
		C200.9,75.8,199.6,77.2,197.9,77.2L197.9,77.2z"/>
	<g id="g499_1_">
		<g>
			<path id="rect501_1_" class="st0" d="M90,33.4h21.9c0.3,0,0.5,0.2,0.5,0.5v8.2c0,0.3-0.2,0.5-0.5,0.5H90c-0.3,0-0.5-0.2-0.5-0.5
				v-8.2C89.5,33.6,89.7,33.4,90,33.4z"/>
			<path id="rect503_1_" class="st0" d="M46.2,33.4h18.2c0.3,0,0.5,0.2,0.5,0.5v8.2c0,0.3-0.2,0.5-0.5,0.5H46.2
				c-0.3,0-0.5-0.2-0.5-0.5v-8.2C45.7,33.6,45.9,33.4,46.2,33.4z"/>
			<path id="rect505_1_" class="st0" d="M8.4,33.4h14.3c0.3,0,0.5,0.2,0.5,0.5v8.2c0,0.3-0.2,0.5-0.5,0.5H8.4
				c-0.3,0-0.5-0.2-0.5-0.5v-8.2C7.8,33.6,8.1,33.4,8.4,33.4z"/>
			<path id="rect507_1_" class="st0" d="M137.9,33.4h18.2c0.3,0,0.5,0.2,0.5,0.5v8.2c0,0.3-0.2,0.5-0.5,0.5h-18.2
				c-0.3,0-0.5-0.2-0.5-0.5v-8.2C137.3,33.6,137.6,33.4,137.9,33.4z"/>
			<path id="rect509_1_" class="st0" d="M179.6,33.4h14.3c0.3,0,0.5,0.2,0.5,0.5v8.2c0,0.3-0.2,0.5-0.5,0.5h-14.3
				c-0.3,0-0.5-0.2-0.5-0.5v-8.2C179.1,33.6,179.3,33.4,179.6,33.4z"/>
		</g>
	</g>
</g>
</svg>
