<?xml version="1.0" encoding="utf-8"?>
<!-- Generator: Adobe Illustrator 21.0.2, SVG Export Plug-In . SVG Version: 6.00 Build 0)  -->
<svg version="1.1" id="Calque_1" xmlns="http://www.w3.org/2000/svg" xmlns:xlink="http://www.w3.org/1999/xlink" x="0px" y="0px"
	 xml:space="preserve">
<style type="text/css">
	.st0{fill:#020203;}
</style>
<path class="st0" d="M36.8,26h-1c-0.3,0-0.6-0.2-0.7-0.5c-0.1-0.3-0.2-0.5-0.3-0.8c-0.1-0.3-0.1-0.6,0.1-0.8l0.7-0.7
	c0.5-0.5,0.5-1.3,0-1.7l-1.1-1.1C34.3,20.1,34,20,33.7,20c-0.3,0-0.6,0.1-0.9,0.4L32.1,21c-0.1,0.1-0.3,0.2-0.5,0.2
	c-0.1,0-0.2,0-0.3-0.1c-0.2-0.1-0.5-0.2-0.8-0.3c-0.3-0.1-0.5-0.4-0.5-0.7v-1c0-0.7-0.5-1.2-1.2-1.2h-1.6c-0.7,0-1.2,0.5-1.2,1.2v1
	c0,0.3-0.2,0.6-0.5,0.7c-0.3,0.1-0.5,0.2-0.8,0.3c-0.1,0-0.2,0.1-0.3,0.1c-0.2,0-0.4-0.1-0.5-0.2l-0.7-0.7C23,20.1,22.7,20,22.4,20
	c-0.3,0-0.6,0.1-0.9,0.4l-1.1,1.1c-0.2,0.2-0.4,0.5-0.4,0.9c0,0.3,0.1,0.6,0.4,0.9l0.7,0.7c0.2,0.2,0.2,0.6,0.1,0.8
	c-0.1,0.2-0.2,0.5-0.3,0.8c-0.1,0.3-0.4,0.5-0.7,0.5h-1c-0.7,0-1.2,0.5-1.2,1.2v1.6c0,0.7,0.5,1.2,1.2,1.2h1c0.3,0,0.6,0.2,0.7,0.5
	c0.1,0.3,0.2,0.5,0.3,0.8c0.1,0.3,0.1,0.6-0.1,0.8l-0.7,0.7c-0.5,0.5-0.5,1.3,0,1.7l1.1,1.1c0.2,0.2,0.5,0.4,0.9,0.4
	c0.3,0,0.6-0.1,0.9-0.4l0.7-0.7c0.1-0.1,0.3-0.2,0.5-0.2c0.1,0,0.2,0,0.3,0.1c0.2,0.1,0.5,0.2,0.8,0.3c0.3,0.1,0.5,0.4,0.5,0.7v1
	c0,0.7,0.5,1.2,1.2,1.2h1.6c0.7,0,1.2-0.5,1.2-1.2v-1c0-0.3,0.2-0.6,0.5-0.7c0.3-0.1,0.5-0.2,0.8-0.3c0.1,0,0.2-0.1,0.3-0.1
	c0.2,0,0.4,0.1,0.5,0.2l0.7,0.7c0.2,0.2,0.5,0.4,0.9,0.4c0.3,0,0.6-0.1,0.9-0.4l1.1-1.1c0.5-0.5,0.5-1.3,0-1.7L35,32.1
	c-0.2-0.2-0.2-0.6-0.1-0.8c0.1-0.2,0.2-0.5,0.3-0.8c0.1-0.3,0.4-0.5,0.7-0.5h1c0.7,0,1.2-0.5,1.2-1.2v-1.6C38,26.5,37.5,26,36.8,26z
	 M28,33.9c-3.2,0-5.9-2.6-5.9-5.9s2.6-5.9,5.9-5.9c3.2,0,5.9,2.6,5.9,5.9S31.3,33.9,28,33.9z"/>
</svg>
