<?xml version="1.0" encoding="UTF-8" standalone="no"?>
<!-- Generator: Adobe Illustrator 22.1.0, SVG Export Plug-In . SVG Version: 6.00 Build 0)  -->

<svg
   xmlns:dc="http://purl.org/dc/elements/1.1/"
   xmlns:cc="http://creativecommons.org/ns#"
   xmlns:rdf="http://www.w3.org/1999/02/22-rdf-syntax-ns#"
   xmlns:svg="http://www.w3.org/2000/svg"
   xmlns="http://www.w3.org/2000/svg"
   xmlns:sodipodi="http://sodipodi.sourceforge.net/DTD/sodipodi-0.dtd"
   xmlns:inkscape="http://www.inkscape.org/namespaces/inkscape"
   version="1.1"
   id="Calque_1"
   x="0px"
   y="0px"
   viewBox="0 0 22.6 21.8"
   style="enable-background:new 0 0 22.6 21.8;"
   xml:space="preserve"
   sodipodi:docname="update-icon.svg"
   inkscape:version="0.92.3 (2405546, 2018-03-11)"><metadata
   id="metadata11"><rdf:RDF><cc:Work
       rdf:about=""><dc:format>image/svg+xml</dc:format><dc:type
         rdf:resource="http://purl.org/dc/dcmitype/StillImage" /></cc:Work></rdf:RDF></metadata><defs
   id="defs9" /><sodipodi:namedview
   pagecolor="#ffffff"
   bordercolor="#666666"
   borderopacity="1"
   objecttolerance="10"
   gridtolerance="10"
   guidetolerance="10"
   inkscape:pageopacity="0"
   inkscape:pageshadow="2"
   inkscape:window-width="1920"
   inkscape:window-height="1017"
   id="namedview7"
   showgrid="false"
   inkscape:zoom="10.825688"
   inkscape:cx="11.3"
   inkscape:cy="10.9"
   inkscape:window-x="-8"
   inkscape:window-y="350"
   inkscape:window-maximized="1"
   inkscape:current-layer="Calque_1" />
<style
   type="text/css"
   id="style2">
	.st0{fill:#0A9EEB;}
</style>
<path
   class="st0"
   d="M11.8,0.1C7.4,0.1,3.7,2.8,2,6.6L1,6.1C0.7,6,0.4,6.1,0.2,6.3C0,6.5-0.1,6.8,0.1,7l1.8,4.1  c0.1,0.2,0.2,0.3,0.4,0.4c0.2,0.1,0.4,0.1,0.5,0l4.1-1.8c0.3-0.1,0.4-0.4,0.4-0.6c0-0.3-0.2-0.5-0.4-0.6L5.4,7.9  C6.5,5.4,9,3.7,11.8,3.7c3.9,0,7.1,3.2,7.1,7.2s-3.2,7.2-7.1,7.2c-1.7,0-3.3-0.6-4.6-1.7c-0.7-0.6-1.8-0.6-2.5,0.1l0,0  C4,17.2,4,18.4,4.8,19.1c1.9,1.6,4.3,2.6,6.9,2.6c5.9,0,10.7-4.9,10.7-10.9C22.6,4.9,17.8,0.1,11.8,0.1z"
   id="path4"
   style="fill:#eb230a;fill-opacity:1" />
</svg>