<?xml version="1.0" encoding="utf-8"?>
<!-- Generator: Adobe Illustrator 21.0.2, SVG Export Plug-In . SVG Version: 6.00 Build 0)  -->
<svg version="1.1" id="Calque_1" xmlns="http://www.w3.org/2000/svg" xmlns:xlink="http://www.w3.org/1999/xlink" x="0px" y="0px"
	 xml:space="preserve">
<path d="M37.8,32.3c0.4-0.1,0.7-0.2,1.1-0.3c0.4-0.1,0.7,0.1,0.9,0.4c0.2,0.3,0.1,0.7-0.2,1c-0.1,0.1-0.2,0.2-0.4,0.2
	c-0.9,0.3-1.9,0.6-2.9,0.9c-0.5,0.2-1,0-1.1-0.6c-0.3-1-0.6-1.9-0.9-2.9c-0.1-0.3-0.1-0.7,0.2-0.9c0.3-0.2,0.5-0.3,0.9-0.2
	c0.3,0.1,0.4,0.3,0.5,0.6c0.1,0.3,0.2,0.7,0.3,1c0,0,0,0,0.1,0c0.2-0.4,0.3-0.9,0.5-1.3c0.6-2.2,0.4-4.3-0.7-6.3
	c-1-1.8-2.5-3.1-4.4-3.9c-1.8-0.7-3.5-0.7-5.3-0.2c-1.7,0.5-3.2,1.5-4.3,2.9c-1.3,1.6-1.9,3.5-1.8,5.6c0.1,1.6,0.6,3.1,1.5,4.4
	c0.9,1.3,2.1,2.2,3.5,2.9c0.9,0.4,1.9,0.6,3,0.7c0.2,0,0.3,0,0.5,0c0.4,0.1,0.7,0.4,0.7,0.8c0,0.4-0.4,0.8-0.8,0.8
	c-1.3,0-2.5-0.2-3.7-0.7C22,36,19.9,33.8,19,30.5c-1.3-4.7,1.1-9.6,5.5-11.6c1.7-0.8,3.4-1.1,5.3-0.9c4.3,0.4,8,3.8,8.8,8
	c0.4,2.1,0.2,4.1-0.7,6.1C37.9,32.2,37.9,32.2,37.8,32.3C37.8,32.3,37.8,32.3,37.8,32.3z"/>
</svg>
