<?xml version="1.0" encoding="utf-8"?>
<!-- Generator: Adobe Illustrator 22.1.0, SVG Export Plug-In . SVG Version: 6.00 Build 0)  -->
<svg version="1.1" id="Calque_1" xmlns="http://www.w3.org/2000/svg" xmlns:xlink="http://www.w3.org/1999/xlink" x="0px" y="0px"
	 viewBox="0 0 22.6 21.8" style="enable-background:new 0 0 22.6 21.8;" xml:space="preserve">
<style type="text/css">
	.st0{fill:#0A9EEB;}
</style>
<path class="st0" d="M11.8,0.1C7.4,0.1,3.7,2.8,2,6.6L1,6.1C0.7,6,0.4,6.1,0.2,6.3C0,6.5-0.1,6.8,0.1,7l1.8,4.1
	c0.1,0.2,0.2,0.3,0.4,0.4c0.2,0.1,0.4,0.1,0.5,0l4.1-1.8c0.3-0.1,0.4-0.4,0.4-0.6c0-0.3-0.2-0.5-0.4-0.6L5.4,7.9
	C6.5,5.4,9,3.7,11.8,3.7c3.9,0,7.1,3.2,7.1,7.2s-3.2,7.2-7.1,7.2c-1.7,0-3.3-0.6-4.6-1.7c-0.7-0.6-1.8-0.6-2.5,0.1l0,0
	C4,17.2,4,18.4,4.8,19.1c1.9,1.6,4.3,2.6,6.9,2.6c5.9,0,10.7-4.9,10.7-10.9C22.6,4.9,17.8,0.1,11.8,0.1z"/>
</svg>
