<?xml version="1.0" encoding="utf-8"?>
<!-- Generator: Adobe Illustrator 23.0.3, SVG Export Plug-In . SVG Version: 6.00 Build 0)  -->
<svg version="1.1" id="Calque_1" xmlns="http://www.w3.org/2000/svg" xmlns:xlink="http://www.w3.org/1999/xlink" x="0px" y="0px"
	 viewBox="0 0 185 177" style="enable-background:new 0 0 185 177;" xml:space="preserve">
<style type="text/css">
	.st0{fill:#FFFFFF;}
</style>
<path class="st0" d="M141.6,162.8c11.7,0,21.1-9.5,21.1-21.1c0-1-0.8-1.8-1.8-1.8s-1.8,0.8-1.8,1.8c0,9.7-7.8,17.5-17.5,17.5
	c-1,0-1.8,0.8-1.8,1.8S140.6,162.8,141.6,162.8L141.6,162.8z"/>
<path class="st0" d="M170.6,139.9c-1,0-1.8,0.8-1.8,1.8l0,0c0,15-12.2,27.2-27.2,27.2c-1,0-1.8,0.8-1.8,1.8s0.8,1.8,1.8,1.8
	c17,0,30.8-13.8,30.8-30.8C172.4,140.7,171.6,139.9,170.6,139.9L170.6,139.9L170.6,139.9z"/>
<path class="st0" d="M141.6,153.1c6.3,0,11.5-5.1,11.5-11.5c0-1-0.8-1.8-1.8-1.8s-1.8,0.8-1.8,1.8c0,4.3-3.5,7.9-7.9,7.9
	c-1,0-1.8,0.8-1.8,1.8S140.6,153.1,141.6,153.1z"/>
<path class="st0" d="M164.1,95.5c0.7,0.7,1.8,0.7,2.6,0s0.7-1.8,0-2.6l-2-2c-0.7-0.7-1.8-0.7-2.6,0s-0.7,1.8,0,2.6L164.1,95.5z"/>
<path class="st0" d="M156.6,82.8c-0.7-0.7-1.8-0.7-2.6,0s-0.7,1.8,0,2.6l2,2c0.7,0.7,1.8,0.7,2.6,0s0.7-1.8,0-2.6L156.6,82.8z"/>
<path class="st0" d="M184,87.9l-22.4-22.4c-0.7-0.7-1.8-0.7-2.5,0c0,0,0,0,0,0l-21.1,21.1l-0.9-0.9c-0.7-0.7-1.8-0.7-2.5,0
	c0,0,0,0,0,0l-59.1,59.1c-3.4,3.5-3.4,9,0,12.5L92.2,174c3.5,3.4,9,3.4,12.5,0l59.1-59c0.7-0.7,0.7-1.8,0-2.5c0,0,0,0,0,0l-0.9-0.9
	L184,90.4C184.7,89.7,184.7,88.6,184,87.9C184,87.9,184,87.9,184,87.9z M160.3,109L148,96.6c-0.7-0.7-1.8-0.7-2.6,0s-0.7,1.8,0,2.6
	l14.6,14.5l-57.8,57.8c-2,2-5.4,2-7.4,0L78,154.7c-2-2-2-5.4,0-7.4l57.8-57.8l0.9,0.9l0,0l3.7,3.7c0.7,0.7,1.8,0.7,2.6,0
	s0.7-1.8,0-2.6l-2.4-2.4l19.9-19.9l19.9,19.9L160.3,109z"/>
<path class="st0" d="M90.6,22c-0.7-0.7-0.7-1.8,0-2.6s1.8-0.7,2.6,0l2,2c0.7,0.7,0.7,1.9,0,2.6c-0.7,0.7-1.9,0.7-2.6,0L90.6,22z"/>
<path class="st0" d="M103.3,29.5c0.7,0.7,0.7,1.8,0,2.6s-1.8,0.7-2.6,0l-2-2c-0.7-0.7-0.7-1.8,0-2.6s1.8-0.7,2.6,0L103.3,29.5z"/>
<path class="st0" d="M95.7,2.1L74.6,23.2l-0.9-0.9c-0.7-0.7-1.8-0.7-2.5,0c0,0,0,0,0,0L59.2,34.2c-3.4,3.5-3.4,9,0,12.5l6.3,6.3
	c-6.4,3.3-7.2,10.5-7.8,17.1S56.3,82.7,51.3,86c-5.9,3.9-10,2.1-15.1-0.1c-5.4-2.3-12.1-5.2-21.5-0.7c-7.1,3.4-12.3,11.3-13.1,20
	c-0.1,0.8-0.1,1.6-0.1,2.4c0,7.9,3.8,15.3,10.2,19.8c1,0.7,2.4,0.5,3.2-0.5c0.7-1,0.5-2.4-0.5-3.1l0,0c-5.8-4.1-9-11.1-8.3-18.2
	c0.7-7.2,4.8-13.6,10.5-16.4c7.6-3.6,12.6-1.5,17.8,0.8s11.4,4.9,19.3-0.3c6.8-4.5,7.6-12.3,8.3-19.2c0.8-7.6,1.6-12.4,6.8-14.1
	l7.1,7.1c3.5,3.4,9,3.4,12.5,0l11.9-11.9c0.7-0.7,0.7-1.8,0-2.5c0,0,0,0,0,0l-0.9-0.9L120.6,27c0.7-0.7,0.7-1.8,0-2.5c0,0,0,0,0,0
	L98.2,2C97.5,1.3,96.4,1.3,95.7,2.1C95.7,2,95.7,2,95.7,2.1L95.7,2.1z M97,5.9l19.9,19.8L97,45.6l-2.4-2.4c-0.7-0.7-1.8-0.7-2.6,0
	s-0.7,1.8,0,2.6l3.7,3.7l0,0l0.9,0.9L85.9,61c-2,2-5.4,2-7.4,0L61.7,44.2c-2-2-2-5.4,0-7.4l10.6-10.6l14.5,14.5
	c0.7,0.7,1.8,0.7,2.6,0s0.7-1.8,0-2.6L77.1,25.8L97,5.9z"/>
</svg>
