<?xml version="1.0" encoding="UTF-8" standalone="no"?>
<!-- Generator: Adobe Illustrator 19.2.1, SVG Export Plug-In . SVG Version: 6.00 Build 0)  -->

<svg
   xmlns:dc="http://purl.org/dc/elements/1.1/"
   xmlns:cc="http://creativecommons.org/ns#"
   xmlns:rdf="http://www.w3.org/1999/02/22-rdf-syntax-ns#"
   xmlns:svg="http://www.w3.org/2000/svg"
   xmlns="http://www.w3.org/2000/svg"
   xmlns:sodipodi="http://sodipodi.sourceforge.net/DTD/sodipodi-0.dtd"
   xmlns:inkscape="http://www.inkscape.org/namespaces/inkscape"
   version="1.1"
   id="Layer_1"
   x="0px"
   y="0px"
   viewBox="0 0 80 80"
   style="enable-background:new 0 0 80 80;"
   xml:space="preserve"
   inkscape:version="0.91 r13725"
   sodipodi:docname="mini-backLeft.svg"><metadata
     id="metadata4397"><rdf:RDF><cc:Work
         rdf:about=""><dc:format>image/svg+xml</dc:format><dc:type
           rdf:resource="http://purl.org/dc/dcmitype/StillImage" /></cc:Work></rdf:RDF></metadata><defs
     id="defs4395" /><sodipodi:namedview
     pagecolor="#ffffff"
     bordercolor="#666666"
     borderopacity="1"
     objecttolerance="10"
     gridtolerance="10"
     guidetolerance="10"
     inkscape:pageopacity="0"
     inkscape:pageshadow="2"
     inkscape:window-width="2560"
     inkscape:window-height="1335"
     id="namedview4393"
     showgrid="false"
     inkscape:zoom="14.0125"
     inkscape:cx="40"
     inkscape:cy="40"
     inkscape:window-x="0"
     inkscape:window-y="56"
     inkscape:window-maximized="1"
     inkscape:current-layer="Layer_1" /><style
     type="text/css"
     id="style4357">
	.st0{fill:#FFFFFF;}
	.st1{fill:none;stroke:#646565;stroke-miterlimit:10;}
	.st2{fill:none;stroke:#646565;stroke-miterlimit:10;stroke-dasharray:1.173,1.173;}
</style><path
     class="st0"
     d="m 31.77,48.21 -1.2,1.32 3.12,3.12 -12.96,3.48 3.48,-12.96 3.12,3.12 1.32,-1.32 c 3.24,-3.24 5.04,-7.56 5.04,-12.24 l 0,-5.4 4.44,0 0,5.4 c 0,5.88 -2.28,11.4 -6.36,15.48 z"
     id="path4359"
     inkscape:connector-curvature="0"
     style="fill:#ffffff" /><g
     id="g4361"
     transform="matrix(1.2,0,0,1.2,-7.83,-7.47)"><path
       class="st0"
       d="m 48.3,21.7 c -2.4,0 -4.6,1 -6.2,2.5 0,0 -0.1,0.1 -0.1,0.1 l 0,9.6 c 0,0.1 0.1,0.2 0.2,0.2 l 12.1,0 c 0.1,0 0.2,-0.1 0.2,-0.2 l 0,-9.6 c 0,-0.1 0,-0.1 -0.1,-0.1 -1.6,-1.6 -3.7,-2.5 -6.1,-2.5 z"
       id="path4363"
       inkscape:connector-curvature="0"
       style="fill:#ffffff" /><g
       id="g4365"><g
         id="g4367"><line
           class="st1"
           x1="42"
           y1="28.5"
           x2="42.5"
           y2="28.5"
           id="line4369"
           style="fill:none;stroke:#646565;stroke-miterlimit:10" /><polyline
           class="st1"
           points="43,28.5 43.5,28.5 43.5,29    "
           id="polyline4371"
           style="fill:none;stroke:#646565;stroke-miterlimit:10" /><line
           class="st2"
           x1="43.5"
           y1="30.1"
           x2="43.5"
           y2="31.9"
           id="line4373"
           style="fill:none;stroke:#646565;stroke-miterlimit:10;stroke-dasharray:1.173, 1.173" /><polyline
           class="st1"
           points="43.5,32.5 43.5,33 43,33    "
           id="polyline4375"
           style="fill:none;stroke:#646565;stroke-miterlimit:10" /><line
           class="st1"
           x1="42.5"
           y1="33"
           x2="42"
           y2="33"
           id="line4377"
           style="fill:none;stroke:#646565;stroke-miterlimit:10" /></g></g><g
       id="g4379"><g
         id="g4381"><line
           class="st1"
           x1="54.5"
           y1="33"
           x2="54"
           y2="33"
           id="line4383"
           style="fill:none;stroke:#646565;stroke-miterlimit:10" /><polyline
           class="st1"
           points="53.5,33 53,33 53,32.5    "
           id="polyline4385"
           style="fill:none;stroke:#646565;stroke-miterlimit:10" /><line
           class="st2"
           x1="53"
           y1="31.299999"
           x2="53"
           y2="29.5"
           id="line4387"
           style="fill:none;stroke:#646565;stroke-miterlimit:10;stroke-dasharray:1.173, 1.173" /><polyline
           class="st1"
           points="53,29 53,28.5 53.5,28.5    "
           id="polyline4389"
           style="fill:none;stroke:#646565;stroke-miterlimit:10" /><line
           class="st1"
           x1="54"
           y1="28.5"
           x2="54.5"
           y2="28.5"
           id="line4391"
           style="fill:none;stroke:#646565;stroke-miterlimit:10" /></g></g></g></svg>