<?xml version="1.0" encoding="utf-8"?>
<!-- Generator: Adobe Illustrator 19.2.1, SVG Export Plug-In . SVG Version: 6.00 Build 0)  -->
<svg version="1.1" id="Layer_1" xmlns="http://www.w3.org/2000/svg" xmlns:xlink="http://www.w3.org/1999/xlink" x="0px" y="0px"
	 viewBox="0 0 24 24" style="enable-background:new 0 0 24 24;" xml:space="preserve">
<style type="text/css">
	.st0{fill:#FFFFFF;}
</style>
<path class="st0" d="M12,2C6.5,2,2,6.5,2,12c0,5.5,4.5,10,10,10c5.5,0,10-4.5,10-10C22,6.5,17.5,2,12,2z M17,16h-3v3h-2v-3H9v-2h3
	v-3h2v3h3V16z M4,12c0-1.1,0.9-2,2-2c0,0,0.1,0,0.1,0l2.1-3.1C8.1,6.6,8,6.3,8,6c0-1.1,0.9-2,2-2c1,0,1.8,0.7,2,1.6l2.7,0.9
	C15,6.2,15.5,6,16,6c1.1,0,2,0.9,2,2s-0.9,2-2,2c-1,0-1.8-0.7-2-1.6l-2.7-0.9C11,7.8,10.5,8,10,8c0,0-0.1,0-0.1,0l-2.1,3.1
	C7.9,11.4,8,11.7,8,12c0,1.1-0.9,2-2,2C4.9,14,4,13.1,4,12z"/>
</svg>
