<?xml version="1.0" encoding="UTF-8" standalone="no"?>
<svg
   xmlns:dc="http://purl.org/dc/elements/1.1/"
   xmlns:cc="http://creativecommons.org/ns#"
   xmlns:rdf="http://www.w3.org/1999/02/22-rdf-syntax-ns#"
   xmlns:svg="http://www.w3.org/2000/svg"
   xmlns="http://www.w3.org/2000/svg"
   width="58"
   height="58"
   viewBox="0 0 58 58.000001"
   id="svg4189"
   version="1.1">
  <g
     id="g17"
     style="opacity:0.07999998"
     transform="translate(-99,-37.55)">
    <path
       id="path19"
       d="m 100.4,81.3 21.3,-36.8 c 2.8,-4.8 9.8,-4.8 12.6,0 l 21.3,36.8 c 2.8,4.8 -0.7,10.9 -6.3,10.9 l -42.6,0 c -5.6,0 -9.1,-6 -6.3,-10.9 z" />
  </g>
  <path
     id="path23"
     d="m 8.5,49.65 c -2.6,0 -3.7,-1.8 -2.4,-4.1 l 20.5,-35.4 c 1.3,-2.3 3.4,-2.3 4.7,0 l 20.499993,35.4 c 1.3,2.3 0.2,4.1 -2.4,4.1 L 8.5,49.65 Z"
     style="fill:#ffffff" />
  <path
     id="path25"
     d="m 8.5,49.65 c -2.6,0 -3.7,-1.8 -2.4,-4.1 l 20.5,-35.4 c 1.3,-2.3 3.4,-2.3 4.7,0 l 20.499993,35.4 c 1.3,2.3 0.2,4.1 -2.4,4.1 L 8.5,49.65 Z"
     stroke-miterlimit="10"
     style="fill:none;stroke:#a7a8ab;stroke-width:6.25419998;stroke-miterlimit:10" />
</svg>
