<?xml version="1.0" encoding="utf-8"?>
<!-- Generator: Adobe Illustrator 19.2.1, SVG Export Plug-In . SVG Version: 6.00 Build 0)  -->
<svg version="1.1" id="Layer_1" xmlns="http://www.w3.org/2000/svg" xmlns:xlink="http://www.w3.org/1999/xlink" x="0px" y="0px"
	 viewBox="0 0 24 24" style="enable-background:new 0 0 24 24;" xml:space="preserve">
<style type="text/css">
	.st0{fill:#FFFFFF;}
</style>
<g>
	<path class="st0" d="M2.1,11.6v8h1.5v-1.5c0-2.8,2.2-5,5-5s5,2.2,5,5v1.5h8.5v-8H2.1z"/>
	<circle class="st0" cx="8.6" cy="18.1" r="3"/>
</g>
<g>
	<path class="st0" d="M19.1,5.6c0.3,0.3,0.7,0.5,1.1,0.5c0.8,0,1.5-0.7,1.5-1.5c0-0.8-0.7-1.5-1.5-1.5c-0.4,0-0.8,0.2-1.1,0.5h-14
		C4.8,3.3,4.4,3.1,4,3.1c-0.8,0-1.5,0.7-1.5,1.5c0,0.8,0.7,1.5,1.5,1.5c0.4,0,0.8-0.2,1.1-0.5H19.1z"/>
</g>
</svg>
